G04*
G04 #@! TF.GenerationSoftware,Altium Limited,Altium Designer,24.3.1 (35)*
G04*
G04 Layer_Physical_Order=1*
G04 Layer_Color=255*
%FSLAX44Y44*%
%MOMM*%
G71*
G04*
G04 #@! TF.SameCoordinates,D9C964B4-26AD-435A-8A32-BF43BC4377D0*
G04*
G04*
G04 #@! TF.FilePolarity,Positive*
G04*
G01*
G75*
%ADD13R,1.5562X1.4546*%
%ADD14R,1.0046X1.2621*%
%ADD15R,1.4546X1.5562*%
G04:AMPARAMS|DCode=16|XSize=1.8741mm|YSize=0.5421mm|CornerRadius=0.2711mm|HoleSize=0mm|Usage=FLASHONLY|Rotation=0.000|XOffset=0mm|YOffset=0mm|HoleType=Round|Shape=RoundedRectangle|*
%AMROUNDEDRECTD16*
21,1,1.8741,0.0000,0,0,0.0*
21,1,1.3319,0.5421,0,0,0.0*
1,1,0.5421,0.6660,0.0000*
1,1,0.5421,-0.6660,0.0000*
1,1,0.5421,-0.6660,0.0000*
1,1,0.5421,0.6660,0.0000*
%
%ADD16ROUNDEDRECTD16*%
%ADD17R,1.8741X0.5421*%
%ADD18R,1.8000X1.2500*%
G04:AMPARAMS|DCode=19|XSize=1.8052mm|YSize=0.6121mm|CornerRadius=0.3061mm|HoleSize=0mm|Usage=FLASHONLY|Rotation=180.000|XOffset=0mm|YOffset=0mm|HoleType=Round|Shape=RoundedRectangle|*
%AMROUNDEDRECTD19*
21,1,1.8052,0.0000,0,0,180.0*
21,1,1.1931,0.6121,0,0,180.0*
1,1,0.6121,-0.5966,0.0000*
1,1,0.6121,0.5966,0.0000*
1,1,0.6121,0.5966,0.0000*
1,1,0.6121,-0.5966,0.0000*
%
%ADD19ROUNDEDRECTD19*%
%ADD20R,1.8052X0.6121*%
%ADD21R,1.2621X0.9578*%
%ADD22R,1.3500X0.9500*%
%ADD23R,1.2621X1.0046*%
%ADD30C,0.5080*%
%ADD31C,0.7620*%
G04:AMPARAMS|DCode=32|XSize=1.6mm|YSize=1.6mm|CornerRadius=0.4mm|HoleSize=0mm|Usage=FLASHONLY|Rotation=270.000|XOffset=0mm|YOffset=0mm|HoleType=Round|Shape=RoundedRectangle|*
%AMROUNDEDRECTD32*
21,1,1.6000,0.8000,0,0,270.0*
21,1,0.8000,1.6000,0,0,270.0*
1,1,0.8000,-0.4000,-0.4000*
1,1,0.8000,-0.4000,0.4000*
1,1,0.8000,0.4000,0.4000*
1,1,0.8000,0.4000,-0.4000*
%
%ADD32ROUNDEDRECTD32*%
%ADD33C,1.6000*%
%ADD34C,3.0480*%
%ADD35C,0.6000*%
D13*
X359410Y429628D02*
D03*
Y411112D02*
D03*
X532130Y389522D02*
D03*
Y408038D02*
D03*
X558800Y424548D02*
D03*
Y406032D02*
D03*
X440690Y425082D02*
D03*
Y443598D02*
D03*
X525780Y314592D02*
D03*
Y333108D02*
D03*
D14*
X365648Y392430D02*
D03*
X350632D02*
D03*
X478902Y388620D02*
D03*
X493918D02*
D03*
X461122Y363220D02*
D03*
X476138D02*
D03*
X445994Y388620D02*
D03*
X461010D02*
D03*
X359522Y331470D02*
D03*
X374538D02*
D03*
X359522Y309880D02*
D03*
X374538D02*
D03*
D15*
X370472Y367030D02*
D03*
X388988D02*
D03*
D16*
X491791Y340360D02*
D03*
Y327660D02*
D03*
Y314960D02*
D03*
Y302260D02*
D03*
X445469D02*
D03*
Y314960D02*
D03*
Y327660D02*
D03*
D17*
Y340360D02*
D03*
D18*
X533700Y363220D02*
D03*
X507700D02*
D03*
X462580Y278130D02*
D03*
X436580D02*
D03*
D19*
X384735Y426110D02*
D03*
Y445110D02*
D03*
X407745D02*
D03*
Y435610D02*
D03*
D20*
Y426110D02*
D03*
D21*
X394970Y313116D02*
D03*
Y327660D02*
D03*
D22*
X416560Y298070D02*
D03*
Y314070D02*
D03*
Y344550D02*
D03*
Y328550D02*
D03*
D23*
X557530Y313914D02*
D03*
Y328930D02*
D03*
X417830Y385968D02*
D03*
Y370952D02*
D03*
D30*
X440690Y443598D02*
X441592Y444500D01*
X414827Y444730D02*
X440690D01*
X441592Y444500D02*
X471170D01*
X414964Y435093D02*
X418138D01*
X438299Y427473D02*
X440690Y425082D01*
X408029Y435411D02*
X414646D01*
X442444Y426836D02*
X445076D01*
X440690Y425082D02*
X442444Y426836D01*
X418138Y435093D02*
X425757Y427473D01*
X414646Y435411D02*
X414964Y435093D01*
X425757Y427473D02*
X438299D01*
X536240Y360680D02*
X609600D01*
X401779Y426110D02*
X407745D01*
X398780Y403860D02*
Y423111D01*
X390020Y395100D02*
X398780Y403860D01*
Y423111D02*
X401779Y426110D01*
X360599Y412301D02*
X374004D01*
X359410Y411112D02*
X360599Y412301D01*
X374004D02*
X374180Y412477D01*
X368131Y395100D02*
X390020D01*
X367030Y392430D02*
Y393999D01*
X368131Y395100D01*
X342900Y399752D02*
Y436880D01*
Y399752D02*
X346452Y396201D01*
X342900Y436880D02*
X351130Y445110D01*
X346452Y396201D02*
X348149D01*
X384858Y379778D02*
X388565Y383485D01*
X416634D01*
X360500Y379778D02*
X384858D01*
X416634Y383485D02*
X432652Y399503D01*
X392798Y370840D02*
X419100D01*
X388988Y367030D02*
X392798Y370840D01*
X458527Y391103D02*
Y396527D01*
X455551Y399503D02*
X458527Y396527D01*
Y391103D02*
X461010Y388620D01*
X432652Y399503D02*
X455551D01*
X368131Y388659D02*
X370801D01*
X375744Y387526D02*
X375920Y387350D01*
X371934Y387526D02*
X375744D01*
X370801Y388659D02*
X371934Y387526D01*
X365648Y392430D02*
X367030D01*
Y389760D02*
X368131Y388659D01*
X367030Y389760D02*
Y392430D01*
X508000Y332740D02*
Y362920D01*
X491791Y327660D02*
X502920D01*
X508000Y332740D01*
X368300Y368300D02*
X370840Y370840D01*
X369570Y365620D02*
Y367030D01*
X326390Y356870D02*
X360820D01*
X324510Y331470D02*
X359522D01*
X354063Y306070D02*
X354103Y306109D01*
X324277Y306070D02*
X354063D01*
X354103Y306109D02*
X357039D01*
X359522Y308592D01*
Y309880D01*
X351130Y445110D02*
X384735D01*
X407745D02*
X407944Y444911D01*
X414646D01*
X414827Y444730D01*
X355968Y426720D02*
X379866D01*
X348149Y396201D02*
X350632Y393717D01*
Y392430D02*
Y393717D01*
X404036Y346534D02*
X414576D01*
X416560Y344550D01*
X403860Y346710D02*
X404036Y346534D01*
X350615Y391160D02*
X353115Y388659D01*
Y387163D02*
X360500Y379778D01*
X353115Y387163D02*
Y388659D01*
X355600Y368300D02*
X368300D01*
X533700Y363220D02*
X536240Y360680D01*
X360820Y356870D02*
X369570Y365620D01*
X472375Y302195D02*
X491725D01*
X462580Y280670D02*
Y292400D01*
X472375Y302195D01*
X491725D02*
X491791Y302260D01*
X496570D01*
X438810D02*
X445469D01*
X430718Y294168D02*
X438810Y302260D01*
X430718Y283398D02*
Y294168D01*
X491791Y314960D02*
X524904D01*
X557530Y328930D02*
X580390D01*
X590550Y339090D01*
X525780Y333108D02*
X554622D01*
X492705Y387295D02*
X494030Y388620D01*
X476138Y364507D02*
X492705Y381074D01*
Y387295D01*
X476138Y363220D02*
Y364507D01*
X445770Y388620D02*
X447208Y387182D01*
Y378422D02*
X461122Y364507D01*
Y363220D02*
Y364507D01*
X447208Y378422D02*
Y387182D01*
X477351Y350339D02*
X487330Y340360D01*
X477351Y350339D02*
Y362119D01*
X487330Y340360D02*
X491791D01*
X445469D02*
X449930D01*
X459909Y350339D01*
Y362119D01*
X412020Y327660D02*
X414290Y329930D01*
X416625Y327725D02*
X445404D01*
X445469Y327660D01*
X416560D02*
X416625Y327725D01*
X416560Y313690D02*
X417765Y314895D01*
X414180Y314960D02*
X416560D01*
X443165Y314895D02*
X443230Y314960D01*
X417765Y314895D02*
X443165D01*
X443230Y314960D02*
X445469D01*
X394970Y327660D02*
X412020D01*
X394970Y313116D02*
X412336D01*
X414180Y314960D01*
X374538Y309880D02*
X376156Y311498D01*
X392778D01*
X374538Y330182D02*
X377021Y327699D01*
X378308D01*
X374538Y330182D02*
Y331470D01*
X378308Y327699D02*
X378348Y327660D01*
X394970D01*
D31*
X439572Y277888D02*
X441770Y275690D01*
X556511Y426836D02*
X558800Y424548D01*
X562000Y427748D02*
X587768D01*
X600911Y426309D02*
X618522Y408698D01*
X441770Y272940D02*
X448914Y265796D01*
X609600Y333394D02*
Y360680D01*
X589691Y426309D02*
X600911D01*
X448914Y265796D02*
X574680D01*
X572116Y295910D02*
X609600Y333394D01*
X574680Y265796D02*
X618522Y309638D01*
X588010Y427990D02*
X589691Y426309D01*
X561340Y295910D02*
X572116D01*
X618522Y309638D02*
Y408698D01*
X445076Y426836D02*
X556511D01*
X558800Y424548D02*
X562000Y427748D01*
X436822Y277888D02*
X439572D01*
X441770Y272940D02*
Y275690D01*
X609600Y360680D02*
Y381000D01*
X588010Y402590D02*
X609600Y381000D01*
X409356Y410210D02*
X505460D01*
X388620D02*
Y425361D01*
X461010Y388620D02*
X478902D01*
X505460Y410210D02*
X525021Y390649D01*
X525021D01*
X512890Y373745D02*
X525204Y386059D01*
X528667D02*
X532130Y389522D01*
X525204Y386059D02*
X528667D01*
X512890Y365660D02*
Y373745D01*
X405130Y288290D02*
Y288640D01*
X414940Y298450D01*
X416560D01*
X569743Y377190D02*
X588010D01*
X557043Y389890D02*
X569743Y377190D01*
X532130Y389890D02*
X557043D01*
X496570Y302195D02*
X501715D01*
X508000Y363220D02*
X510450D01*
X512890Y365660D01*
X554539Y407219D02*
X556260Y405498D01*
X530041Y407219D02*
X554539D01*
X586554Y401320D02*
X586740D01*
X556260Y405498D02*
X582376D01*
X586554Y401320D01*
X508000Y295910D02*
X561340D01*
X501715Y302195D02*
X508000Y295910D01*
X556260Y313690D02*
X559042D01*
X561301Y311431D01*
Y308649D02*
Y311431D01*
X561340Y295910D02*
Y308610D01*
X561301Y308649D02*
X561340Y308610D01*
X556484Y313914D02*
X557530D01*
X556260Y313690D02*
X556484Y313914D01*
D32*
X588010Y427990D02*
D03*
X590550Y339090D02*
D03*
X326390Y356870D02*
D03*
D33*
X588010Y402590D02*
D03*
Y377190D02*
D03*
X590550Y313690D02*
D03*
X326390Y331470D02*
D03*
Y306070D02*
D03*
D34*
X323850Y448310D02*
D03*
X613410D02*
D03*
Y271780D02*
D03*
X326390Y273050D02*
D03*
D35*
X409356Y410210D02*
D03*
X388620D02*
D03*
X374180Y412477D02*
D03*
X375920Y387350D02*
D03*
X471170Y444500D02*
D03*
X403860Y346710D02*
D03*
X405130Y288290D02*
D03*
X355600Y368300D02*
D03*
M02*
