G04*
G04 #@! TF.GenerationSoftware,Altium Limited,Altium Designer,24.3.1 (35)*
G04*
G04 Layer_Color=2752767*
%FSLAX44Y44*%
%MOMM*%
G71*
G04*
G04 #@! TF.SameCoordinates,D9C964B4-26AD-435A-8A32-BF43BC4377D0*
G04*
G04*
G04 #@! TF.FilePolarity,Positive*
G04*
G01*
G75*
%ADD12C,0.1270*%
%ADD37C,0.1693*%
D12*
X323850Y443230D02*
X318770Y453390D01*
X328930D01*
X323850Y443230D01*
X613410D02*
X608330Y453390D01*
X618490D01*
X613410Y443230D01*
Y266700D02*
X608330Y276860D01*
X618490D01*
X613410Y266700D01*
X326390Y267970D02*
X321310Y278130D01*
X331470D01*
X326390Y267970D01*
X409356Y405130D02*
X411896Y407670D01*
X414436D01*
X411896Y410210D01*
X414436Y412750D01*
X411896D01*
X409356Y415290D01*
X406816Y412750D01*
X404276D01*
X406816Y410210D01*
X404276Y407670D01*
X406816D01*
X409356Y405130D01*
X388620D02*
X391160Y407670D01*
X393700D01*
X391160Y410210D01*
X393700Y412750D01*
X391160D01*
X388620Y415290D01*
X386080Y412750D01*
X383540D01*
X386080Y410210D01*
X383540Y407670D01*
X386080D01*
X388620Y405130D01*
X374180Y407397D02*
X376720Y409937D01*
X379260D01*
X376720Y412477D01*
X379260Y415017D01*
X376720D01*
X374180Y417557D01*
X371640Y415017D01*
X369100D01*
X371640Y412477D01*
X369100Y409937D01*
X371640D01*
X374180Y407397D01*
X375920Y382270D02*
X378460Y384810D01*
X381000D01*
X378460Y387350D01*
X381000Y389890D01*
X378460D01*
X375920Y392430D01*
X373380Y389890D01*
X370840D01*
X373380Y387350D01*
X370840Y384810D01*
X373380D01*
X375920Y382270D01*
X471170Y439420D02*
X473710Y441960D01*
X476250D01*
X473710Y444500D01*
X476250Y447040D01*
X473710D01*
X471170Y449580D01*
X468630Y447040D01*
X466090D01*
X468630Y444500D01*
X466090Y441960D01*
X468630D01*
X471170Y439420D01*
X403860Y341630D02*
X406400Y344170D01*
X408940D01*
X406400Y346710D01*
X408940Y349250D01*
X406400D01*
X403860Y351790D01*
X401320Y349250D01*
X398780D01*
X401320Y346710D01*
X398780Y344170D01*
X401320D01*
X403860Y341630D01*
X405130Y283210D02*
X407670Y285750D01*
X410210D01*
X407670Y288290D01*
X410210Y290830D01*
X407670D01*
X405130Y293370D01*
X402590Y290830D01*
X400050D01*
X402590Y288290D01*
X400050Y285750D01*
X402590D01*
X405130Y283210D01*
X355600Y363220D02*
X358140Y365760D01*
X360680D01*
X358140Y368300D01*
X360680Y370840D01*
X358140D01*
X355600Y373380D01*
X353060Y370840D01*
X350520D01*
X353060Y368300D01*
X350520Y365760D01*
X353060D01*
X355600Y363220D01*
D37*
X593090Y427990D02*
G03*
X593090Y427990I-5080J0D01*
G01*
Y402590D02*
G03*
X593090Y402590I-5080J0D01*
G01*
Y377190D02*
G03*
X593090Y377190I-5080J0D01*
G01*
X595630Y313690D02*
G03*
X595630Y313690I-5080J0D01*
G01*
Y339090D02*
G03*
X595630Y339090I-5080J0D01*
G01*
X331470Y356870D02*
G03*
X331470Y356870I-5080J0D01*
G01*
Y331470D02*
G03*
X331470Y331470I-5080J0D01*
G01*
Y306070D02*
G03*
X331470Y306070I-5080J0D01*
G01*
M02*
