M48
;Layer_Color=9474304
;FILE_FORMAT=4:4
METRIC,LZ
;TYPE=PLATED
T01F00S00C0.3000
T02F00S00C1.1000
T03F00S00C2.5400
%
T01
X003556Y003683
X0037592Y0038735
X0040386Y0034671
X0040513Y0028829
X00409356Y0041021
X0047117Y004445
X0038862Y0041021
X0037418Y00412477
T02
X0032639Y0030607
Y0033147
Y0035687
X0058801Y0037719
X0059055Y0033909
Y0031369
X0058801Y0040259
Y0042799
T03
X0032639Y0027305
X0061341Y0027178
Y0044831
X0032385
M30
