G04*
G04 #@! TF.GenerationSoftware,Altium Limited,Altium Designer,24.3.1 (35)*
G04*
G04 Layer_Color=65535*
%FSLAX44Y44*%
%MOMM*%
G71*
G04*
G04 #@! TF.SameCoordinates,D9C964B4-26AD-435A-8A32-BF43BC4377D0*
G04*
G04*
G04 #@! TF.FilePolarity,Positive*
G04*
G01*
G75*
%ADD10C,0.2500*%
%ADD11C,0.2000*%
%ADD12C,0.1270*%
D10*
X589260Y446690D02*
G03*
X589260Y446690I-1250J0D01*
G01*
X591800Y357790D02*
G03*
X591800Y357790I-1250J0D01*
G01*
X428849Y340360D02*
G03*
X428849Y340360I-1250J0D01*
G01*
X327640Y375570D02*
G03*
X327640Y375570I-1250J0D01*
G01*
X426521Y425860D02*
G03*
X426521Y425860I-1250J0D01*
G01*
D11*
X577100Y299490D02*
X604000D01*
Y353290D01*
X577100D02*
X604000D01*
X577100Y299490D02*
Y353290D01*
X459840Y296810D02*
Y345810D01*
Y296810D02*
X477420D01*
Y345810D01*
X459840D02*
X477420D01*
X312940Y291870D02*
X339840D01*
Y371070D01*
X312940D02*
X339840D01*
X312940Y291870D02*
Y371070D01*
X382240Y418610D02*
X410240D01*
X382240Y452610D02*
X410240D01*
X410810Y305570D02*
Y306570D01*
X422310Y305570D02*
Y306570D01*
Y336050D02*
Y337050D01*
X410810Y336050D02*
Y337050D01*
D12*
X580390Y449579D02*
X578697D01*
X579544D01*
Y445347D01*
X578697Y444501D01*
X577851D01*
X577004Y445347D01*
X582083Y444501D02*
X583776D01*
X582929D01*
Y449579D01*
X582083Y448733D01*
X591396Y288291D02*
X593089D01*
X592243D01*
Y292523D01*
X593089Y293369D01*
X593936D01*
X594782Y292523D01*
X589704Y289137D02*
X588857Y288291D01*
X587164D01*
X586318Y289137D01*
Y289984D01*
X587164Y290830D01*
X588011D01*
X587164D01*
X586318Y291676D01*
Y292523D01*
X587164Y293369D01*
X588857D01*
X589704Y292523D01*
X357294Y443653D02*
X356448Y444499D01*
X354755D01*
X353909Y443653D01*
Y440267D01*
X354755Y439421D01*
X356448D01*
X357294Y440267D01*
X358987Y439421D02*
X360680D01*
X359833D01*
Y444499D01*
X358987Y443653D01*
X363219Y439421D02*
X364912D01*
X364065D01*
Y444499D01*
X363219Y443653D01*
X549063Y364066D02*
X549909Y364913D01*
Y366605D01*
X549063Y367452D01*
X545677D01*
X544831Y366605D01*
Y364913D01*
X545677Y364066D01*
X549909Y362374D02*
Y358988D01*
X549063D01*
X545677Y362374D01*
X544831D01*
X367803Y455319D02*
Y451087D01*
X368650Y450241D01*
X370342D01*
X371189Y451087D01*
Y455319D01*
X376267Y450241D02*
X372882D01*
X376267Y453626D01*
Y454473D01*
X375421Y455319D01*
X373728D01*
X372882Y454473D01*
X392854Y340783D02*
X392007Y341629D01*
X390314D01*
X389468Y340783D01*
Y337397D01*
X390314Y336551D01*
X392007D01*
X392854Y337397D01*
X394546Y340783D02*
X395393Y341629D01*
X397086D01*
X397932Y340783D01*
Y339936D01*
X397086Y339090D01*
X396239D01*
X397086D01*
X397932Y338244D01*
Y337397D01*
X397086Y336551D01*
X395393D01*
X394546Y337397D01*
X415714Y356023D02*
X414867Y356869D01*
X413175D01*
X412328Y356023D01*
Y352637D01*
X413175Y351791D01*
X414867D01*
X415714Y352637D01*
X419946Y351791D02*
Y356869D01*
X417406Y354330D01*
X420792D01*
X441536Y409787D02*
X442383Y408941D01*
X444076D01*
X444922Y409787D01*
Y413173D01*
X444076Y414019D01*
X442383D01*
X441536Y413173D01*
X439844D02*
X438997Y414019D01*
X437304D01*
X436458Y413173D01*
Y409787D01*
X437304Y408941D01*
X438997D01*
X439844Y409787D01*
Y410634D01*
X438997Y411480D01*
X436458D01*
X532976Y375497D02*
X533823Y374651D01*
X535516D01*
X536362Y375497D01*
Y378883D01*
X535516Y379729D01*
X533823D01*
X532976Y378883D01*
X527898Y379729D02*
X531284D01*
X527898Y376344D01*
Y375497D01*
X528744Y374651D01*
X530437D01*
X531284Y375497D01*
X556684Y443653D02*
X555837Y444499D01*
X554145D01*
X553298Y443653D01*
Y440267D01*
X554145Y439421D01*
X555837D01*
X556684Y440267D01*
X561762Y444499D02*
X558376D01*
Y441960D01*
X560069Y442806D01*
X560916D01*
X561762Y441960D01*
Y440267D01*
X560916Y439421D01*
X559223D01*
X558376Y440267D01*
X415290Y286597D02*
X416136Y285751D01*
X417829D01*
X418676Y286597D01*
Y289983D01*
X417829Y290829D01*
X416136D01*
X415290Y289983D01*
X413597Y290829D02*
X411904D01*
X412751D01*
Y285751D01*
X413597Y286597D01*
X369148Y345441D02*
Y350519D01*
X371687D01*
X372534Y349673D01*
Y347980D01*
X371687Y347134D01*
X369148D01*
X370841D02*
X372534Y345441D01*
X377612D02*
X374226D01*
X377612Y348826D01*
Y349673D01*
X376766Y350519D01*
X375073D01*
X374226Y349673D01*
X378036Y295909D02*
Y290831D01*
X375496D01*
X374650Y291677D01*
Y293370D01*
X375496Y294216D01*
X378036D01*
X376343D02*
X374650Y295909D01*
X372957D02*
X371264D01*
X372111D01*
Y290831D01*
X372957Y291677D01*
X487681Y367452D02*
X492759D01*
Y364913D01*
X491913Y364066D01*
X490220D01*
X489374Y364913D01*
Y367452D01*
Y365759D02*
X487681Y364066D01*
X492759Y362374D02*
Y358988D01*
X491913D01*
X488527Y362374D01*
X487681D01*
X527763Y298553D02*
X528610Y297706D01*
X530302D01*
X531149Y298553D01*
Y301938D01*
X530302Y302785D01*
X528610D01*
X527763Y301938D01*
X526071Y298553D02*
X525224Y297706D01*
X523531D01*
X522685Y298553D01*
Y299399D01*
X523531Y300245D01*
X522685Y301092D01*
Y301938D01*
X523531Y302785D01*
X525224D01*
X526071Y301938D01*
Y301092D01*
X525224Y300245D01*
X526071Y299399D01*
Y298553D01*
X525224Y300245D02*
X523531D01*
X342899Y392008D02*
X337821D01*
Y394547D01*
X338667Y395394D01*
X340360D01*
X341206Y394547D01*
Y392008D01*
Y393701D02*
X342899Y395394D01*
Y399626D02*
X337821D01*
X340360Y397086D01*
Y400472D01*
X414868Y396353D02*
Y401431D01*
X417407D01*
X418254Y400585D01*
Y398892D01*
X417407Y398046D01*
X414868D01*
X416561D02*
X418254Y396353D01*
X419946Y400585D02*
X420793Y401431D01*
X422486D01*
X423332Y400585D01*
Y399739D01*
X422486Y398892D01*
X421639D01*
X422486D01*
X423332Y398046D01*
Y397199D01*
X422486Y396353D01*
X420793D01*
X419946Y397199D01*
X561762Y303641D02*
Y298563D01*
X559223D01*
X558376Y299409D01*
Y301102D01*
X559223Y301949D01*
X561762D01*
X560069D02*
X558376Y303641D01*
X553298Y298563D02*
X556684D01*
Y301102D01*
X554991Y300256D01*
X554144D01*
X553298Y301102D01*
Y302795D01*
X554144Y303641D01*
X555837D01*
X556684Y302795D01*
X403013Y367876D02*
X403859Y368723D01*
Y370415D01*
X403013Y371262D01*
X399627D01*
X398781Y370415D01*
Y368723D01*
X399627Y367876D01*
X403859Y362798D02*
X403013Y364491D01*
X401320Y366184D01*
X399627D01*
X398781Y365337D01*
Y363644D01*
X399627Y362798D01*
X400474D01*
X401320Y363644D01*
Y366184D01*
X502921Y392852D02*
X507999D01*
Y390313D01*
X507153Y389466D01*
X505460D01*
X504614Y390313D01*
Y392852D01*
Y391159D02*
X502921Y389466D01*
X507153Y387774D02*
X507999Y386927D01*
Y385234D01*
X507153Y384388D01*
X506306D01*
X505460Y385234D01*
X504614Y384388D01*
X503767D01*
X502921Y385234D01*
Y386927D01*
X503767Y387774D01*
X504614D01*
X505460Y386927D01*
X506306Y387774D01*
X507153D01*
X505460Y386927D02*
Y385234D01*
X315810Y386079D02*
X312425D01*
Y381001D01*
X315810D01*
X312425Y383540D02*
X314117D01*
X320888Y385233D02*
X320042Y386079D01*
X318349D01*
X317503Y385233D01*
Y381847D01*
X318349Y381001D01*
X320042D01*
X320888Y381847D01*
X325967Y385233D02*
X325120Y386079D01*
X323428D01*
X322581Y385233D01*
Y381847D01*
X323428Y381001D01*
X325120D01*
X325967Y381847D01*
Y383540D01*
X324274D01*
X332738Y386079D02*
X334431D01*
X333584D01*
Y381001D01*
X332738D01*
X334431D01*
X336970D02*
Y386079D01*
X340355Y381001D01*
Y386079D01*
X436991Y385658D02*
X431913D01*
Y388197D01*
X432759Y389044D01*
X434452D01*
X435299Y388197D01*
Y385658D01*
Y387351D02*
X436991Y389044D01*
X431913Y394122D02*
X432759Y392429D01*
X434452Y390736D01*
X436145D01*
X436991Y391583D01*
Y393276D01*
X436145Y394122D01*
X435299D01*
X434452Y393276D01*
Y390736D01*
X439844Y355599D02*
Y351367D01*
X440691Y350521D01*
X442384D01*
X443230Y351367D01*
Y355599D01*
X444923Y350521D02*
X446616D01*
X445769D01*
Y355599D01*
X444923Y354753D01*
X419947Y275168D02*
X419101Y274321D01*
Y272628D01*
X419947Y271782D01*
X423333D01*
X424179Y272628D01*
Y274321D01*
X423333Y275168D01*
X424179Y276860D02*
Y278553D01*
Y277707D01*
X419101D01*
X419947Y276860D01*
Y281092D02*
X419101Y281939D01*
Y283632D01*
X419947Y284478D01*
X423333D01*
X424179Y283632D01*
Y281939D01*
X423333Y281092D01*
X419947D01*
M02*
