G04*
G04 #@! TF.GenerationSoftware,Altium Limited,Altium Designer,24.3.1 (35)*
G04*
G04 Layer_Color=65535*
%FSLAX44Y44*%
%MOMM*%
G71*
G04*
G04 #@! TF.SameCoordinates,A55C384A-10D3-4AF3-AD7F-F2B73029A162*
G04*
G04*
G04 #@! TF.FilePolarity,Positive*
G04*
G01*
G75*
%ADD10C,0.2500*%
%ADD11C,0.2000*%
%ADD12C,0.1270*%
D10*
X326870Y388760D02*
G03*
X326870Y388760I-1250J0D01*
G01*
X598920Y348240D02*
G03*
X598920Y348240I-1250J0D01*
G01*
X593070Y343820D02*
G03*
X593070Y343820I-1250J0D01*
G01*
X428849Y340360D02*
G03*
X428849Y340360I-1250J0D01*
G01*
X426521Y425860D02*
G03*
X426521Y425860I-1250J0D01*
G01*
D11*
X348620Y284510D02*
Y383510D01*
X291120Y284510D02*
X348620D01*
X291120D02*
Y383510D01*
X348620D01*
X574670Y353490D02*
X632170D01*
Y452490D01*
X574670D02*
X632170D01*
X574670Y353490D02*
Y452490D01*
X578370Y285520D02*
Y339320D01*
X605270D01*
Y285520D02*
Y339320D01*
X578370Y285520D02*
X605270D01*
X459840Y296810D02*
Y345810D01*
Y296810D02*
X477420D01*
Y345810D01*
X459840D02*
X477420D01*
X382240Y418610D02*
X410240D01*
X382240Y452610D02*
X410240D01*
X410810Y304300D02*
Y305300D01*
X422310Y304300D02*
Y305300D01*
Y337320D02*
Y338320D01*
X410810Y337320D02*
Y338320D01*
D12*
X295913Y393699D02*
X295067Y394546D01*
X293374D01*
X292528Y393699D01*
Y392853D01*
X293374Y392006D01*
X295067D01*
X295913Y391160D01*
Y390314D01*
X295067Y389467D01*
X293374D01*
X292528Y390314D01*
X297606Y389467D02*
X299299D01*
X298452D01*
Y392853D01*
X297606D01*
X303531Y387774D02*
X304377D01*
X305224Y388621D01*
Y392853D01*
X302684D01*
X301838Y392006D01*
Y390314D01*
X302684Y389467D01*
X305224D01*
X311995Y394546D02*
X313687D01*
X312841D01*
Y389467D01*
X311995D01*
X313687D01*
X316227D02*
Y392853D01*
X318766D01*
X319612Y392006D01*
Y389467D01*
X623991Y350519D02*
Y345441D01*
X621452D01*
X620606Y346287D01*
Y347980D01*
X621452Y348826D01*
X623991D01*
X618913Y345441D02*
Y350519D01*
X617220Y348826D01*
X615527Y350519D01*
Y345441D01*
X613834Y350519D02*
Y345441D01*
X611295D01*
X610449Y346287D01*
Y347980D01*
X611295Y348826D01*
X613834D01*
X612142D02*
X610449Y350519D01*
X614679Y328082D02*
Y329775D01*
X613833Y330621D01*
X610447D01*
X609601Y329775D01*
Y328082D01*
X610447Y327236D01*
X613833D01*
X614679Y328082D01*
Y325543D02*
X610447D01*
X609601Y324696D01*
Y323004D01*
X610447Y322157D01*
X614679D01*
Y320464D02*
Y317079D01*
Y318772D01*
X609601D01*
X357294Y443653D02*
X356448Y444499D01*
X354755D01*
X353909Y443653D01*
Y440267D01*
X354755Y439421D01*
X356448D01*
X357294Y440267D01*
X358987Y439421D02*
X360680D01*
X359833D01*
Y444499D01*
X358987Y443653D01*
X363219Y439421D02*
X364912D01*
X364065D01*
Y444499D01*
X363219Y443653D01*
X549063Y364066D02*
X549909Y364913D01*
Y366605D01*
X549063Y367452D01*
X545677D01*
X544831Y366605D01*
Y364913D01*
X545677Y364066D01*
X549909Y362374D02*
Y358988D01*
X549063D01*
X545677Y362374D01*
X544831D01*
X367803Y455319D02*
Y451087D01*
X368650Y450241D01*
X370342D01*
X371189Y451087D01*
Y455319D01*
X376267Y450241D02*
X372882D01*
X376267Y453626D01*
Y454473D01*
X375421Y455319D01*
X373728D01*
X372882Y454473D01*
X392854Y341705D02*
X392007Y342551D01*
X390314D01*
X389468Y341705D01*
Y338319D01*
X390314Y337473D01*
X392007D01*
X392854Y338319D01*
X394546Y341705D02*
X395393Y342551D01*
X397086D01*
X397932Y341705D01*
Y340858D01*
X397086Y340012D01*
X396239D01*
X397086D01*
X397932Y339165D01*
Y338319D01*
X397086Y337473D01*
X395393D01*
X394546Y338319D01*
X415714Y357293D02*
X414867Y358139D01*
X413175D01*
X412328Y357293D01*
Y353907D01*
X413175Y353061D01*
X414867D01*
X415714Y353907D01*
X419946Y353061D02*
Y358139D01*
X417406Y355600D01*
X420792D01*
X441536Y409787D02*
X442383Y408941D01*
X444076D01*
X444922Y409787D01*
Y413173D01*
X444076Y414019D01*
X442383D01*
X441536Y413173D01*
X439844D02*
X438997Y414019D01*
X437304D01*
X436458Y413173D01*
Y409787D01*
X437304Y408941D01*
X438997D01*
X439844Y409787D01*
Y410634D01*
X438997Y411480D01*
X436458D01*
X532976Y375497D02*
X533823Y374651D01*
X535516D01*
X536362Y375497D01*
Y378883D01*
X535516Y379729D01*
X533823D01*
X532976Y378883D01*
X527898Y379729D02*
X531284D01*
X527898Y376344D01*
Y375497D01*
X528744Y374651D01*
X530437D01*
X531284Y375497D01*
X557106Y392007D02*
X557953Y391161D01*
X559646D01*
X560492Y392007D01*
Y395393D01*
X559646Y396239D01*
X557953D01*
X557106Y395393D01*
X552028Y391161D02*
X555414D01*
Y393700D01*
X553721Y392854D01*
X552874D01*
X552028Y393700D01*
Y395393D01*
X552874Y396239D01*
X554567D01*
X555414Y395393D01*
X410210Y285327D02*
X411056Y284481D01*
X412749D01*
X413596Y285327D01*
Y288713D01*
X412749Y289559D01*
X411056D01*
X410210Y288713D01*
X408517Y289559D02*
X406824D01*
X407671D01*
Y284481D01*
X408517Y285327D01*
X369148Y346711D02*
Y351789D01*
X371687D01*
X372534Y350943D01*
Y349250D01*
X371687Y348404D01*
X369148D01*
X370841D02*
X372534Y346711D01*
X377612D02*
X374226D01*
X377612Y350096D01*
Y350943D01*
X376766Y351789D01*
X375073D01*
X374226Y350943D01*
X378036Y295909D02*
Y290831D01*
X375496D01*
X374650Y291677D01*
Y293370D01*
X375496Y294216D01*
X378036D01*
X376343D02*
X374650Y295909D01*
X372957D02*
X371264D01*
X372111D01*
Y290831D01*
X372957Y291677D01*
X487681Y367452D02*
X492759D01*
Y364913D01*
X491913Y364066D01*
X490220D01*
X489374Y364913D01*
Y367452D01*
Y365759D02*
X487681Y364066D01*
X492759Y362374D02*
Y358988D01*
X491913D01*
X488527Y362374D01*
X487681D01*
X527763Y298553D02*
X528610Y297706D01*
X530302D01*
X531149Y298553D01*
Y301938D01*
X530302Y302785D01*
X528610D01*
X527763Y301938D01*
X526071Y298553D02*
X525224Y297706D01*
X523531D01*
X522685Y298553D01*
Y299399D01*
X523531Y300245D01*
X522685Y301092D01*
Y301938D01*
X523531Y302785D01*
X525224D01*
X526071Y301938D01*
Y301092D01*
X525224Y300245D01*
X526071Y299399D01*
Y298553D01*
X525224Y300245D02*
X523531D01*
X341629Y388198D02*
X336551D01*
Y390737D01*
X337397Y391584D01*
X339090D01*
X339936Y390737D01*
Y388198D01*
Y389891D02*
X341629Y391584D01*
Y395816D02*
X336551D01*
X339090Y393276D01*
Y396662D01*
X414868Y396353D02*
Y401431D01*
X417407D01*
X418254Y400585D01*
Y398892D01*
X417407Y398046D01*
X414868D01*
X416561D02*
X418254Y396353D01*
X419946Y400585D02*
X420793Y401431D01*
X422486D01*
X423332Y400585D01*
Y399739D01*
X422486Y398892D01*
X421639D01*
X422486D01*
X423332Y398046D01*
Y397199D01*
X422486Y396353D01*
X420793D01*
X419946Y397199D01*
X561762Y303641D02*
Y298563D01*
X559223D01*
X558376Y299409D01*
Y301102D01*
X559223Y301949D01*
X561762D01*
X560069D02*
X558376Y303641D01*
X553298Y298563D02*
X556684D01*
Y301102D01*
X554991Y300256D01*
X554144D01*
X553298Y301102D01*
Y302795D01*
X554144Y303641D01*
X555837D01*
X556684Y302795D01*
X403013Y367876D02*
X403859Y368723D01*
Y370415D01*
X403013Y371262D01*
X399627D01*
X398781Y370415D01*
Y368723D01*
X399627Y367876D01*
X403859Y362798D02*
X403013Y364491D01*
X401320Y366184D01*
X399627D01*
X398781Y365337D01*
Y363644D01*
X399627Y362798D01*
X400474D01*
X401320Y363644D01*
Y366184D01*
X502921Y392852D02*
X507999D01*
Y390313D01*
X507153Y389466D01*
X505460D01*
X504614Y390313D01*
Y392852D01*
Y391159D02*
X502921Y389466D01*
X507153Y387774D02*
X507999Y386927D01*
Y385234D01*
X507153Y384388D01*
X506306D01*
X505460Y385234D01*
X504614Y384388D01*
X503767D01*
X502921Y385234D01*
Y386927D01*
X503767Y387774D01*
X504614D01*
X505460Y386927D01*
X506306Y387774D01*
X507153D01*
X505460Y386927D02*
Y385234D01*
X436991Y385658D02*
X431913D01*
Y388197D01*
X432759Y389044D01*
X434452D01*
X435299Y388197D01*
Y385658D01*
Y387351D02*
X436991Y389044D01*
X431913Y394122D02*
X432759Y392429D01*
X434452Y390736D01*
X436145D01*
X436991Y391583D01*
Y393276D01*
X436145Y394122D01*
X435299D01*
X434452Y393276D01*
Y390736D01*
X439844Y355599D02*
Y351367D01*
X440691Y350521D01*
X442384D01*
X443230Y351367D01*
Y355599D01*
X444923Y350521D02*
X446616D01*
X445769D01*
Y355599D01*
X444923Y354753D01*
X419947Y275168D02*
X419101Y274321D01*
Y272628D01*
X419947Y271782D01*
X423333D01*
X424179Y272628D01*
Y274321D01*
X423333Y275168D01*
X424179Y276860D02*
Y278553D01*
Y277707D01*
X419101D01*
X419947Y276860D01*
Y281092D02*
X419101Y281939D01*
Y283632D01*
X419947Y284478D01*
X423333D01*
X424179Y283632D01*
Y281939D01*
X423333Y281092D01*
X419947D01*
M02*
