G04*
G04 #@! TF.GenerationSoftware,Altium Limited,Altium Designer,24.3.1 (35)*
G04*
G04 Layer_Physical_Order=1*
G04 Layer_Color=255*
%FSLAX44Y44*%
%MOMM*%
G71*
G04*
G04 #@! TF.SameCoordinates,A55C384A-10D3-4AF3-AD7F-F2B73029A162*
G04*
G04*
G04 #@! TF.FilePolarity,Positive*
G04*
G01*
G75*
%ADD13R,1.2621X1.0046*%
%ADD14R,1.5562X1.4546*%
%ADD15R,1.0046X1.2621*%
%ADD16R,1.4546X1.5562*%
G04:AMPARAMS|DCode=17|XSize=1.8741mm|YSize=0.5421mm|CornerRadius=0.2711mm|HoleSize=0mm|Usage=FLASHONLY|Rotation=0.000|XOffset=0mm|YOffset=0mm|HoleType=Round|Shape=RoundedRectangle|*
%AMROUNDEDRECTD17*
21,1,1.8741,0.0000,0,0,0.0*
21,1,1.3319,0.5421,0,0,0.0*
1,1,0.5421,0.6660,0.0000*
1,1,0.5421,-0.6660,0.0000*
1,1,0.5421,-0.6660,0.0000*
1,1,0.5421,0.6660,0.0000*
%
%ADD17ROUNDEDRECTD17*%
%ADD18R,1.8741X0.5421*%
%ADD19R,1.8000X1.2500*%
G04:AMPARAMS|DCode=20|XSize=1.8052mm|YSize=0.6121mm|CornerRadius=0.3061mm|HoleSize=0mm|Usage=FLASHONLY|Rotation=180.000|XOffset=0mm|YOffset=0mm|HoleType=Round|Shape=RoundedRectangle|*
%AMROUNDEDRECTD20*
21,1,1.8052,0.0000,0,0,180.0*
21,1,1.1931,0.6121,0,0,180.0*
1,1,0.6121,-0.5966,0.0000*
1,1,0.6121,0.5966,0.0000*
1,1,0.6121,0.5966,0.0000*
1,1,0.6121,-0.5966,0.0000*
%
%ADD20ROUNDEDRECTD20*%
%ADD21R,1.8052X0.6121*%
%ADD22R,1.2621X0.9578*%
%ADD23R,1.3500X0.9500*%
%ADD26R,1.4000X1.4000*%
%ADD27C,1.4000*%
%ADD33C,0.7620*%
%ADD34C,0.5080*%
%ADD35C,1.0160*%
G04:AMPARAMS|DCode=36|XSize=1.6mm|YSize=1.6mm|CornerRadius=0.4mm|HoleSize=0mm|Usage=FLASHONLY|Rotation=270.000|XOffset=0mm|YOffset=0mm|HoleType=Round|Shape=RoundedRectangle|*
%AMROUNDEDRECTD36*
21,1,1.6000,0.8000,0,0,270.0*
21,1,0.8000,1.6000,0,0,270.0*
1,1,0.8000,-0.4000,-0.4000*
1,1,0.8000,-0.4000,0.4000*
1,1,0.8000,0.4000,0.4000*
1,1,0.8000,0.4000,-0.4000*
%
%ADD36ROUNDEDRECTD36*%
%ADD37C,1.6000*%
%ADD38C,3.0480*%
%ADD39C,1.2700*%
%ADD40C,0.6000*%
D13*
X557530Y328930D02*
D03*
Y313914D02*
D03*
X417830Y385968D02*
D03*
Y370952D02*
D03*
D14*
X359410Y429628D02*
D03*
Y411112D02*
D03*
X532130Y389522D02*
D03*
Y408038D02*
D03*
X558800Y424548D02*
D03*
Y406032D02*
D03*
X440690Y425082D02*
D03*
Y443598D02*
D03*
X525780Y314592D02*
D03*
Y333108D02*
D03*
D15*
X365648Y392430D02*
D03*
X350632D02*
D03*
X478902Y388620D02*
D03*
X493918D02*
D03*
X461122Y363220D02*
D03*
X476138D02*
D03*
X445994Y388620D02*
D03*
X461010D02*
D03*
X359522Y332740D02*
D03*
X374538D02*
D03*
X359522Y309880D02*
D03*
X374538D02*
D03*
D16*
X370472Y367030D02*
D03*
X388988D02*
D03*
D17*
X491791Y340360D02*
D03*
Y327660D02*
D03*
Y314960D02*
D03*
Y302260D02*
D03*
X445469D02*
D03*
Y314960D02*
D03*
Y327660D02*
D03*
D18*
Y340360D02*
D03*
D19*
X533700Y363220D02*
D03*
X507700D02*
D03*
X462580Y278130D02*
D03*
X436580D02*
D03*
D20*
X384735Y426110D02*
D03*
Y445110D02*
D03*
X407745D02*
D03*
Y435610D02*
D03*
D21*
Y426110D02*
D03*
D22*
X394970Y314038D02*
D03*
Y328582D02*
D03*
D23*
X416560Y296800D02*
D03*
Y312800D02*
D03*
Y345820D02*
D03*
Y329820D02*
D03*
D26*
X325120Y359010D02*
D03*
X598170Y377990D02*
D03*
D27*
X325120Y334010D02*
D03*
Y309010D02*
D03*
X598170Y427990D02*
D03*
Y402990D02*
D03*
D33*
X438268Y278130D02*
X440708Y275690D01*
Y266084D02*
X445172Y261620D01*
X436880Y278130D02*
X438268D01*
X440708Y266084D02*
Y275690D01*
X445172Y261620D02*
X575310D01*
X621030Y307340D01*
Y405130D01*
X598170Y427990D02*
X621030Y405130D01*
X559102Y300688D02*
X589218D01*
X433070Y280570D02*
Y297180D01*
X438150Y302260D01*
X445469D01*
X401320Y294640D02*
X402695D01*
X414350Y295860D02*
X415480Y296990D01*
X403915Y295860D02*
X414350D01*
X402695Y294640D02*
X403915Y295860D01*
X401320Y346710D02*
X401765Y346265D01*
X414845D01*
X415620Y345490D01*
X506625Y302260D02*
X507895Y300990D01*
X491791Y302260D02*
X506625D01*
X507895Y300990D02*
X509270D01*
X509572Y300688D01*
X502266Y327660D02*
X506730Y332124D01*
Y360780D02*
X509170Y363220D01*
X491791Y327660D02*
X502266D01*
X506730Y332124D02*
Y360780D01*
X509170Y363220D02*
X510450D01*
X512890Y365660D01*
X509572Y300688D02*
X557530D01*
X559102D02*
Y312701D01*
X557530Y300990D02*
X557832Y300688D01*
X559102D01*
X532130Y407219D02*
X554539D01*
X598170Y427990D02*
X598170D01*
X562000Y427748D02*
X598000D01*
X562242Y402590D02*
X596844D01*
X558800Y406032D02*
X562242Y402590D01*
X568473Y378460D02*
X599101D01*
X557043Y389890D02*
X568473Y378460D01*
X522054Y411501D02*
X528159D01*
X516890Y415290D02*
X518265D01*
X528159Y411501D02*
X531622Y408038D01*
X518265Y415290D02*
X522054Y411501D01*
X557530Y313914D02*
X557889D01*
X559102Y312701D01*
X531622Y408038D02*
X532130D01*
X556511Y426836D02*
X558800Y424548D01*
X445076Y426836D02*
X556511D01*
X558800Y424548D02*
X562000Y427748D01*
X409356Y410210D02*
X505460D01*
X388620D02*
Y425361D01*
X461010Y388620D02*
X478902D01*
X505460Y410210D02*
X525021Y390649D01*
X525021D01*
X512890Y373745D02*
X525204Y386059D01*
X528667D02*
X532130Y389522D01*
X525204Y386059D02*
X528667D01*
X512890Y365660D02*
Y373745D01*
X532130Y389890D02*
X557043D01*
X472375Y302195D02*
X491725D01*
X462580Y280670D02*
Y292400D01*
X472375Y302195D01*
X554539Y407219D02*
X556260Y405498D01*
D34*
X529958Y328930D02*
X557530D01*
X525780Y333108D02*
X529958Y328930D01*
X589280D02*
X593090Y325120D01*
X557530Y328930D02*
X589280D01*
X358652Y309010D02*
X359522Y309880D01*
X325120Y309010D02*
X358652D01*
X358252Y334010D02*
X359522Y332740D01*
X325120Y334010D02*
X358252D01*
X393352Y330200D02*
X394970Y328582D01*
X374538Y332683D02*
X377021Y330200D01*
X374538Y332683D02*
Y332740D01*
X377021Y330200D02*
X393352D01*
X374538Y309937D02*
X377021Y312420D01*
X394622D01*
X397162Y314960D01*
X374538Y309880D02*
Y309937D01*
X397162Y314960D02*
X417699D01*
X417765Y314895D01*
X417450Y327660D02*
X445469D01*
X416560Y328550D02*
X417450Y327660D01*
X394970D02*
X412020D01*
X407745Y445110D02*
X407944Y444911D01*
X414827Y444730D02*
X440690D01*
X456381Y442779D02*
X457200Y441960D01*
X441509Y442779D02*
X456381D01*
X414646Y444911D02*
X414827Y444730D01*
X440690Y443598D02*
X441509Y442779D01*
X407944Y444911D02*
X414646D01*
X544654Y354506D02*
X544830Y354330D01*
X533700Y363220D02*
X536450D01*
X544654Y354506D02*
Y355016D01*
X536450Y363220D02*
X544654Y355016D01*
X325120Y356870D02*
X360820D01*
X350632Y392430D02*
X353115Y389947D01*
Y387163D02*
Y389947D01*
Y387163D02*
X360500Y379778D01*
X384858D01*
X350632Y392430D02*
Y393717D01*
X414964Y435093D02*
X418138D01*
X438299Y427473D02*
X440690Y425082D01*
X408029Y435411D02*
X414646D01*
X442444Y426836D02*
X445076D01*
X440690Y425082D02*
X442444Y426836D01*
X418138Y435093D02*
X425757Y427473D01*
X414646Y435411D02*
X414964Y435093D01*
X425757Y427473D02*
X438299D01*
X401779Y426110D02*
X407745D01*
X398780Y403860D02*
Y423111D01*
X390020Y395100D02*
X398780Y403860D01*
Y423111D02*
X401779Y426110D01*
X360599Y412301D02*
X374004D01*
X359410Y411112D02*
X360599Y412301D01*
X374004D02*
X374180Y412477D01*
X368131Y395100D02*
X390020D01*
X367030Y392430D02*
Y393999D01*
X368131Y395100D01*
X342900Y399752D02*
Y436880D01*
Y399752D02*
X346452Y396201D01*
X342900Y436880D02*
X351130Y445110D01*
X346452Y396201D02*
X348149D01*
X384858Y379778D02*
X388565Y383485D01*
X416634D01*
X432652Y399503D01*
X392798Y370840D02*
X419100D01*
X388988Y367030D02*
X392798Y370840D01*
X458527Y391103D02*
Y396527D01*
X455551Y399503D02*
X458527Y396527D01*
Y391103D02*
X461010Y388620D01*
X432652Y399503D02*
X455551D01*
X368131Y388659D02*
X370801D01*
X375744Y387526D02*
X375920Y387350D01*
X371934Y387526D02*
X375744D01*
X370801Y388659D02*
X371934Y387526D01*
X365648Y392430D02*
X367030D01*
Y389760D02*
X368131Y388659D01*
X367030Y389760D02*
Y392430D01*
X368300Y368300D02*
X370840Y370840D01*
X369570Y365620D02*
Y367030D01*
X351130Y445110D02*
X384735D01*
X355968Y426720D02*
X379866D01*
X348149Y396201D02*
X350632Y393717D01*
X355600Y368300D02*
X368300D01*
X360820Y356870D02*
X369570Y365620D01*
X491791Y314960D02*
X524904D01*
X492705Y387295D02*
X494030Y388620D01*
X476138Y364507D02*
X492705Y381074D01*
Y387295D01*
X476138Y363220D02*
Y364507D01*
X445770Y388620D02*
X447208Y387182D01*
Y378422D02*
X461122Y364507D01*
Y363220D02*
Y364507D01*
X447208Y378422D02*
Y387182D01*
X477351Y350339D02*
X487330Y340360D01*
X477351Y350339D02*
Y362119D01*
X487330Y340360D02*
X491791D01*
X445469D02*
X449930D01*
X459909Y350339D01*
Y362119D01*
X412020Y327660D02*
X414290Y329930D01*
X443165Y314895D02*
X443230Y314960D01*
X417765Y314895D02*
X443165D01*
X443230Y314960D02*
X445469D01*
D35*
X557530Y328930D02*
X557587Y328873D01*
D36*
X591820Y325120D02*
D03*
D37*
Y299720D02*
D03*
D38*
X307340Y449580D02*
D03*
X556260Y450850D02*
D03*
X615950Y270510D02*
D03*
X364490D02*
D03*
D39*
X401320Y294640D02*
D03*
Y346710D02*
D03*
X546100Y351790D02*
D03*
X516890Y415290D02*
D03*
X457200Y441960D02*
D03*
X509270Y300990D02*
D03*
D40*
X409356Y410210D02*
D03*
X388620D02*
D03*
X374180Y412477D02*
D03*
X375920Y387350D02*
D03*
X355600Y368300D02*
D03*
M02*
