G04*
G04 #@! TF.GenerationSoftware,Altium Limited,Altium Designer,24.3.1 (35)*
G04*
G04 Layer_Physical_Order=2*
G04 Layer_Color=16711680*
%FSLAX44Y44*%
%MOMM*%
G71*
G04*
G04 #@! TF.SameCoordinates,A55C384A-10D3-4AF3-AD7F-F2B73029A162*
G04*
G04*
G04 #@! TF.FilePolarity,Positive*
G04*
G01*
G75*
%ADD26R,1.4000X1.4000*%
%ADD27C,1.4000*%
%ADD33C,0.7620*%
%ADD34C,0.5080*%
G04:AMPARAMS|DCode=36|XSize=1.6mm|YSize=1.6mm|CornerRadius=0.4mm|HoleSize=0mm|Usage=FLASHONLY|Rotation=270.000|XOffset=0mm|YOffset=0mm|HoleType=Round|Shape=RoundedRectangle|*
%AMROUNDEDRECTD36*
21,1,1.6000,0.8000,0,0,270.0*
21,1,0.8000,1.6000,0,0,270.0*
1,1,0.8000,-0.4000,-0.4000*
1,1,0.8000,-0.4000,0.4000*
1,1,0.8000,0.4000,0.4000*
1,1,0.8000,0.4000,-0.4000*
%
%ADD36ROUNDEDRECTD36*%
%ADD37C,1.6000*%
%ADD38C,3.0480*%
%ADD39C,1.2700*%
%ADD40C,0.6000*%
G36*
X636270Y252730D02*
X287020D01*
Y466090D01*
X636270D01*
Y252730D01*
D02*
G37*
%LPC*%
G36*
X599426Y437530D02*
X596914D01*
X594488Y436880D01*
X592312Y435624D01*
X590536Y433848D01*
X589280Y431672D01*
X588630Y429246D01*
Y426734D01*
X589280Y424308D01*
X590536Y422132D01*
X592312Y420356D01*
X594488Y419100D01*
X596914Y418450D01*
X599426D01*
X601852Y419100D01*
X604028Y420356D01*
X605804Y422132D01*
X607060Y424308D01*
X607710Y426734D01*
Y429246D01*
X607060Y431672D01*
X605804Y433848D01*
X604028Y435624D01*
X601852Y436880D01*
X599426Y437530D01*
D02*
G37*
G36*
X409356Y416684D02*
X388620D01*
X386142Y416192D01*
X384042Y414788D01*
X382638Y412688D01*
X382146Y410210D01*
X382638Y407732D01*
X384042Y405632D01*
X386142Y404228D01*
X388620Y403736D01*
X409356D01*
X411834Y404228D01*
X413934Y405632D01*
X415338Y407732D01*
X415831Y410210D01*
X415338Y412688D01*
X413934Y414788D01*
X411834Y416192D01*
X409356Y416684D01*
D02*
G37*
G36*
X607710Y387530D02*
X588630D01*
Y368450D01*
X607710D01*
Y387530D01*
D02*
G37*
G36*
X377022Y392890D02*
X374818D01*
X372782Y392047D01*
X372745Y392010D01*
X372492Y391959D01*
X370812Y390836D01*
X353332Y373357D01*
X352462Y372997D01*
X350903Y371438D01*
X350060Y369402D01*
Y367198D01*
X350903Y365162D01*
X352462Y363603D01*
X354498Y362760D01*
X356702D01*
X358738Y363603D01*
X360297Y365162D01*
X360657Y366032D01*
X376435Y381810D01*
X377022D01*
X379058Y382653D01*
X380617Y384212D01*
X381460Y386248D01*
Y388452D01*
X380617Y390488D01*
X379058Y392047D01*
X377022Y392890D01*
D02*
G37*
G36*
X334660Y368550D02*
X315580D01*
Y349470D01*
X334660D01*
Y368550D01*
D02*
G37*
G36*
X326376Y343550D02*
X323864D01*
X321438Y342900D01*
X319262Y341644D01*
X317486Y339868D01*
X316230Y337692D01*
X315580Y335266D01*
Y332754D01*
X316230Y330328D01*
X317486Y328152D01*
X319262Y326376D01*
X321438Y325120D01*
X323864Y324470D01*
X326376D01*
X328802Y325120D01*
X330978Y326376D01*
X332754Y328152D01*
X334010Y330328D01*
X334660Y332754D01*
Y335266D01*
X334010Y337692D01*
X332754Y339868D01*
X330978Y341644D01*
X328802Y342900D01*
X326376Y343550D01*
D02*
G37*
G36*
X595820Y335716D02*
X587820D01*
X586113Y335492D01*
X584522Y334833D01*
X583156Y333784D01*
X582107Y332418D01*
X581448Y330827D01*
X581224Y329120D01*
Y321120D01*
X581448Y319413D01*
X582107Y317822D01*
X583156Y316456D01*
X584522Y315407D01*
X586113Y314748D01*
X587820Y314524D01*
X595820D01*
X597527Y314748D01*
X599118Y315407D01*
X600484Y316456D01*
X601533Y317822D01*
X602192Y319413D01*
X602416Y321120D01*
Y329120D01*
X602192Y330827D01*
X601533Y332418D01*
X600484Y333784D01*
X599118Y334833D01*
X597527Y335492D01*
X595820Y335716D01*
D02*
G37*
G36*
X326376Y318550D02*
X323864D01*
X321438Y317900D01*
X319262Y316644D01*
X317486Y314868D01*
X316230Y312692D01*
X315580Y310266D01*
Y307754D01*
X316230Y305328D01*
X317486Y303152D01*
X319262Y301376D01*
X321438Y300120D01*
X323864Y299470D01*
X326376D01*
X328802Y300120D01*
X330978Y301376D01*
X332754Y303152D01*
X334010Y305328D01*
X334660Y307754D01*
Y310266D01*
X334010Y312692D01*
X332754Y314868D01*
X330978Y316644D01*
X328802Y317900D01*
X326376Y318550D01*
D02*
G37*
%LPD*%
D26*
X325120Y359010D02*
D03*
X598170Y377990D02*
D03*
D27*
X325120Y334010D02*
D03*
Y309010D02*
D03*
X598170Y427990D02*
D03*
Y402990D02*
D03*
D33*
X388620Y410210D02*
X409356D01*
D34*
X355776Y368476D02*
X374474Y387174D01*
X375744D01*
X375920Y387350D01*
D36*
X591820Y325120D02*
D03*
D37*
Y299720D02*
D03*
D38*
X307340Y449580D02*
D03*
X556260Y450850D02*
D03*
X615950Y270510D02*
D03*
X364490D02*
D03*
D39*
X401320Y294640D02*
D03*
Y346710D02*
D03*
X546100Y351790D02*
D03*
X516890Y415290D02*
D03*
X457200Y441960D02*
D03*
X509270Y300990D02*
D03*
D40*
X409356Y410210D02*
D03*
X388620D02*
D03*
X374180Y412477D02*
D03*
X375920Y387350D02*
D03*
X355600Y368300D02*
D03*
M02*
