G04*
G04 #@! TF.GenerationSoftware,Altium Limited,Altium Designer,24.3.1 (35)*
G04*
G04 Layer_Color=16711935*
%FSLAX44Y44*%
%MOMM*%
G71*
G04*
G04 #@! TF.SameCoordinates,A55C384A-10D3-4AF3-AD7F-F2B73029A162*
G04*
G04*
G04 #@! TF.FilePolarity,Positive*
G04*
G01*
G75*
%ADD11C,0.2000*%
G36*
X321996Y333213D02*
X321989D01*
X321975D01*
X321947Y333206D01*
X321912Y333199D01*
X321871Y333192D01*
X321829Y333185D01*
X321711Y333157D01*
X321586Y333122D01*
X321455Y333081D01*
X321323Y333025D01*
X321198Y332956D01*
X321184Y332949D01*
X321149Y332914D01*
X321094Y332866D01*
X321025Y332797D01*
X320942Y332706D01*
X320865Y332595D01*
X320782Y332464D01*
X320706Y332311D01*
Y332304D01*
X320699Y332290D01*
X320692Y332270D01*
X320678Y332235D01*
X320664Y332193D01*
X320643Y332145D01*
X320630Y332089D01*
X320616Y332027D01*
X320581Y331881D01*
X320546Y331708D01*
X320525Y331527D01*
X320518Y331326D01*
Y331243D01*
X320525Y331202D01*
Y331153D01*
X320539Y331042D01*
X320553Y330910D01*
X320574Y330765D01*
X320609Y330619D01*
X320657Y330480D01*
Y330474D01*
X320664Y330467D01*
X320671Y330446D01*
X320685Y330418D01*
X320720Y330356D01*
X320761Y330272D01*
X320817Y330182D01*
X320886Y330085D01*
X320962Y330002D01*
X321052Y329926D01*
X321066Y329919D01*
X321094Y329898D01*
X321149Y329863D01*
X321219Y329829D01*
X321302Y329801D01*
X321392Y329766D01*
X321496Y329745D01*
X321600Y329739D01*
X321607D01*
X321614D01*
X321649D01*
X321711Y329745D01*
X321781Y329759D01*
X321864Y329780D01*
X321954Y329815D01*
X322044Y329856D01*
X322127Y329919D01*
X322134Y329926D01*
X322162Y329953D01*
X322203Y329995D01*
X322259Y330057D01*
X322314Y330134D01*
X322377Y330238D01*
X322439Y330356D01*
X322502Y330494D01*
X322509Y330508D01*
X322516Y330522D01*
X322523Y330550D01*
X322529Y330578D01*
X322543Y330619D01*
X322564Y330675D01*
X322578Y330730D01*
X322599Y330806D01*
X322626Y330883D01*
X322647Y330980D01*
X322675Y331084D01*
X322710Y331202D01*
X322738Y331326D01*
X322779Y331472D01*
X322814Y331632D01*
Y331638D01*
X322821Y331666D01*
X322835Y331715D01*
X322848Y331770D01*
X322869Y331847D01*
X322890Y331930D01*
X322918Y332013D01*
X322946Y332110D01*
X323008Y332318D01*
X323077Y332519D01*
X323112Y332616D01*
X323147Y332706D01*
X323181Y332790D01*
X323216Y332859D01*
Y332866D01*
X323230Y332880D01*
X323244Y332901D01*
X323257Y332935D01*
X323306Y333018D01*
X323375Y333116D01*
X323465Y333233D01*
X323563Y333344D01*
X323680Y333455D01*
X323805Y333545D01*
X323812D01*
X323819Y333552D01*
X323840Y333566D01*
X323868Y333580D01*
X323944Y333615D01*
X324041Y333656D01*
X324159Y333698D01*
X324298Y333733D01*
X324450Y333760D01*
X324610Y333767D01*
X324617D01*
X324631D01*
X324658D01*
X324693Y333760D01*
X324734D01*
X324783Y333753D01*
X324908Y333733D01*
X325047Y333698D01*
X325192Y333656D01*
X325352Y333587D01*
X325511Y333497D01*
X325518D01*
X325532Y333483D01*
X325553Y333469D01*
X325580Y333448D01*
X325657Y333379D01*
X325754Y333289D01*
X325858Y333178D01*
X325962Y333039D01*
X326066Y332880D01*
X326156Y332692D01*
Y332686D01*
X326163Y332672D01*
X326177Y332637D01*
X326191Y332602D01*
X326205Y332554D01*
X326225Y332491D01*
X326246Y332422D01*
X326267Y332346D01*
X326288Y332263D01*
X326309Y332172D01*
X326343Y331978D01*
X326371Y331756D01*
X326378Y331521D01*
Y331403D01*
X326371Y331340D01*
X326364Y331264D01*
X326357Y331188D01*
X326350Y331098D01*
X326322Y330904D01*
X326281Y330689D01*
X326218Y330474D01*
X326142Y330266D01*
Y330259D01*
X326128Y330245D01*
X326121Y330210D01*
X326101Y330175D01*
X326073Y330134D01*
X326045Y330078D01*
X325976Y329960D01*
X325879Y329822D01*
X325761Y329683D01*
X325629Y329551D01*
X325470Y329433D01*
X325463Y329426D01*
X325449Y329420D01*
X325428Y329406D01*
X325393Y329385D01*
X325352Y329364D01*
X325303Y329336D01*
X325241Y329315D01*
X325178Y329281D01*
X325033Y329225D01*
X324859Y329177D01*
X324672Y329135D01*
X324464Y329114D01*
X324402Y329926D01*
X324409D01*
X324429Y329933D01*
X324457D01*
X324499Y329940D01*
X324554Y329953D01*
X324610Y329967D01*
X324741Y330009D01*
X324887Y330064D01*
X325040Y330148D01*
X325185Y330245D01*
X325248Y330307D01*
X325310Y330377D01*
X325317Y330383D01*
X325324Y330390D01*
X325338Y330418D01*
X325359Y330446D01*
X325379Y330487D01*
X325407Y330536D01*
X325435Y330591D01*
X325470Y330654D01*
X325497Y330730D01*
X325525Y330813D01*
X325553Y330904D01*
X325574Y331001D01*
X325594Y331111D01*
X325608Y331229D01*
X325622Y331354D01*
Y331555D01*
X325615Y331611D01*
Y331673D01*
X325608Y331743D01*
X325601Y331826D01*
X325587Y331909D01*
X325553Y332096D01*
X325504Y332276D01*
X325435Y332450D01*
X325386Y332533D01*
X325338Y332602D01*
Y332609D01*
X325324Y332616D01*
X325289Y332658D01*
X325227Y332713D01*
X325144Y332776D01*
X325047Y332838D01*
X324929Y332894D01*
X324804Y332935D01*
X324734Y332942D01*
X324658Y332949D01*
X324651D01*
X324644D01*
X324603Y332942D01*
X324540Y332935D01*
X324464Y332921D01*
X324374Y332887D01*
X324277Y332845D01*
X324187Y332790D01*
X324097Y332706D01*
X324090Y332692D01*
X324076Y332679D01*
X324055Y332651D01*
X324034Y332616D01*
X324013Y332575D01*
X323986Y332519D01*
X323951Y332457D01*
X323916Y332380D01*
X323882Y332290D01*
X323847Y332186D01*
X323805Y332068D01*
X323764Y331930D01*
X323722Y331784D01*
X323674Y331618D01*
X323632Y331431D01*
Y331417D01*
X323625Y331382D01*
X323611Y331333D01*
X323590Y331264D01*
X323577Y331181D01*
X323549Y331084D01*
X323528Y330980D01*
X323493Y330869D01*
X323431Y330633D01*
X323368Y330397D01*
X323334Y330286D01*
X323299Y330189D01*
X323265Y330092D01*
X323230Y330016D01*
Y330009D01*
X323216Y329988D01*
X323202Y329960D01*
X323181Y329926D01*
X323160Y329877D01*
X323126Y329822D01*
X323050Y329704D01*
X322959Y329565D01*
X322848Y329433D01*
X322717Y329302D01*
X322647Y329246D01*
X322578Y329191D01*
X322571D01*
X322557Y329177D01*
X322536Y329163D01*
X322509Y329149D01*
X322474Y329128D01*
X322425Y329108D01*
X322314Y329052D01*
X322183Y329003D01*
X322030Y328962D01*
X321857Y328934D01*
X321670Y328920D01*
X321663D01*
X321649D01*
X321621D01*
X321586Y328927D01*
X321538D01*
X321489Y328934D01*
X321357Y328955D01*
X321212Y328990D01*
X321052Y329045D01*
X320886Y329121D01*
X320796Y329163D01*
X320713Y329218D01*
X320706D01*
X320692Y329232D01*
X320671Y329246D01*
X320636Y329274D01*
X320560Y329336D01*
X320456Y329433D01*
X320345Y329551D01*
X320227Y329697D01*
X320116Y329863D01*
X320012Y330057D01*
Y330064D01*
X319998Y330085D01*
X319991Y330113D01*
X319971Y330155D01*
X319957Y330203D01*
X319936Y330266D01*
X319908Y330335D01*
X319888Y330418D01*
X319867Y330501D01*
X319839Y330598D01*
X319804Y330806D01*
X319777Y331035D01*
X319763Y331285D01*
Y331368D01*
X319770Y331431D01*
Y331507D01*
X319777Y331590D01*
X319783Y331687D01*
X319797Y331798D01*
X319825Y332027D01*
X319867Y332270D01*
X319929Y332512D01*
X320012Y332748D01*
Y332755D01*
X320026Y332776D01*
X320040Y332803D01*
X320061Y332845D01*
X320089Y332894D01*
X320116Y332949D01*
X320200Y333081D01*
X320304Y333226D01*
X320435Y333379D01*
X320588Y333531D01*
X320768Y333663D01*
X320775Y333670D01*
X320789Y333677D01*
X320817Y333691D01*
X320858Y333712D01*
X320907Y333740D01*
X320962Y333767D01*
X321032Y333802D01*
X321108Y333830D01*
X321184Y333864D01*
X321274Y333892D01*
X321475Y333948D01*
X321690Y333989D01*
X321808Y334003D01*
X321926Y334010D01*
X321996Y333213D01*
D02*
G37*
G36*
X326267Y327076D02*
X325373D01*
Y327859D01*
X326267D01*
Y327076D01*
D02*
G37*
G36*
X324506D02*
X319867D01*
Y327859D01*
X324506D01*
Y327076D01*
D02*
G37*
G36*
X322321Y326181D02*
X322384D01*
X322446Y326174D01*
X322523Y326167D01*
X322613Y326161D01*
X322800Y326133D01*
X323001Y326091D01*
X323216Y326029D01*
X323431Y325952D01*
X323438D01*
X323459Y325939D01*
X323486Y325925D01*
X323521Y325904D01*
X323570Y325883D01*
X323625Y325848D01*
X323750Y325772D01*
X323889Y325675D01*
X324034Y325557D01*
X324173Y325412D01*
X324298Y325252D01*
X324305Y325245D01*
X324311Y325231D01*
X324325Y325204D01*
X324346Y325169D01*
X324367Y325127D01*
X324395Y325072D01*
X324422Y325016D01*
X324457Y324947D01*
X324485Y324871D01*
X324513Y324787D01*
X324561Y324607D01*
X324596Y324406D01*
X324610Y324295D01*
Y324150D01*
X324603Y324101D01*
Y324045D01*
X324589Y323976D01*
X324575Y323893D01*
X324554Y323803D01*
X324526Y323706D01*
X324492Y323602D01*
X324443Y323491D01*
X324395Y323380D01*
X324325Y323262D01*
X324249Y323151D01*
X324159Y323033D01*
X324055Y322929D01*
X323937Y322825D01*
X324506D01*
Y322104D01*
X320498D01*
X320484D01*
X320449D01*
X320394D01*
X320324D01*
X320234Y322111D01*
X320130Y322118D01*
X320019Y322125D01*
X319901Y322132D01*
X319652Y322159D01*
X319395Y322194D01*
X319277Y322222D01*
X319159Y322250D01*
X319055Y322284D01*
X318965Y322326D01*
X318958D01*
X318944Y322333D01*
X318924Y322347D01*
X318889Y322368D01*
X318806Y322423D01*
X318709Y322499D01*
X318591Y322596D01*
X318473Y322714D01*
X318355Y322860D01*
X318251Y323026D01*
Y323033D01*
X318237Y323047D01*
X318230Y323075D01*
X318209Y323109D01*
X318189Y323158D01*
X318168Y323213D01*
X318147Y323276D01*
X318119Y323352D01*
X318092Y323435D01*
X318071Y323526D01*
X318050Y323616D01*
X318029Y323720D01*
X318001Y323949D01*
X317987Y324198D01*
Y324281D01*
X317994Y324337D01*
X318001Y324406D01*
X318008Y324489D01*
X318022Y324580D01*
X318036Y324677D01*
X318078Y324892D01*
X318147Y325113D01*
X318189Y325231D01*
X318237Y325335D01*
X318300Y325446D01*
X318362Y325543D01*
X318369Y325550D01*
X318383Y325564D01*
X318404Y325592D01*
X318431Y325620D01*
X318473Y325661D01*
X318521Y325703D01*
X318577Y325744D01*
X318646Y325793D01*
X318716Y325841D01*
X318799Y325883D01*
X318896Y325925D01*
X318993Y325959D01*
X319104Y325994D01*
X319222Y326015D01*
X319347Y326029D01*
X319485D01*
X319381Y325266D01*
X319374D01*
X319367D01*
X319326Y325252D01*
X319263Y325238D01*
X319187Y325217D01*
X319097Y325183D01*
X319014Y325134D01*
X318931Y325079D01*
X318861Y325002D01*
X318854Y324989D01*
X318827Y324947D01*
X318792Y324885D01*
X318750Y324794D01*
X318709Y324677D01*
X318674Y324545D01*
X318646Y324385D01*
X318639Y324205D01*
Y324150D01*
X318646Y324115D01*
Y324066D01*
X318653Y324018D01*
X318667Y323893D01*
X318695Y323761D01*
X318736Y323623D01*
X318785Y323484D01*
X318861Y323366D01*
Y323359D01*
X318868Y323352D01*
X318903Y323317D01*
X318951Y323269D01*
X319021Y323200D01*
X319104Y323137D01*
X319208Y323068D01*
X319333Y323005D01*
X319471Y322957D01*
X319485D01*
X319499Y322950D01*
X319520D01*
X319548Y322943D01*
X319589Y322936D01*
X319631D01*
X319686Y322929D01*
X319749Y322922D01*
X319818Y322915D01*
X319901D01*
X319991Y322908D01*
X320095D01*
X320206Y322901D01*
X320331D01*
X320470D01*
X320463Y322908D01*
X320442Y322922D01*
X320415Y322957D01*
X320373Y322991D01*
X320331Y323047D01*
X320283Y323102D01*
X320227Y323179D01*
X320172Y323255D01*
X320109Y323345D01*
X320061Y323442D01*
X320005Y323546D01*
X319964Y323664D01*
X319922Y323782D01*
X319894Y323907D01*
X319874Y324045D01*
X319867Y324184D01*
Y324226D01*
X319874Y324274D01*
X319881Y324344D01*
X319888Y324420D01*
X319901Y324517D01*
X319922Y324614D01*
X319950Y324725D01*
X319991Y324843D01*
X320033Y324968D01*
X320089Y325093D01*
X320158Y325210D01*
X320234Y325335D01*
X320324Y325453D01*
X320435Y325564D01*
X320553Y325668D01*
X320560Y325675D01*
X320588Y325689D01*
X320622Y325717D01*
X320678Y325751D01*
X320740Y325786D01*
X320824Y325835D01*
X320914Y325876D01*
X321018Y325925D01*
X321136Y325973D01*
X321260Y326022D01*
X321399Y326070D01*
X321545Y326105D01*
X321697Y326140D01*
X321864Y326167D01*
X322030Y326181D01*
X322211Y326188D01*
X322217D01*
X322238D01*
X322273D01*
X322321Y326181D01*
D02*
G37*
G36*
X326267Y317340D02*
X319867D01*
Y318186D01*
X326267D01*
Y317340D01*
D02*
G37*
G36*
X324506Y315239D02*
X323840D01*
X323847Y315232D01*
X323875Y315218D01*
X323909Y315184D01*
X323958Y315142D01*
X324020Y315093D01*
X324083Y315031D01*
X324152Y314955D01*
X324228Y314865D01*
X324298Y314768D01*
X324367Y314657D01*
X324429Y314539D01*
X324492Y314407D01*
X324540Y314261D01*
X324575Y314109D01*
X324603Y313942D01*
X324610Y313769D01*
Y313700D01*
X324603Y313658D01*
Y313617D01*
X324589Y313512D01*
X324575Y313395D01*
X324547Y313263D01*
X324506Y313131D01*
X324457Y312999D01*
Y312992D01*
X324450Y312985D01*
X324429Y312944D01*
X324395Y312882D01*
X324353Y312798D01*
X324291Y312715D01*
X324228Y312625D01*
X324152Y312542D01*
X324062Y312472D01*
X324048Y312465D01*
X324020Y312445D01*
X323965Y312417D01*
X323895Y312375D01*
X323812Y312334D01*
X323715Y312299D01*
X323604Y312257D01*
X323479Y312230D01*
X323473D01*
X323438Y312223D01*
X323382Y312216D01*
X323306Y312202D01*
X323202Y312195D01*
X323140D01*
X323070Y312188D01*
X322994D01*
X322904Y312181D01*
X322814D01*
X322717D01*
X319867D01*
Y312965D01*
X322689D01*
X322696D01*
X322710D01*
X322738D01*
X322765D01*
X322807D01*
X322855Y312972D01*
X322959Y312978D01*
X323077Y312985D01*
X323195Y313006D01*
X323306Y313027D01*
X323403Y313062D01*
X323417Y313069D01*
X323445Y313083D01*
X323486Y313103D01*
X323542Y313138D01*
X323604Y313180D01*
X323667Y313235D01*
X323729Y313305D01*
X323784Y313388D01*
X323792Y313395D01*
X323805Y313429D01*
X323833Y313478D01*
X323861Y313540D01*
X323882Y313623D01*
X323909Y313714D01*
X323923Y313818D01*
X323930Y313936D01*
Y313984D01*
X323923Y314019D01*
Y314060D01*
X323916Y314116D01*
X323889Y314234D01*
X323854Y314365D01*
X323798Y314511D01*
X323715Y314657D01*
X323667Y314733D01*
X323611Y314802D01*
X323604Y314809D01*
X323597Y314816D01*
X323577Y314837D01*
X323549Y314858D01*
X323507Y314886D01*
X323465Y314913D01*
X323410Y314948D01*
X323341Y314982D01*
X323265Y315017D01*
X323174Y315052D01*
X323077Y315080D01*
X322966Y315107D01*
X322841Y315128D01*
X322710Y315149D01*
X322557Y315156D01*
X322398Y315163D01*
X319867D01*
Y315946D01*
X324506D01*
Y315239D01*
D02*
G37*
G36*
X555401Y331782D02*
X555477Y331775D01*
X555561Y331761D01*
X555658Y331747D01*
X555769Y331726D01*
X555880Y331699D01*
X556004Y331664D01*
X556129Y331622D01*
X556254Y331574D01*
X556379Y331518D01*
X556511Y331449D01*
X556636Y331373D01*
X556753Y331283D01*
X556760Y331276D01*
X556788Y331255D01*
X556823Y331220D01*
X556871Y331172D01*
X556934Y331109D01*
X556996Y331033D01*
X557072Y330943D01*
X557142Y330839D01*
X557211Y330728D01*
X557287Y330603D01*
X557350Y330464D01*
X557405Y330312D01*
X557461Y330152D01*
X557495Y329979D01*
X557523Y329799D01*
X557530Y329604D01*
Y329521D01*
X557523Y329459D01*
X557516Y329383D01*
X557502Y329299D01*
X557488Y329202D01*
X557468Y329098D01*
X557447Y328987D01*
X557412Y328869D01*
X557371Y328751D01*
X557322Y328634D01*
X557267Y328516D01*
X557204Y328398D01*
X557128Y328287D01*
X557045Y328176D01*
X557038Y328169D01*
X557024Y328155D01*
X556996Y328128D01*
X556954Y328093D01*
X556906Y328044D01*
X556851Y327996D01*
X556781Y327947D01*
X556698Y327892D01*
X556615Y327836D01*
X556518Y327781D01*
X556407Y327732D01*
X556296Y327684D01*
X556171Y327635D01*
X556039Y327601D01*
X555894Y327573D01*
X555748Y327552D01*
X555686Y328377D01*
X555692D01*
X555713Y328384D01*
X555741Y328391D01*
X555783Y328398D01*
X555831Y328405D01*
X555894Y328426D01*
X556025Y328460D01*
X556171Y328516D01*
X556324Y328592D01*
X556462Y328682D01*
X556525Y328738D01*
X556587Y328793D01*
Y328800D01*
X556601Y328807D01*
X556615Y328828D01*
X556636Y328856D01*
X556684Y328925D01*
X556733Y329022D01*
X556788Y329140D01*
X556837Y329278D01*
X556871Y329431D01*
X556878Y329514D01*
X556885Y329604D01*
Y329660D01*
X556878Y329701D01*
X556871Y329750D01*
X556864Y329805D01*
X556830Y329937D01*
X556781Y330090D01*
X556746Y330166D01*
X556705Y330249D01*
X556656Y330332D01*
X556601Y330409D01*
X556539Y330485D01*
X556462Y330561D01*
X556455Y330568D01*
X556441Y330575D01*
X556421Y330596D01*
X556386Y330624D01*
X556337Y330652D01*
X556289Y330686D01*
X556226Y330721D01*
X556157Y330762D01*
X556081Y330797D01*
X555998Y330832D01*
X555900Y330867D01*
X555803Y330894D01*
X555692Y330922D01*
X555575Y330943D01*
X555457Y330950D01*
X555325Y330957D01*
X555318D01*
X555297D01*
X555263D01*
X555214Y330950D01*
X555159Y330943D01*
X555089Y330936D01*
X555020Y330922D01*
X554937Y330908D01*
X554770Y330867D01*
X554590Y330797D01*
X554507Y330756D01*
X554423Y330700D01*
X554340Y330645D01*
X554264Y330575D01*
X554257Y330568D01*
X554250Y330561D01*
X554229Y330534D01*
X554202Y330506D01*
X554174Y330471D01*
X554139Y330423D01*
X554105Y330374D01*
X554063Y330312D01*
X554028Y330242D01*
X553994Y330173D01*
X553931Y330000D01*
X553904Y329910D01*
X553883Y329805D01*
X553876Y329701D01*
X553869Y329591D01*
Y329528D01*
X553876Y329452D01*
X553890Y329362D01*
X553910Y329251D01*
X553945Y329133D01*
X553987Y329015D01*
X554049Y328897D01*
X554056Y328883D01*
X554077Y328849D01*
X554118Y328793D01*
X554167Y328724D01*
X554236Y328655D01*
X554313Y328571D01*
X554403Y328495D01*
X554500Y328426D01*
X554396Y327691D01*
X551109Y328308D01*
Y331491D01*
X551858D01*
Y328932D01*
X553578Y328592D01*
X553571Y328599D01*
X553557Y328620D01*
X553543Y328647D01*
X553515Y328689D01*
X553487Y328745D01*
X553453Y328807D01*
X553411Y328876D01*
X553377Y328960D01*
X553342Y329043D01*
X553300Y329140D01*
X553238Y329341D01*
X553210Y329452D01*
X553189Y329563D01*
X553182Y329681D01*
X553175Y329799D01*
Y329833D01*
X553182Y329882D01*
Y329937D01*
X553196Y330007D01*
X553203Y330090D01*
X553224Y330187D01*
X553245Y330284D01*
X553279Y330395D01*
X553314Y330506D01*
X553363Y330624D01*
X553418Y330742D01*
X553487Y330859D01*
X553564Y330977D01*
X553654Y331095D01*
X553758Y331206D01*
X553765Y331213D01*
X553786Y331234D01*
X553820Y331262D01*
X553862Y331296D01*
X553917Y331345D01*
X553994Y331394D01*
X554070Y331442D01*
X554160Y331497D01*
X554264Y331553D01*
X554382Y331601D01*
X554500Y331657D01*
X554638Y331699D01*
X554777Y331733D01*
X554930Y331761D01*
X555089Y331782D01*
X555256Y331789D01*
X555263D01*
X555297D01*
X555339D01*
X555401Y331782D01*
D02*
G37*
G36*
X557426Y325992D02*
X556095Y325146D01*
X556088Y325139D01*
X556067Y325132D01*
X556039Y325111D01*
X555998Y325083D01*
X555949Y325056D01*
X555894Y325014D01*
X555769Y324931D01*
X555623Y324834D01*
X555477Y324737D01*
X555339Y324633D01*
X555214Y324535D01*
X555207D01*
X555200Y324522D01*
X555165Y324494D01*
X555110Y324452D01*
X555048Y324390D01*
X554978Y324328D01*
X554909Y324251D01*
X554840Y324175D01*
X554791Y324106D01*
X554784Y324099D01*
X554770Y324071D01*
X554749Y324036D01*
X554722Y323988D01*
X554694Y323925D01*
X554666Y323863D01*
X554638Y323794D01*
X554618Y323717D01*
Y323710D01*
X554611Y323690D01*
X554604Y323655D01*
X554597Y323606D01*
Y323537D01*
X554590Y323454D01*
X554583Y323357D01*
Y322268D01*
X557426D01*
Y321422D01*
X551026D01*
Y324397D01*
X551033Y324473D01*
Y324549D01*
X551040Y324640D01*
X551047Y324744D01*
X551067Y324952D01*
X551102Y325167D01*
X551144Y325375D01*
X551171Y325465D01*
X551199Y325555D01*
Y325562D01*
X551206Y325576D01*
X551220Y325597D01*
X551234Y325631D01*
X551275Y325714D01*
X551338Y325811D01*
X551421Y325929D01*
X551532Y326047D01*
X551657Y326165D01*
X551809Y326269D01*
X551816D01*
X551830Y326283D01*
X551851Y326297D01*
X551886Y326311D01*
X551927Y326331D01*
X551976Y326352D01*
X552031Y326380D01*
X552094Y326408D01*
X552239Y326456D01*
X552399Y326498D01*
X552579Y326526D01*
X552773Y326539D01*
X552780D01*
X552801D01*
X552842D01*
X552884Y326533D01*
X552947Y326526D01*
X553016Y326519D01*
X553092Y326505D01*
X553175Y326484D01*
X553356Y326429D01*
X553453Y326394D01*
X553550Y326352D01*
X553647Y326304D01*
X553744Y326241D01*
X553834Y326172D01*
X553924Y326096D01*
X553931Y326089D01*
X553945Y326075D01*
X553966Y326047D01*
X554001Y326012D01*
X554035Y325964D01*
X554077Y325909D01*
X554125Y325839D01*
X554174Y325756D01*
X554222Y325666D01*
X554271Y325569D01*
X554319Y325458D01*
X554368Y325333D01*
X554410Y325201D01*
X554451Y325056D01*
X554486Y324896D01*
X554514Y324730D01*
Y324737D01*
X554521Y324744D01*
X554541Y324785D01*
X554576Y324848D01*
X554618Y324924D01*
X554666Y325007D01*
X554715Y325090D01*
X554777Y325173D01*
X554833Y325243D01*
X554840Y325250D01*
X554846Y325257D01*
X554867Y325277D01*
X554895Y325305D01*
X554930Y325340D01*
X554971Y325382D01*
X555068Y325472D01*
X555193Y325576D01*
X555339Y325694D01*
X555505Y325818D01*
X555686Y325943D01*
X557426Y327053D01*
Y325992D01*
D02*
G37*
G36*
X605302Y421976D02*
X603971Y421130D01*
X603964Y421123D01*
X603943Y421116D01*
X603916Y421095D01*
X603874Y421068D01*
X603825Y421040D01*
X603770Y420998D01*
X603645Y420915D01*
X603499Y420818D01*
X603354Y420721D01*
X603215Y420617D01*
X603090Y420520D01*
X603083D01*
X603077Y420506D01*
X603042Y420478D01*
X602986Y420437D01*
X602924Y420374D01*
X602855Y420312D01*
X602785Y420235D01*
X602716Y420159D01*
X602667Y420090D01*
X602660Y420083D01*
X602647Y420055D01*
X602626Y420020D01*
X602598Y419972D01*
X602570Y419910D01*
X602543Y419847D01*
X602515Y419778D01*
X602494Y419701D01*
Y419695D01*
X602487Y419674D01*
X602480Y419639D01*
X602473Y419590D01*
Y419521D01*
X602466Y419438D01*
X602459Y419341D01*
Y418252D01*
X605302D01*
Y417406D01*
X598902D01*
Y420381D01*
X598909Y420457D01*
Y420534D01*
X598916Y420624D01*
X598923Y420728D01*
X598944Y420936D01*
X598978Y421151D01*
X599020Y421359D01*
X599048Y421449D01*
X599076Y421539D01*
Y421546D01*
X599082Y421560D01*
X599096Y421581D01*
X599110Y421615D01*
X599152Y421698D01*
X599214Y421796D01*
X599297Y421913D01*
X599408Y422031D01*
X599533Y422149D01*
X599686Y422253D01*
X599693D01*
X599706Y422267D01*
X599727Y422281D01*
X599762Y422295D01*
X599804Y422316D01*
X599852Y422336D01*
X599908Y422364D01*
X599970Y422392D01*
X600116Y422440D01*
X600275Y422482D01*
X600455Y422510D01*
X600650Y422524D01*
X600657D01*
X600677D01*
X600719D01*
X600760Y422517D01*
X600823Y422510D01*
X600892Y422503D01*
X600969Y422489D01*
X601052Y422468D01*
X601232Y422413D01*
X601329Y422378D01*
X601426Y422336D01*
X601523Y422288D01*
X601620Y422225D01*
X601711Y422156D01*
X601801Y422080D01*
X601808Y422073D01*
X601822Y422059D01*
X601842Y422031D01*
X601877Y421997D01*
X601912Y421948D01*
X601953Y421893D01*
X602002Y421823D01*
X602050Y421740D01*
X602099Y421650D01*
X602147Y421553D01*
X602196Y421442D01*
X602244Y421317D01*
X602286Y421185D01*
X602328Y421040D01*
X602362Y420880D01*
X602390Y420714D01*
Y420721D01*
X602397Y420728D01*
X602418Y420769D01*
X602453Y420832D01*
X602494Y420908D01*
X602543Y420991D01*
X602591Y421074D01*
X602654Y421158D01*
X602709Y421227D01*
X602716Y421234D01*
X602723Y421241D01*
X602744Y421262D01*
X602771Y421289D01*
X602806Y421324D01*
X602848Y421366D01*
X602945Y421456D01*
X603070Y421560D01*
X603215Y421678D01*
X603382Y421802D01*
X603562Y421927D01*
X605302Y423037D01*
Y421976D01*
D02*
G37*
G36*
Y414854D02*
Y414029D01*
X600428Y412691D01*
X600421D01*
X600400Y412684D01*
X600372Y412677D01*
X600331Y412663D01*
X600282Y412649D01*
X600227Y412635D01*
X600102Y412601D01*
X599977Y412566D01*
X599852Y412532D01*
X599797Y412518D01*
X599748Y412504D01*
X599706Y412490D01*
X599679Y412483D01*
X599686D01*
X599700Y412476D01*
X599720D01*
X599755Y412462D01*
X599790Y412455D01*
X599838Y412448D01*
X599935Y412421D01*
X600053Y412393D01*
X600185Y412358D01*
X600310Y412323D01*
X600428Y412289D01*
X605302Y410944D01*
Y410063D01*
X598902Y408378D01*
Y409252D01*
X603104Y410215D01*
X603111D01*
X603132Y410222D01*
X603167Y410229D01*
X603215Y410243D01*
X603278Y410257D01*
X603347Y410271D01*
X603423Y410292D01*
X603513Y410312D01*
X603610Y410333D01*
X603714Y410354D01*
X603929Y410396D01*
X604165Y410444D01*
X604408Y410486D01*
X604394D01*
X604366Y410500D01*
X604311Y410507D01*
X604248Y410527D01*
X604165Y410541D01*
X604075Y410562D01*
X603978Y410590D01*
X603881Y410611D01*
X603673Y410666D01*
X603576Y410687D01*
X603479Y410715D01*
X603396Y410736D01*
X603326Y410749D01*
X603271Y410763D01*
X603229Y410777D01*
X598902Y411998D01*
Y413017D01*
X602147Y413925D01*
X602161Y413932D01*
X602203Y413939D01*
X602265Y413960D01*
X602355Y413981D01*
X602459Y414008D01*
X602584Y414043D01*
X602723Y414078D01*
X602882Y414119D01*
X603049Y414161D01*
X603229Y414203D01*
X603416Y414244D01*
X603610Y414286D01*
X604006Y414362D01*
X604408Y414431D01*
X604401D01*
X604380Y414438D01*
X604346Y414445D01*
X604304Y414452D01*
X604241Y414466D01*
X604172Y414480D01*
X604096Y414501D01*
X604006Y414522D01*
X603909Y414542D01*
X603805Y414563D01*
X603687Y414591D01*
X603569Y414619D01*
X603305Y414681D01*
X603021Y414750D01*
X598902Y415756D01*
Y416609D01*
X605302Y414854D01*
D02*
G37*
G36*
X600899Y407872D02*
X600969Y407865D01*
X601045Y407851D01*
X601135Y407837D01*
X601239Y407816D01*
X601343Y407789D01*
X601454Y407754D01*
X601565Y407712D01*
X601683Y407657D01*
X601801Y407601D01*
X601918Y407532D01*
X602029Y407449D01*
X602140Y407359D01*
X602147Y407352D01*
X602161Y407331D01*
X602189Y407303D01*
X602231Y407255D01*
X602272Y407199D01*
X602321Y407123D01*
X602369Y407033D01*
X602418Y406929D01*
X602473Y406804D01*
X602522Y406672D01*
X602570Y406513D01*
X602612Y406346D01*
X602647Y406152D01*
X602674Y405944D01*
X602695Y405722D01*
X602702Y405472D01*
Y403836D01*
X605302D01*
Y402990D01*
X598902D01*
Y405625D01*
X598909Y405764D01*
X598916Y405923D01*
X598930Y406083D01*
X598944Y406235D01*
X598951Y406311D01*
X598965Y406374D01*
Y406381D01*
X598971Y406395D01*
Y406423D01*
X598978Y406450D01*
X598992Y406492D01*
X598999Y406540D01*
X599034Y406651D01*
X599076Y406776D01*
X599131Y406908D01*
X599193Y407040D01*
X599270Y407164D01*
Y407171D01*
X599277Y407178D01*
X599311Y407220D01*
X599360Y407275D01*
X599429Y407352D01*
X599512Y407428D01*
X599623Y407518D01*
X599741Y407601D01*
X599887Y407677D01*
X599894D01*
X599908Y407685D01*
X599928Y407698D01*
X599956Y407712D01*
X599991Y407726D01*
X600039Y407740D01*
X600143Y407782D01*
X600275Y407816D01*
X600421Y407851D01*
X600587Y407872D01*
X600760Y407879D01*
X600768D01*
X600795D01*
X600837D01*
X600899Y407872D01*
D02*
G37*
G36*
X359306Y433899D02*
X354307D01*
X354320Y433885D01*
X354355Y433850D01*
X354404Y433787D01*
X354473Y433697D01*
X354556Y433593D01*
X354646Y433462D01*
X354743Y433316D01*
X354847Y433150D01*
Y433143D01*
X354861Y433129D01*
X354875Y433108D01*
X354889Y433073D01*
X354917Y433032D01*
X354938Y432983D01*
X355000Y432872D01*
X355062Y432747D01*
X355132Y432609D01*
X355194Y432463D01*
X355250Y432324D01*
X354494D01*
X354487Y432331D01*
X354480Y432352D01*
X354459Y432387D01*
X354438Y432435D01*
X354411Y432491D01*
X354369Y432560D01*
X354327Y432636D01*
X354286Y432713D01*
X354175Y432893D01*
X354043Y433087D01*
X353904Y433288D01*
X353745Y433475D01*
X353738Y433482D01*
X353724Y433496D01*
X353703Y433524D01*
X353669Y433559D01*
X353627Y433593D01*
X353585Y433642D01*
X353467Y433746D01*
X353343Y433864D01*
X353197Y433982D01*
X353045Y434086D01*
X352885Y434176D01*
Y434682D01*
X359306D01*
Y433899D01*
D02*
G37*
G36*
Y428927D02*
X354307D01*
X354320Y428913D01*
X354355Y428878D01*
X354404Y428816D01*
X354473Y428726D01*
X354556Y428622D01*
X354646Y428490D01*
X354743Y428344D01*
X354847Y428178D01*
Y428171D01*
X354861Y428157D01*
X354875Y428136D01*
X354889Y428102D01*
X354917Y428060D01*
X354938Y428011D01*
X355000Y427900D01*
X355062Y427776D01*
X355132Y427637D01*
X355194Y427491D01*
X355250Y427353D01*
X354494D01*
X354487Y427360D01*
X354480Y427380D01*
X354459Y427415D01*
X354438Y427464D01*
X354411Y427519D01*
X354369Y427588D01*
X354327Y427665D01*
X354286Y427741D01*
X354175Y427921D01*
X354043Y428115D01*
X353904Y428316D01*
X353745Y428504D01*
X353738Y428511D01*
X353724Y428525D01*
X353703Y428552D01*
X353669Y428587D01*
X353627Y428622D01*
X353585Y428670D01*
X353467Y428774D01*
X353343Y428892D01*
X353197Y429010D01*
X353045Y429114D01*
X352885Y429204D01*
Y429710D01*
X359306D01*
Y428927D01*
D02*
G37*
G36*
X357323Y426014D02*
X357371Y426000D01*
X357448Y425973D01*
X357531Y425945D01*
X357635Y425903D01*
X357746Y425862D01*
X357864Y425806D01*
X357996Y425744D01*
X358120Y425675D01*
X358259Y425598D01*
X358391Y425508D01*
X358516Y425411D01*
X358640Y425307D01*
X358758Y425189D01*
X358869Y425064D01*
X358876Y425057D01*
X358890Y425030D01*
X358918Y424995D01*
X358952Y424939D01*
X358994Y424877D01*
X359043Y424794D01*
X359091Y424704D01*
X359140Y424593D01*
X359188Y424475D01*
X359237Y424350D01*
X359285Y424211D01*
X359327Y424059D01*
X359362Y423899D01*
X359389Y423733D01*
X359403Y423560D01*
X359410Y423372D01*
Y423275D01*
X359403Y423199D01*
X359396Y423116D01*
X359389Y423012D01*
X359375Y422901D01*
X359355Y422776D01*
X359334Y422644D01*
X359306Y422506D01*
X359271Y422367D01*
X359237Y422228D01*
X359188Y422083D01*
X359133Y421944D01*
X359070Y421812D01*
X358994Y421687D01*
X358987Y421680D01*
X358973Y421660D01*
X358952Y421625D01*
X358918Y421583D01*
X358869Y421528D01*
X358821Y421465D01*
X358758Y421396D01*
X358682Y421320D01*
X358599Y421244D01*
X358509Y421160D01*
X358412Y421084D01*
X358301Y421001D01*
X358183Y420918D01*
X358058Y420841D01*
X357919Y420772D01*
X357774Y420703D01*
X357767Y420696D01*
X357739Y420689D01*
X357690Y420675D01*
X357635Y420654D01*
X357559Y420626D01*
X357476Y420599D01*
X357371Y420571D01*
X357261Y420536D01*
X357136Y420509D01*
X357004Y420474D01*
X356865Y420446D01*
X356713Y420425D01*
X356394Y420384D01*
X356227Y420377D01*
X356061Y420370D01*
X356047D01*
X356019D01*
X355964D01*
X355895Y420377D01*
X355804Y420384D01*
X355700Y420391D01*
X355589Y420405D01*
X355465Y420418D01*
X355333Y420439D01*
X355194Y420460D01*
X354896Y420529D01*
X354750Y420578D01*
X354605Y420626D01*
X354452Y420682D01*
X354314Y420751D01*
X354307Y420758D01*
X354279Y420772D01*
X354244Y420793D01*
X354189Y420821D01*
X354126Y420862D01*
X354057Y420911D01*
X353981Y420966D01*
X353890Y421029D01*
X353807Y421105D01*
X353710Y421181D01*
X353620Y421271D01*
X353523Y421368D01*
X353433Y421472D01*
X353343Y421583D01*
X353260Y421708D01*
X353183Y421833D01*
X353176Y421840D01*
X353169Y421868D01*
X353148Y421902D01*
X353121Y421958D01*
X353093Y422020D01*
X353058Y422103D01*
X353024Y422194D01*
X352989Y422291D01*
X352954Y422402D01*
X352920Y422526D01*
X352885Y422651D01*
X352857Y422790D01*
X352809Y423074D01*
X352802Y423227D01*
X352795Y423386D01*
Y423476D01*
X352802Y423546D01*
X352809Y423629D01*
X352823Y423726D01*
X352836Y423830D01*
X352857Y423948D01*
X352885Y424073D01*
X352913Y424204D01*
X352954Y424336D01*
X353003Y424475D01*
X353058Y424614D01*
X353128Y424745D01*
X353197Y424877D01*
X353287Y425002D01*
X353294Y425009D01*
X353308Y425030D01*
X353336Y425064D01*
X353377Y425106D01*
X353426Y425161D01*
X353488Y425224D01*
X353558Y425286D01*
X353641Y425363D01*
X353731Y425439D01*
X353835Y425515D01*
X353946Y425591D01*
X354071Y425661D01*
X354202Y425737D01*
X354348Y425799D01*
X354501Y425862D01*
X354660Y425917D01*
X354854Y425085D01*
X354847D01*
X354827Y425071D01*
X354785Y425064D01*
X354737Y425043D01*
X354681Y425023D01*
X354619Y424988D01*
X354466Y424919D01*
X354300Y424829D01*
X354126Y424711D01*
X353967Y424586D01*
X353897Y424510D01*
X353835Y424433D01*
X353828Y424426D01*
X353821Y424412D01*
X353807Y424392D01*
X353787Y424357D01*
X353759Y424315D01*
X353731Y424267D01*
X353703Y424211D01*
X353675Y424142D01*
X353648Y424066D01*
X353620Y423989D01*
X353565Y423809D01*
X353530Y423601D01*
X353516Y423490D01*
Y423303D01*
X353523Y423248D01*
X353530Y423185D01*
X353537Y423109D01*
X353544Y423026D01*
X353558Y422943D01*
X353606Y422741D01*
X353669Y422533D01*
X353710Y422429D01*
X353759Y422325D01*
X353814Y422228D01*
X353877Y422131D01*
X353884Y422124D01*
X353890Y422110D01*
X353911Y422083D01*
X353939Y422048D01*
X353974Y422013D01*
X354022Y421965D01*
X354071Y421916D01*
X354126Y421861D01*
X354196Y421805D01*
X354265Y421743D01*
X354424Y421632D01*
X354612Y421528D01*
X354827Y421438D01*
X354834D01*
X354854Y421431D01*
X354889Y421417D01*
X354931Y421410D01*
X354986Y421396D01*
X355048Y421375D01*
X355125Y421362D01*
X355201Y421341D01*
X355291Y421320D01*
X355388Y421306D01*
X355596Y421271D01*
X355818Y421250D01*
X356054Y421244D01*
X356061D01*
X356089D01*
X356130D01*
X356193Y421250D01*
X356262D01*
X356345Y421258D01*
X356435Y421264D01*
X356539Y421271D01*
X356650Y421285D01*
X356761Y421299D01*
X357004Y421341D01*
X357247Y421403D01*
X357482Y421479D01*
X357489D01*
X357510Y421493D01*
X357538Y421507D01*
X357579Y421521D01*
X357635Y421549D01*
X357690Y421583D01*
X357822Y421660D01*
X357975Y421764D01*
X358120Y421889D01*
X358266Y422041D01*
X358328Y422124D01*
X358391Y422214D01*
Y422221D01*
X358405Y422235D01*
X358419Y422263D01*
X358439Y422304D01*
X358460Y422353D01*
X358488Y422408D01*
X358509Y422471D01*
X358536Y422540D01*
X358592Y422700D01*
X358640Y422887D01*
X358675Y423088D01*
X358682Y423192D01*
X358689Y423303D01*
Y423372D01*
X358682Y423421D01*
X358675Y423483D01*
X358668Y423553D01*
X358654Y423636D01*
X358640Y423719D01*
X358592Y423913D01*
X358557Y424010D01*
X358516Y424114D01*
X358467Y424218D01*
X358412Y424315D01*
X358349Y424412D01*
X358280Y424510D01*
X358273Y424516D01*
X358259Y424530D01*
X358238Y424558D01*
X358204Y424593D01*
X358162Y424627D01*
X358106Y424676D01*
X358044Y424725D01*
X357975Y424780D01*
X357892Y424836D01*
X357801Y424891D01*
X357704Y424946D01*
X357593Y425002D01*
X357476Y425051D01*
X357344Y425099D01*
X357205Y425148D01*
X357059Y425182D01*
X357274Y426028D01*
X357288D01*
X357323Y426014D01*
D02*
G37*
G36*
X358140Y386030D02*
X355165D01*
X355089Y386037D01*
X355013D01*
X354923Y386044D01*
X354819Y386051D01*
X354611Y386071D01*
X354396Y386106D01*
X354188Y386148D01*
X354097Y386175D01*
X354007Y386203D01*
X354000D01*
X353987Y386210D01*
X353966Y386224D01*
X353931Y386238D01*
X353848Y386279D01*
X353751Y386342D01*
X353633Y386425D01*
X353515Y386536D01*
X353397Y386661D01*
X353293Y386813D01*
Y386820D01*
X353279Y386834D01*
X353265Y386855D01*
X353251Y386890D01*
X353231Y386931D01*
X353210Y386980D01*
X353182Y387035D01*
X353154Y387098D01*
X353106Y387243D01*
X353064Y387403D01*
X353036Y387583D01*
X353023Y387777D01*
Y387784D01*
Y387805D01*
Y387847D01*
X353030Y387888D01*
X353036Y387951D01*
X353043Y388020D01*
X353057Y388096D01*
X353078Y388179D01*
X353134Y388360D01*
X353168Y388457D01*
X353210Y388554D01*
X353258Y388651D01*
X353321Y388748D01*
X353390Y388838D01*
X353466Y388928D01*
X353473Y388935D01*
X353487Y388949D01*
X353515Y388970D01*
X353550Y389005D01*
X353598Y389039D01*
X353654Y389081D01*
X353723Y389129D01*
X353806Y389178D01*
X353896Y389226D01*
X353993Y389275D01*
X354104Y389324D01*
X354229Y389372D01*
X354361Y389414D01*
X354507Y389455D01*
X354666Y389490D01*
X354832Y389518D01*
X354826D01*
X354819Y389525D01*
X354777Y389545D01*
X354715Y389580D01*
X354638Y389622D01*
X354555Y389670D01*
X354472Y389719D01*
X354389Y389781D01*
X354319Y389837D01*
X354312Y389844D01*
X354305Y389851D01*
X354285Y389871D01*
X354257Y389899D01*
X354222Y389934D01*
X354181Y389975D01*
X354090Y390072D01*
X353987Y390197D01*
X353869Y390343D01*
X353744Y390509D01*
X353619Y390690D01*
X352509Y392430D01*
X353570D01*
X354416Y391099D01*
X354423Y391092D01*
X354430Y391071D01*
X354451Y391043D01*
X354479Y391002D01*
X354507Y390953D01*
X354548Y390898D01*
X354631Y390773D01*
X354728Y390627D01*
X354826Y390482D01*
X354930Y390343D01*
X355027Y390218D01*
Y390211D01*
X355041Y390204D01*
X355068Y390169D01*
X355110Y390114D01*
X355172Y390052D01*
X355235Y389982D01*
X355311Y389913D01*
X355387Y389844D01*
X355457Y389795D01*
X355463Y389788D01*
X355491Y389774D01*
X355526Y389753D01*
X355574Y389726D01*
X355637Y389698D01*
X355699Y389670D01*
X355769Y389642D01*
X355845Y389622D01*
X355852D01*
X355873Y389615D01*
X355907Y389608D01*
X355956Y389601D01*
X356025D01*
X356108Y389594D01*
X356205Y389587D01*
X357294D01*
Y392430D01*
X358140D01*
Y386030D01*
D02*
G37*
G36*
X349493Y390898D02*
X352281D01*
Y390177D01*
X349354Y386030D01*
X348710D01*
Y390177D01*
X347843D01*
Y390898D01*
X348710D01*
Y392430D01*
X349493D01*
Y390898D01*
D02*
G37*
G36*
X388502Y373548D02*
X388564Y373541D01*
X388640Y373534D01*
X388723Y373520D01*
X388814Y373499D01*
X389015Y373451D01*
X389112Y373416D01*
X389223Y373375D01*
X389327Y373326D01*
X389424Y373264D01*
X389521Y373201D01*
X389618Y373125D01*
X389625Y373118D01*
X389639Y373104D01*
X389667Y373083D01*
X389694Y373049D01*
X389736Y373007D01*
X389777Y372952D01*
X389826Y372889D01*
X389875Y372820D01*
X389923Y372744D01*
X389972Y372654D01*
X390020Y372556D01*
X390069Y372452D01*
X390110Y372341D01*
X390145Y372224D01*
X390180Y372099D01*
X390201Y371960D01*
X389417Y371898D01*
Y371905D01*
X389410Y371918D01*
X389403Y371939D01*
X389396Y371974D01*
X389375Y372057D01*
X389341Y372154D01*
X389299Y372265D01*
X389244Y372376D01*
X389188Y372480D01*
X389119Y372570D01*
X389112Y372577D01*
X389105Y372584D01*
X389084Y372605D01*
X389063Y372626D01*
X388994Y372681D01*
X388897Y372744D01*
X388786Y372806D01*
X388647Y372855D01*
X388495Y372896D01*
X388411Y372903D01*
X388328Y372910D01*
X388266D01*
X388190Y372896D01*
X388100Y372882D01*
X387995Y372855D01*
X387884Y372820D01*
X387774Y372765D01*
X387663Y372695D01*
X387656D01*
X387649Y372681D01*
X387628Y372667D01*
X387600Y372647D01*
X387538Y372584D01*
X387455Y372494D01*
X387357Y372383D01*
X387260Y372244D01*
X387170Y372085D01*
X387080Y371905D01*
Y371898D01*
X387073Y371884D01*
X387059Y371849D01*
X387046Y371808D01*
X387032Y371759D01*
X387011Y371690D01*
X386990Y371613D01*
X386969Y371530D01*
X386948Y371433D01*
X386935Y371322D01*
X386914Y371197D01*
X386893Y371066D01*
X386879Y370927D01*
X386872Y370774D01*
X386865Y370608D01*
X386858Y370442D01*
X386858Y370442D01*
Y370435D01*
X386858Y370442D01*
X386872Y370455D01*
X386886Y370476D01*
X386907Y370504D01*
X386969Y370580D01*
X387046Y370677D01*
X387150Y370781D01*
X387267Y370885D01*
X387399Y370982D01*
X387545Y371073D01*
X387552D01*
X387565Y371079D01*
X387586Y371093D01*
X387614Y371107D01*
X387656Y371121D01*
X387697Y371142D01*
X387808Y371184D01*
X387940Y371218D01*
X388086Y371253D01*
X388245Y371281D01*
X388411Y371287D01*
X388446D01*
X388488Y371281D01*
X388543D01*
X388613Y371267D01*
X388689Y371260D01*
X388779Y371239D01*
X388876Y371218D01*
X388973Y371184D01*
X389084Y371149D01*
X389195Y371100D01*
X389306Y371045D01*
X389424Y370975D01*
X389535Y370899D01*
X389646Y370809D01*
X389750Y370705D01*
X389757Y370698D01*
X389771Y370677D01*
X389798Y370649D01*
X389840Y370601D01*
X389882Y370546D01*
X389923Y370476D01*
X389979Y370393D01*
X390027Y370303D01*
X390076Y370199D01*
X390131Y370088D01*
X390173Y369963D01*
X390221Y369831D01*
X390256Y369693D01*
X390284Y369540D01*
X390298Y369381D01*
X390304Y369214D01*
Y369207D01*
Y369186D01*
Y369159D01*
X390298Y369110D01*
Y369062D01*
X390291Y368999D01*
X390284Y368923D01*
X390270Y368847D01*
X390242Y368673D01*
X390194Y368486D01*
X390131Y368292D01*
X390041Y368091D01*
Y368084D01*
X390027Y368070D01*
X390013Y368042D01*
X389992Y368008D01*
X389965Y367966D01*
X389937Y367918D01*
X389854Y367800D01*
X389757Y367675D01*
X389632Y367543D01*
X389486Y367411D01*
X389327Y367300D01*
X389320D01*
X389306Y367286D01*
X389278Y367273D01*
X389244Y367259D01*
X389202Y367238D01*
X389154Y367217D01*
X389091Y367189D01*
X389029Y367169D01*
X388876Y367113D01*
X388696Y367071D01*
X388502Y367044D01*
X388294Y367030D01*
X388252D01*
X388196Y367037D01*
X388127Y367044D01*
X388044Y367051D01*
X387947Y367071D01*
X387843Y367092D01*
X387725Y367120D01*
X387600Y367162D01*
X387468Y367203D01*
X387337Y367266D01*
X387205Y367335D01*
X387066Y367418D01*
X386941Y367515D01*
X386810Y367626D01*
X386692Y367751D01*
X386685Y367758D01*
X386664Y367786D01*
X386636Y367827D01*
X386595Y367890D01*
X386546Y367966D01*
X386498Y368063D01*
X386442Y368181D01*
X386387Y368320D01*
X386324Y368472D01*
X386269Y368646D01*
X386220Y368840D01*
X386172Y369055D01*
X386130Y369290D01*
X386102Y369547D01*
X386082Y369824D01*
X386075Y370122D01*
Y370130D01*
Y370143D01*
Y370171D01*
Y370206D01*
Y370247D01*
X386082Y370303D01*
Y370358D01*
X386088Y370428D01*
X386096Y370580D01*
X386109Y370754D01*
X386130Y370948D01*
X386158Y371156D01*
X386199Y371378D01*
X386241Y371600D01*
X386297Y371821D01*
X386366Y372043D01*
X386442Y372258D01*
X386532Y372466D01*
X386643Y372654D01*
X386761Y372820D01*
X386768Y372827D01*
X386789Y372855D01*
X386824Y372889D01*
X386872Y372938D01*
X386928Y372993D01*
X387004Y373056D01*
X387087Y373118D01*
X387184Y373187D01*
X387295Y373257D01*
X387420Y373319D01*
X387552Y373382D01*
X387697Y373437D01*
X387850Y373486D01*
X388016Y373520D01*
X388190Y373548D01*
X388377Y373555D01*
X388453D01*
X388502Y373548D01*
D02*
G37*
G36*
X382906Y373638D02*
X382989Y373631D01*
X383086Y373617D01*
X383190Y373604D01*
X383308Y373583D01*
X383433Y373555D01*
X383564Y373527D01*
X383696Y373486D01*
X383835Y373437D01*
X383974Y373382D01*
X384105Y373312D01*
X384237Y373243D01*
X384362Y373153D01*
X384369Y373146D01*
X384390Y373132D01*
X384424Y373104D01*
X384466Y373063D01*
X384521Y373014D01*
X384584Y372952D01*
X384646Y372882D01*
X384723Y372799D01*
X384799Y372709D01*
X384875Y372605D01*
X384951Y372494D01*
X385021Y372369D01*
X385097Y372238D01*
X385159Y372092D01*
X385222Y371939D01*
X385277Y371780D01*
X384445Y371586D01*
Y371593D01*
X384431Y371613D01*
X384424Y371655D01*
X384403Y371703D01*
X384383Y371759D01*
X384348Y371821D01*
X384279Y371974D01*
X384189Y372140D01*
X384071Y372314D01*
X383946Y372473D01*
X383870Y372543D01*
X383793Y372605D01*
X383786Y372612D01*
X383773Y372619D01*
X383752Y372633D01*
X383717Y372654D01*
X383675Y372681D01*
X383627Y372709D01*
X383571Y372737D01*
X383502Y372765D01*
X383426Y372792D01*
X383349Y372820D01*
X383169Y372875D01*
X382961Y372910D01*
X382850Y372924D01*
X382663D01*
X382608Y372917D01*
X382545Y372910D01*
X382469Y372903D01*
X382386Y372896D01*
X382303Y372882D01*
X382101Y372834D01*
X381893Y372771D01*
X381789Y372730D01*
X381685Y372681D01*
X381588Y372626D01*
X381491Y372563D01*
X381484Y372556D01*
X381470Y372550D01*
X381443Y372529D01*
X381408Y372501D01*
X381373Y372466D01*
X381325Y372418D01*
X381276Y372369D01*
X381221Y372314D01*
X381165Y372244D01*
X381103Y372175D01*
X380992Y372016D01*
X380888Y371828D01*
X380798Y371613D01*
Y371606D01*
X380791Y371586D01*
X380777Y371551D01*
X380770Y371509D01*
X380756Y371454D01*
X380735Y371391D01*
X380722Y371315D01*
X380701Y371239D01*
X380680Y371149D01*
X380666Y371052D01*
X380631Y370844D01*
X380611Y370622D01*
X380604Y370386D01*
Y370379D01*
Y370351D01*
Y370310D01*
X380611Y370247D01*
Y370178D01*
X380617Y370095D01*
X380624Y370005D01*
X380631Y369901D01*
X380645Y369790D01*
X380659Y369679D01*
X380701Y369436D01*
X380763Y369193D01*
X380839Y368958D01*
Y368951D01*
X380853Y368930D01*
X380867Y368902D01*
X380881Y368861D01*
X380909Y368805D01*
X380943Y368750D01*
X381020Y368618D01*
X381124Y368465D01*
X381249Y368320D01*
X381401Y368174D01*
X381484Y368112D01*
X381574Y368049D01*
X381581D01*
X381595Y368035D01*
X381623Y368022D01*
X381665Y368001D01*
X381713Y367980D01*
X381768Y367952D01*
X381831Y367931D01*
X381900Y367904D01*
X382060Y367848D01*
X382247Y367800D01*
X382448Y367765D01*
X382552Y367758D01*
X382663Y367751D01*
X382732D01*
X382781Y367758D01*
X382843Y367765D01*
X382913Y367772D01*
X382996Y367786D01*
X383079Y367800D01*
X383273Y367848D01*
X383370Y367883D01*
X383474Y367924D01*
X383578Y367973D01*
X383675Y368028D01*
X383773Y368091D01*
X383870Y368160D01*
X383876Y368167D01*
X383890Y368181D01*
X383918Y368202D01*
X383953Y368236D01*
X383988Y368278D01*
X384036Y368334D01*
X384085Y368396D01*
X384140Y368465D01*
X384196Y368549D01*
X384251Y368639D01*
X384306Y368736D01*
X384362Y368847D01*
X384411Y368965D01*
X384459Y369096D01*
X384507Y369235D01*
X384542Y369381D01*
X385388Y369166D01*
Y369152D01*
X385374Y369117D01*
X385360Y369068D01*
X385333Y368992D01*
X385305Y368909D01*
X385263Y368805D01*
X385222Y368694D01*
X385166Y368576D01*
X385104Y368444D01*
X385034Y368320D01*
X384958Y368181D01*
X384868Y368049D01*
X384771Y367924D01*
X384667Y367800D01*
X384549Y367682D01*
X384424Y367571D01*
X384417Y367564D01*
X384390Y367550D01*
X384355Y367522D01*
X384300Y367487D01*
X384237Y367446D01*
X384154Y367397D01*
X384064Y367349D01*
X383953Y367300D01*
X383835Y367252D01*
X383710Y367203D01*
X383571Y367155D01*
X383419Y367113D01*
X383259Y367078D01*
X383093Y367051D01*
X382920Y367037D01*
X382732Y367030D01*
X382635D01*
X382559Y367037D01*
X382476Y367044D01*
X382372Y367051D01*
X382261Y367065D01*
X382136Y367085D01*
X382004Y367106D01*
X381866Y367134D01*
X381727Y367169D01*
X381588Y367203D01*
X381443Y367252D01*
X381304Y367307D01*
X381172Y367370D01*
X381047Y367446D01*
X381040Y367453D01*
X381020Y367467D01*
X380985Y367487D01*
X380943Y367522D01*
X380888Y367571D01*
X380826Y367619D01*
X380756Y367682D01*
X380680Y367758D01*
X380604Y367841D01*
X380520Y367931D01*
X380444Y368028D01*
X380361Y368139D01*
X380278Y368257D01*
X380201Y368382D01*
X380132Y368521D01*
X380063Y368666D01*
X380056Y368673D01*
X380049Y368701D01*
X380035Y368750D01*
X380014Y368805D01*
X379986Y368881D01*
X379959Y368965D01*
X379931Y369068D01*
X379896Y369179D01*
X379869Y369304D01*
X379834Y369436D01*
X379806Y369575D01*
X379785Y369727D01*
X379744Y370046D01*
X379737Y370213D01*
X379730Y370379D01*
Y370393D01*
Y370421D01*
Y370476D01*
X379737Y370546D01*
X379744Y370636D01*
X379751Y370740D01*
X379765Y370851D01*
X379778Y370975D01*
X379799Y371107D01*
X379820Y371246D01*
X379889Y371544D01*
X379938Y371690D01*
X379986Y371835D01*
X380042Y371988D01*
X380111Y372127D01*
X380118Y372133D01*
X380132Y372161D01*
X380153Y372196D01*
X380181Y372251D01*
X380222Y372314D01*
X380271Y372383D01*
X380326Y372459D01*
X380389Y372550D01*
X380465Y372633D01*
X380541Y372730D01*
X380631Y372820D01*
X380728Y372917D01*
X380832Y373007D01*
X380943Y373097D01*
X381068Y373181D01*
X381193Y373257D01*
X381200Y373264D01*
X381228Y373271D01*
X381262Y373292D01*
X381318Y373319D01*
X381380Y373347D01*
X381463Y373382D01*
X381554Y373416D01*
X381651Y373451D01*
X381762Y373486D01*
X381886Y373520D01*
X382011Y373555D01*
X382150Y373583D01*
X382434Y373631D01*
X382587Y373638D01*
X382746Y373645D01*
X382836D01*
X382906Y373638D01*
D02*
G37*
G36*
X472466Y323450D02*
Y323439D01*
Y323418D01*
Y323381D01*
Y323328D01*
X472460Y323265D01*
X472455Y323196D01*
X472450Y323117D01*
X472444Y323027D01*
X472423Y322842D01*
X472397Y322646D01*
X472355Y322456D01*
X472328Y322366D01*
X472296Y322282D01*
Y322277D01*
X472291Y322261D01*
X472281Y322240D01*
X472265Y322208D01*
X472244Y322171D01*
X472222Y322129D01*
X472159Y322034D01*
X472122Y321976D01*
X472080Y321923D01*
X472027Y321859D01*
X471974Y321801D01*
X471911Y321743D01*
X471847Y321685D01*
X471773Y321632D01*
X471694Y321579D01*
X471689Y321574D01*
X471673Y321569D01*
X471652Y321553D01*
X471615Y321537D01*
X471573Y321516D01*
X471520Y321495D01*
X471462Y321468D01*
X471388Y321447D01*
X471314Y321421D01*
X471229Y321394D01*
X471134Y321373D01*
X471034Y321352D01*
X470923Y321336D01*
X470807Y321320D01*
X470685Y321315D01*
X470558Y321310D01*
X470490D01*
X470442Y321315D01*
X470384D01*
X470321Y321320D01*
X470241Y321331D01*
X470162Y321342D01*
X469982Y321368D01*
X469792Y321410D01*
X469607Y321468D01*
X469518Y321500D01*
X469433Y321542D01*
X469428Y321548D01*
X469412Y321553D01*
X469391Y321569D01*
X469364Y321585D01*
X469327Y321611D01*
X469285Y321643D01*
X469243Y321674D01*
X469195Y321717D01*
X469090Y321812D01*
X468989Y321928D01*
X468894Y322065D01*
X468852Y322145D01*
X468815Y322224D01*
Y322229D01*
X468810Y322245D01*
X468799Y322271D01*
X468788Y322308D01*
X468773Y322351D01*
X468757Y322409D01*
X468741Y322472D01*
X468725Y322546D01*
X468704Y322631D01*
X468688Y322720D01*
X468672Y322821D01*
X468662Y322932D01*
X468646Y323048D01*
X468640Y323175D01*
X468630Y323307D01*
Y323450D01*
Y326265D01*
X469274D01*
Y323450D01*
Y323444D01*
Y323423D01*
Y323391D01*
Y323344D01*
X469280Y323291D01*
Y323233D01*
X469285Y323164D01*
X469290Y323096D01*
X469301Y322942D01*
X469322Y322789D01*
X469354Y322641D01*
X469370Y322573D01*
X469391Y322514D01*
Y322509D01*
X469396Y322504D01*
X469401Y322488D01*
X469412Y322467D01*
X469444Y322409D01*
X469486Y322345D01*
X469539Y322266D01*
X469607Y322192D01*
X469692Y322118D01*
X469792Y322049D01*
X469798D01*
X469808Y322044D01*
X469824Y322034D01*
X469845Y322023D01*
X469871Y322012D01*
X469908Y322002D01*
X469945Y321986D01*
X469988Y321970D01*
X470093Y321944D01*
X470215Y321917D01*
X470352Y321896D01*
X470500Y321891D01*
X470569D01*
X470616Y321896D01*
X470675Y321902D01*
X470743Y321907D01*
X470817Y321917D01*
X470896Y321933D01*
X471060Y321970D01*
X471145Y321997D01*
X471229Y322028D01*
X471309Y322065D01*
X471382Y322108D01*
X471451Y322155D01*
X471515Y322213D01*
X471520Y322219D01*
X471530Y322229D01*
X471541Y322250D01*
X471562Y322277D01*
X471583Y322314D01*
X471610Y322361D01*
X471641Y322419D01*
X471668Y322488D01*
X471694Y322567D01*
X471726Y322657D01*
X471752Y322757D01*
X471773Y322868D01*
X471795Y322995D01*
X471810Y323133D01*
X471816Y323286D01*
X471821Y323450D01*
Y326265D01*
X472466D01*
Y323450D01*
D02*
G37*
G36*
X475551Y321389D02*
X474954D01*
Y325198D01*
X474943Y325188D01*
X474917Y325161D01*
X474869Y325124D01*
X474801Y325071D01*
X474721Y325008D01*
X474621Y324939D01*
X474510Y324865D01*
X474383Y324786D01*
X474378D01*
X474367Y324776D01*
X474352Y324765D01*
X474325Y324754D01*
X474294Y324733D01*
X474257Y324717D01*
X474172Y324670D01*
X474077Y324622D01*
X473971Y324570D01*
X473860Y324522D01*
X473755Y324480D01*
Y325056D01*
X473760Y325061D01*
X473776Y325066D01*
X473802Y325082D01*
X473839Y325098D01*
X473881Y325119D01*
X473934Y325151D01*
X473992Y325182D01*
X474050Y325214D01*
X474188Y325299D01*
X474336Y325399D01*
X474489Y325505D01*
X474632Y325626D01*
X474637Y325631D01*
X474647Y325642D01*
X474669Y325658D01*
X474695Y325684D01*
X474721Y325716D01*
X474758Y325748D01*
X474838Y325838D01*
X474927Y325933D01*
X475017Y326044D01*
X475097Y326160D01*
X475165Y326281D01*
X475551D01*
Y321389D01*
D02*
G37*
G36*
X532026Y405055D02*
X532012D01*
X531978D01*
X531922D01*
X531853Y405062D01*
X531769Y405069D01*
X531679Y405090D01*
X531582Y405111D01*
X531485Y405145D01*
X531478D01*
X531464Y405153D01*
X531444Y405159D01*
X531409Y405173D01*
X531374Y405194D01*
X531326Y405215D01*
X531215Y405270D01*
X531083Y405340D01*
X530937Y405430D01*
X530785Y405534D01*
X530632Y405659D01*
X530625Y405666D01*
X530611Y405672D01*
X530591Y405693D01*
X530556Y405728D01*
X530521Y405763D01*
X530473Y405811D01*
X530417Y405860D01*
X530355Y405922D01*
X530286Y405992D01*
X530216Y406068D01*
X530133Y406151D01*
X530050Y406248D01*
X529960Y406345D01*
X529869Y406456D01*
X529772Y406567D01*
X529668Y406692D01*
X529661Y406706D01*
X529627Y406740D01*
X529585Y406789D01*
X529523Y406858D01*
X529454Y406941D01*
X529370Y407039D01*
X529280Y407150D01*
X529176Y407261D01*
X528961Y407496D01*
X528732Y407725D01*
X528621Y407836D01*
X528510Y407940D01*
X528406Y408030D01*
X528309Y408106D01*
X528302Y408113D01*
X528288Y408120D01*
X528261Y408141D01*
X528226Y408162D01*
X528178Y408197D01*
X528129Y408224D01*
X528004Y408294D01*
X527859Y408363D01*
X527699Y408425D01*
X527533Y408467D01*
X527449Y408474D01*
X527366Y408481D01*
X527359D01*
X527346D01*
X527318D01*
X527290Y408474D01*
X527248D01*
X527200Y408460D01*
X527096Y408439D01*
X526971Y408398D01*
X526839Y408335D01*
X526770Y408301D01*
X526707Y408252D01*
X526645Y408204D01*
X526583Y408141D01*
X526576Y408134D01*
X526569Y408127D01*
X526555Y408106D01*
X526534Y408079D01*
X526506Y408044D01*
X526479Y408002D01*
X526416Y407905D01*
X526361Y407774D01*
X526305Y407628D01*
X526271Y407455D01*
X526257Y407357D01*
Y407205D01*
X526264Y407163D01*
Y407115D01*
X526278Y407059D01*
X526298Y406935D01*
X526340Y406789D01*
X526402Y406636D01*
X526444Y406560D01*
X526486Y406484D01*
X526541Y406414D01*
X526604Y406345D01*
X526610Y406338D01*
X526617Y406331D01*
X526638Y406317D01*
X526666Y406290D01*
X526701Y406269D01*
X526742Y406241D01*
X526791Y406207D01*
X526846Y406179D01*
X526909Y406144D01*
X526978Y406116D01*
X527144Y406061D01*
X527325Y406019D01*
X527429Y406012D01*
X527540Y406005D01*
X527456Y405201D01*
X527443D01*
X527415Y405208D01*
X527373Y405215D01*
X527311Y405222D01*
X527234Y405236D01*
X527144Y405257D01*
X527047Y405277D01*
X526943Y405312D01*
X526839Y405347D01*
X526721Y405388D01*
X526610Y405444D01*
X526499Y405499D01*
X526382Y405569D01*
X526278Y405645D01*
X526174Y405728D01*
X526083Y405825D01*
X526077Y405832D01*
X526063Y405853D01*
X526042Y405881D01*
X526007Y405922D01*
X525973Y405978D01*
X525931Y406047D01*
X525889Y406123D01*
X525841Y406213D01*
X525799Y406311D01*
X525757Y406421D01*
X525716Y406539D01*
X525681Y406671D01*
X525647Y406810D01*
X525626Y406955D01*
X525612Y407115D01*
X525605Y407281D01*
Y407371D01*
X525612Y407434D01*
X525619Y407510D01*
X525633Y407600D01*
X525647Y407704D01*
X525667Y407808D01*
X525695Y407926D01*
X525730Y408044D01*
X525771Y408169D01*
X525820Y408287D01*
X525882Y408411D01*
X525952Y408529D01*
X526028Y408640D01*
X526118Y408744D01*
X526125Y408751D01*
X526139Y408765D01*
X526174Y408793D01*
X526208Y408828D01*
X526257Y408869D01*
X526319Y408918D01*
X526389Y408966D01*
X526472Y409015D01*
X526555Y409063D01*
X526652Y409112D01*
X526756Y409160D01*
X526867Y409202D01*
X526992Y409237D01*
X527117Y409264D01*
X527248Y409278D01*
X527387Y409285D01*
X527394D01*
X527401D01*
X527422D01*
X527449D01*
X527526Y409278D01*
X527623Y409264D01*
X527741Y409244D01*
X527865Y409216D01*
X528004Y409181D01*
X528143Y409126D01*
X528150D01*
X528157Y409119D01*
X528178Y409112D01*
X528205Y409098D01*
X528282Y409056D01*
X528379Y409001D01*
X528497Y408925D01*
X528628Y408834D01*
X528767Y408731D01*
X528919Y408599D01*
X528927Y408592D01*
X528940Y408585D01*
X528961Y408557D01*
X528996Y408529D01*
X529037Y408488D01*
X529086Y408439D01*
X529148Y408384D01*
X529211Y408314D01*
X529287Y408231D01*
X529370Y408141D01*
X529467Y408044D01*
X529564Y407933D01*
X529675Y407815D01*
X529786Y407683D01*
X529911Y407538D01*
X530043Y407385D01*
X530050Y407378D01*
X530071Y407357D01*
X530098Y407316D01*
X530140Y407274D01*
X530188Y407212D01*
X530244Y407150D01*
X530369Y407004D01*
X530500Y406851D01*
X530639Y406706D01*
X530702Y406636D01*
X530757Y406574D01*
X530813Y406519D01*
X530854Y406477D01*
X530861Y406470D01*
X530889Y406442D01*
X530930Y406408D01*
X530986Y406359D01*
X531048Y406303D01*
X531118Y406248D01*
X531270Y406137D01*
Y409292D01*
X532026D01*
Y405055D01*
D02*
G37*
G36*
X530043Y404424D02*
X530091Y404411D01*
X530168Y404383D01*
X530251Y404355D01*
X530355Y404313D01*
X530466Y404272D01*
X530584Y404216D01*
X530715Y404154D01*
X530840Y404085D01*
X530979Y404008D01*
X531111Y403918D01*
X531236Y403821D01*
X531360Y403717D01*
X531478Y403599D01*
X531589Y403474D01*
X531596Y403467D01*
X531610Y403440D01*
X531638Y403405D01*
X531672Y403350D01*
X531714Y403287D01*
X531763Y403204D01*
X531811Y403114D01*
X531860Y403003D01*
X531908Y402885D01*
X531957Y402760D01*
X532005Y402621D01*
X532047Y402469D01*
X532081Y402309D01*
X532109Y402143D01*
X532123Y401970D01*
X532130Y401782D01*
Y401685D01*
X532123Y401609D01*
X532116Y401526D01*
X532109Y401422D01*
X532095Y401311D01*
X532075Y401186D01*
X532054Y401054D01*
X532026Y400916D01*
X531991Y400777D01*
X531957Y400638D01*
X531908Y400493D01*
X531853Y400354D01*
X531790Y400222D01*
X531714Y400097D01*
X531707Y400090D01*
X531693Y400070D01*
X531672Y400035D01*
X531638Y399993D01*
X531589Y399938D01*
X531541Y399875D01*
X531478Y399806D01*
X531402Y399730D01*
X531319Y399654D01*
X531229Y399570D01*
X531132Y399494D01*
X531021Y399411D01*
X530903Y399328D01*
X530778Y399251D01*
X530639Y399182D01*
X530494Y399113D01*
X530487Y399106D01*
X530459Y399099D01*
X530410Y399085D01*
X530355Y399064D01*
X530279Y399036D01*
X530195Y399009D01*
X530091Y398981D01*
X529981Y398946D01*
X529856Y398919D01*
X529724Y398884D01*
X529585Y398856D01*
X529433Y398835D01*
X529114Y398794D01*
X528947Y398787D01*
X528781Y398780D01*
X528767D01*
X528739D01*
X528684D01*
X528614Y398787D01*
X528524Y398794D01*
X528420Y398801D01*
X528309Y398815D01*
X528185Y398829D01*
X528053Y398849D01*
X527914Y398870D01*
X527616Y398939D01*
X527470Y398988D01*
X527325Y399036D01*
X527172Y399092D01*
X527033Y399161D01*
X527026Y399168D01*
X526999Y399182D01*
X526964Y399203D01*
X526909Y399231D01*
X526846Y399272D01*
X526777Y399321D01*
X526701Y399376D01*
X526610Y399439D01*
X526527Y399515D01*
X526430Y399591D01*
X526340Y399681D01*
X526243Y399778D01*
X526153Y399883D01*
X526063Y399993D01*
X525979Y400118D01*
X525903Y400243D01*
X525896Y400250D01*
X525889Y400278D01*
X525868Y400312D01*
X525841Y400368D01*
X525813Y400430D01*
X525778Y400513D01*
X525744Y400604D01*
X525709Y400701D01*
X525674Y400812D01*
X525640Y400937D01*
X525605Y401061D01*
X525577Y401200D01*
X525529Y401484D01*
X525522Y401637D01*
X525515Y401796D01*
Y401886D01*
X525522Y401956D01*
X525529Y402039D01*
X525543Y402136D01*
X525556Y402240D01*
X525577Y402358D01*
X525605Y402483D01*
X525633Y402615D01*
X525674Y402746D01*
X525723Y402885D01*
X525778Y403024D01*
X525848Y403155D01*
X525917Y403287D01*
X526007Y403412D01*
X526014Y403419D01*
X526028Y403440D01*
X526056Y403474D01*
X526097Y403516D01*
X526146Y403572D01*
X526208Y403634D01*
X526278Y403696D01*
X526361Y403773D01*
X526451Y403849D01*
X526555Y403925D01*
X526666Y404001D01*
X526791Y404071D01*
X526922Y404147D01*
X527068Y404209D01*
X527221Y404272D01*
X527380Y404327D01*
X527574Y403495D01*
X527567D01*
X527547Y403481D01*
X527505Y403474D01*
X527456Y403454D01*
X527401Y403433D01*
X527338Y403398D01*
X527186Y403329D01*
X527020Y403239D01*
X526846Y403121D01*
X526687Y402996D01*
X526617Y402920D01*
X526555Y402843D01*
X526548Y402836D01*
X526541Y402823D01*
X526527Y402802D01*
X526506Y402767D01*
X526479Y402725D01*
X526451Y402677D01*
X526423Y402621D01*
X526395Y402552D01*
X526368Y402476D01*
X526340Y402400D01*
X526284Y402219D01*
X526250Y402011D01*
X526236Y401900D01*
Y401713D01*
X526243Y401658D01*
X526250Y401595D01*
X526257Y401519D01*
X526264Y401436D01*
X526278Y401353D01*
X526326Y401151D01*
X526389Y400943D01*
X526430Y400839D01*
X526479Y400735D01*
X526534Y400638D01*
X526597Y400541D01*
X526604Y400534D01*
X526610Y400520D01*
X526631Y400493D01*
X526659Y400458D01*
X526694Y400423D01*
X526742Y400375D01*
X526791Y400326D01*
X526846Y400271D01*
X526916Y400215D01*
X526985Y400153D01*
X527144Y400042D01*
X527332Y399938D01*
X527547Y399848D01*
X527553D01*
X527574Y399841D01*
X527609Y399827D01*
X527651Y399820D01*
X527706Y399806D01*
X527769Y399785D01*
X527845Y399771D01*
X527921Y399751D01*
X528011Y399730D01*
X528108Y399716D01*
X528316Y399681D01*
X528538Y399661D01*
X528774Y399654D01*
X528781D01*
X528809D01*
X528850D01*
X528913Y399661D01*
X528982D01*
X529065Y399668D01*
X529155Y399674D01*
X529259Y399681D01*
X529370Y399695D01*
X529481Y399709D01*
X529724Y399751D01*
X529967Y399813D01*
X530202Y399889D01*
X530209D01*
X530230Y399903D01*
X530258Y399917D01*
X530299Y399931D01*
X530355Y399959D01*
X530410Y399993D01*
X530542Y400070D01*
X530695Y400174D01*
X530840Y400299D01*
X530986Y400451D01*
X531048Y400534D01*
X531111Y400624D01*
Y400631D01*
X531125Y400645D01*
X531138Y400673D01*
X531159Y400715D01*
X531180Y400763D01*
X531208Y400819D01*
X531229Y400881D01*
X531256Y400950D01*
X531312Y401110D01*
X531360Y401297D01*
X531395Y401498D01*
X531402Y401602D01*
X531409Y401713D01*
Y401782D01*
X531402Y401831D01*
X531395Y401893D01*
X531388Y401963D01*
X531374Y402046D01*
X531360Y402129D01*
X531312Y402323D01*
X531277Y402420D01*
X531236Y402524D01*
X531187Y402628D01*
X531132Y402725D01*
X531069Y402823D01*
X531000Y402920D01*
X530993Y402927D01*
X530979Y402940D01*
X530958Y402968D01*
X530924Y403003D01*
X530882Y403037D01*
X530826Y403086D01*
X530764Y403135D01*
X530695Y403190D01*
X530611Y403246D01*
X530521Y403301D01*
X530424Y403357D01*
X530313Y403412D01*
X530195Y403461D01*
X530064Y403509D01*
X529925Y403558D01*
X529779Y403592D01*
X529994Y404438D01*
X530008D01*
X530043Y404424D01*
D02*
G37*
G36*
X562315Y415283D02*
X562406Y415276D01*
X562510Y415269D01*
X562621Y415255D01*
X562746Y415242D01*
X562877Y415221D01*
X563016Y415200D01*
X563314Y415131D01*
X563460Y415082D01*
X563605Y415033D01*
X563758Y414978D01*
X563896Y414909D01*
X563904Y414902D01*
X563931Y414888D01*
X563966Y414867D01*
X564021Y414839D01*
X564084Y414798D01*
X564153Y414749D01*
X564229Y414694D01*
X564319Y414631D01*
X564403Y414555D01*
X564500Y414479D01*
X564590Y414389D01*
X564687Y414291D01*
X564777Y414188D01*
X564867Y414077D01*
X564950Y413952D01*
X565027Y413827D01*
X565034Y413820D01*
X565041Y413792D01*
X565061Y413758D01*
X565089Y413702D01*
X565117Y413640D01*
X565152Y413557D01*
X565186Y413466D01*
X565221Y413369D01*
X565256Y413258D01*
X565290Y413134D01*
X565325Y413009D01*
X565353Y412870D01*
X565401Y412586D01*
X565408Y412433D01*
X565415Y412274D01*
Y412183D01*
X565408Y412114D01*
X565401Y412031D01*
X565387Y411934D01*
X565373Y411830D01*
X565353Y411712D01*
X565325Y411587D01*
X565297Y411455D01*
X565256Y411324D01*
X565207Y411185D01*
X565152Y411046D01*
X565082Y410915D01*
X565013Y410783D01*
X564923Y410658D01*
X564916Y410651D01*
X564902Y410630D01*
X564874Y410596D01*
X564833Y410554D01*
X564784Y410499D01*
X564722Y410436D01*
X564652Y410374D01*
X564569Y410297D01*
X564479Y410221D01*
X564375Y410145D01*
X564264Y410069D01*
X564139Y409999D01*
X564007Y409923D01*
X563862Y409861D01*
X563709Y409798D01*
X563550Y409743D01*
X563356Y410575D01*
X563363D01*
X563383Y410589D01*
X563425Y410596D01*
X563474Y410616D01*
X563529Y410637D01*
X563591Y410672D01*
X563744Y410741D01*
X563910Y410831D01*
X564084Y410949D01*
X564243Y411074D01*
X564313Y411150D01*
X564375Y411227D01*
X564382Y411233D01*
X564389Y411247D01*
X564403Y411268D01*
X564423Y411303D01*
X564451Y411344D01*
X564479Y411393D01*
X564507Y411449D01*
X564534Y411518D01*
X564562Y411594D01*
X564590Y411670D01*
X564645Y411851D01*
X564680Y412059D01*
X564694Y412170D01*
Y412357D01*
X564687Y412412D01*
X564680Y412475D01*
X564673Y412551D01*
X564666Y412634D01*
X564652Y412718D01*
X564604Y412919D01*
X564541Y413127D01*
X564500Y413231D01*
X564451Y413335D01*
X564396Y413432D01*
X564333Y413529D01*
X564327Y413536D01*
X564319Y413550D01*
X564299Y413577D01*
X564271Y413612D01*
X564236Y413647D01*
X564188Y413695D01*
X564139Y413744D01*
X564084Y413799D01*
X564014Y413855D01*
X563945Y413917D01*
X563786Y414028D01*
X563598Y414132D01*
X563383Y414222D01*
X563377D01*
X563356Y414229D01*
X563321Y414243D01*
X563279Y414250D01*
X563224Y414264D01*
X563162Y414285D01*
X563085Y414299D01*
X563009Y414319D01*
X562919Y414340D01*
X562822Y414354D01*
X562614Y414389D01*
X562392Y414409D01*
X562156Y414416D01*
X562149D01*
X562121D01*
X562080D01*
X562017Y414409D01*
X561948D01*
X561865Y414403D01*
X561775Y414395D01*
X561671Y414389D01*
X561560Y414375D01*
X561449Y414361D01*
X561206Y414319D01*
X560963Y414257D01*
X560728Y414181D01*
X560721D01*
X560700Y414167D01*
X560672Y414153D01*
X560630Y414139D01*
X560575Y414111D01*
X560520Y414077D01*
X560388Y414000D01*
X560235Y413896D01*
X560090Y413772D01*
X559944Y413619D01*
X559882Y413536D01*
X559819Y413446D01*
Y413439D01*
X559805Y413425D01*
X559791Y413397D01*
X559771Y413355D01*
X559750Y413307D01*
X559722Y413251D01*
X559701Y413189D01*
X559674Y413120D01*
X559618Y412960D01*
X559570Y412773D01*
X559535Y412572D01*
X559528Y412468D01*
X559521Y412357D01*
Y412287D01*
X559528Y412239D01*
X559535Y412177D01*
X559542Y412107D01*
X559556Y412024D01*
X559570Y411941D01*
X559618Y411747D01*
X559653Y411650D01*
X559694Y411546D01*
X559743Y411442D01*
X559798Y411344D01*
X559861Y411247D01*
X559930Y411150D01*
X559937Y411143D01*
X559951Y411129D01*
X559972Y411102D01*
X560006Y411067D01*
X560048Y411032D01*
X560103Y410984D01*
X560166Y410935D01*
X560235Y410880D01*
X560318Y410824D01*
X560409Y410769D01*
X560506Y410714D01*
X560617Y410658D01*
X560734Y410610D01*
X560866Y410561D01*
X561005Y410512D01*
X561151Y410478D01*
X560936Y409632D01*
X560922D01*
X560887Y409646D01*
X560839Y409660D01*
X560762Y409687D01*
X560679Y409715D01*
X560575Y409757D01*
X560464Y409798D01*
X560346Y409854D01*
X560215Y409916D01*
X560090Y409985D01*
X559951Y410062D01*
X559819Y410152D01*
X559694Y410249D01*
X559570Y410353D01*
X559452Y410471D01*
X559341Y410596D01*
X559334Y410602D01*
X559320Y410630D01*
X559292Y410665D01*
X559258Y410720D01*
X559216Y410783D01*
X559167Y410866D01*
X559119Y410956D01*
X559070Y411067D01*
X559022Y411185D01*
X558973Y411310D01*
X558925Y411449D01*
X558883Y411601D01*
X558848Y411760D01*
X558821Y411927D01*
X558807Y412100D01*
X558800Y412287D01*
Y412385D01*
X558807Y412461D01*
X558814Y412544D01*
X558821Y412648D01*
X558835Y412759D01*
X558855Y412884D01*
X558876Y413016D01*
X558904Y413154D01*
X558939Y413293D01*
X558973Y413432D01*
X559022Y413577D01*
X559077Y413716D01*
X559140Y413848D01*
X559216Y413973D01*
X559223Y413979D01*
X559237Y414000D01*
X559258Y414035D01*
X559292Y414077D01*
X559341Y414132D01*
X559389Y414194D01*
X559452Y414264D01*
X559528Y414340D01*
X559611Y414416D01*
X559701Y414500D01*
X559798Y414576D01*
X559909Y414659D01*
X560027Y414742D01*
X560152Y414818D01*
X560291Y414888D01*
X560436Y414957D01*
X560443Y414964D01*
X560471Y414971D01*
X560520Y414985D01*
X560575Y415006D01*
X560651Y415033D01*
X560734Y415061D01*
X560839Y415089D01*
X560950Y415124D01*
X561074Y415151D01*
X561206Y415186D01*
X561345Y415214D01*
X561497Y415235D01*
X561816Y415276D01*
X561983Y415283D01*
X562149Y415290D01*
X562163D01*
X562191D01*
X562246D01*
X562315Y415283D01*
D02*
G37*
G36*
X560644Y408078D02*
X560638D01*
X560617Y408072D01*
X560589Y408065D01*
X560547Y408058D01*
X560499Y408051D01*
X560436Y408030D01*
X560305Y407995D01*
X560159Y407940D01*
X560006Y407864D01*
X559868Y407773D01*
X559805Y407718D01*
X559743Y407662D01*
Y407655D01*
X559729Y407649D01*
X559715Y407628D01*
X559694Y407600D01*
X559646Y407531D01*
X559597Y407434D01*
X559542Y407316D01*
X559493Y407177D01*
X559459Y407024D01*
X559452Y406941D01*
X559445Y406851D01*
Y406796D01*
X559452Y406754D01*
X559459Y406706D01*
X559466Y406650D01*
X559500Y406518D01*
X559549Y406366D01*
X559584Y406289D01*
X559625Y406206D01*
X559674Y406123D01*
X559729Y406047D01*
X559791Y405970D01*
X559868Y405894D01*
X559875Y405887D01*
X559889Y405880D01*
X559909Y405859D01*
X559944Y405832D01*
X559993Y405804D01*
X560041Y405769D01*
X560103Y405735D01*
X560173Y405693D01*
X560249Y405658D01*
X560332Y405624D01*
X560429Y405589D01*
X560527Y405561D01*
X560638Y405534D01*
X560755Y405513D01*
X560873Y405506D01*
X561005Y405499D01*
X561012D01*
X561033D01*
X561067D01*
X561116Y405506D01*
X561171Y405513D01*
X561241Y405520D01*
X561310Y405534D01*
X561393Y405547D01*
X561560Y405589D01*
X561740Y405658D01*
X561823Y405700D01*
X561906Y405756D01*
X561990Y405811D01*
X562066Y405880D01*
X562073Y405887D01*
X562080Y405894D01*
X562101Y405922D01*
X562128Y405950D01*
X562156Y405984D01*
X562191Y406033D01*
X562225Y406081D01*
X562267Y406144D01*
X562302Y406213D01*
X562336Y406283D01*
X562399Y406456D01*
X562426Y406546D01*
X562447Y406650D01*
X562454Y406754D01*
X562461Y406865D01*
Y406927D01*
X562454Y407004D01*
X562440Y407094D01*
X562420Y407205D01*
X562385Y407323D01*
X562343Y407440D01*
X562281Y407558D01*
X562274Y407572D01*
X562253Y407607D01*
X562211Y407662D01*
X562163Y407732D01*
X562094Y407801D01*
X562017Y407884D01*
X561927Y407961D01*
X561830Y408030D01*
X561934Y408765D01*
X565221Y408148D01*
Y404965D01*
X564472D01*
Y407524D01*
X562752Y407864D01*
X562759Y407857D01*
X562773Y407836D01*
X562787Y407808D01*
X562815Y407766D01*
X562842Y407711D01*
X562877Y407649D01*
X562919Y407579D01*
X562953Y407496D01*
X562988Y407413D01*
X563030Y407316D01*
X563092Y407115D01*
X563120Y407004D01*
X563141Y406893D01*
X563148Y406775D01*
X563155Y406657D01*
Y406622D01*
X563148Y406574D01*
Y406518D01*
X563134Y406449D01*
X563127Y406366D01*
X563106Y406269D01*
X563085Y406172D01*
X563051Y406061D01*
X563016Y405950D01*
X562967Y405832D01*
X562912Y405714D01*
X562842Y405596D01*
X562766Y405478D01*
X562676Y405360D01*
X562572Y405249D01*
X562565Y405242D01*
X562544Y405222D01*
X562510Y405194D01*
X562468Y405159D01*
X562413Y405111D01*
X562336Y405062D01*
X562260Y405014D01*
X562170Y404958D01*
X562066Y404903D01*
X561948Y404854D01*
X561830Y404799D01*
X561692Y404757D01*
X561553Y404722D01*
X561400Y404695D01*
X561241Y404674D01*
X561074Y404667D01*
X561067D01*
X561033D01*
X560991D01*
X560929Y404674D01*
X560852Y404681D01*
X560769Y404695D01*
X560672Y404709D01*
X560561Y404729D01*
X560450Y404757D01*
X560325Y404792D01*
X560201Y404833D01*
X560076Y404882D01*
X559951Y404937D01*
X559819Y405007D01*
X559694Y405083D01*
X559576Y405173D01*
X559570Y405180D01*
X559542Y405201D01*
X559507Y405235D01*
X559459Y405284D01*
X559396Y405346D01*
X559334Y405423D01*
X559258Y405513D01*
X559188Y405617D01*
X559119Y405728D01*
X559043Y405853D01*
X558980Y405991D01*
X558925Y406144D01*
X558869Y406303D01*
X558835Y406477D01*
X558807Y406657D01*
X558800Y406851D01*
Y406934D01*
X558807Y406997D01*
X558814Y407073D01*
X558828Y407156D01*
X558842Y407253D01*
X558862Y407357D01*
X558883Y407468D01*
X558918Y407586D01*
X558959Y407704D01*
X559008Y407822D01*
X559063Y407940D01*
X559126Y408058D01*
X559202Y408169D01*
X559285Y408280D01*
X559292Y408287D01*
X559306Y408300D01*
X559334Y408328D01*
X559375Y408363D01*
X559424Y408411D01*
X559479Y408460D01*
X559549Y408508D01*
X559632Y408564D01*
X559715Y408619D01*
X559812Y408675D01*
X559923Y408723D01*
X560034Y408772D01*
X560159Y408820D01*
X560291Y408855D01*
X560436Y408883D01*
X560582Y408904D01*
X560644Y408078D01*
D02*
G37*
G36*
X393056Y331878D02*
X393112D01*
X393188Y331864D01*
X393271Y331850D01*
X393361Y331836D01*
X393465Y331808D01*
X393576Y331774D01*
X393687Y331732D01*
X393805Y331683D01*
X393923Y331621D01*
X394048Y331552D01*
X394166Y331469D01*
X394284Y331378D01*
X394395Y331267D01*
X394402Y331260D01*
X394422Y331240D01*
X394450Y331205D01*
X394485Y331156D01*
X394526Y331101D01*
X394575Y331025D01*
X394630Y330942D01*
X394679Y330844D01*
X394734Y330740D01*
X394790Y330622D01*
X394838Y330498D01*
X394880Y330359D01*
X394915Y330213D01*
X394942Y330061D01*
X394963Y329901D01*
X394970Y329728D01*
Y329693D01*
X394963Y329645D01*
Y329589D01*
X394956Y329513D01*
X394942Y329430D01*
X394929Y329340D01*
X394908Y329236D01*
X394880Y329125D01*
X394845Y329014D01*
X394811Y328896D01*
X394762Y328778D01*
X394700Y328660D01*
X394637Y328549D01*
X394561Y328431D01*
X394471Y328327D01*
X394464Y328320D01*
X394450Y328307D01*
X394422Y328279D01*
X394381Y328237D01*
X394332Y328195D01*
X394270Y328147D01*
X394200Y328098D01*
X394117Y328043D01*
X394034Y327988D01*
X393930Y327932D01*
X393826Y327877D01*
X393708Y327828D01*
X393583Y327786D01*
X393451Y327745D01*
X393313Y327717D01*
X393167Y327696D01*
X393063Y328480D01*
X393070D01*
X393091Y328487D01*
X393126Y328494D01*
X393174Y328508D01*
X393230Y328521D01*
X393292Y328535D01*
X393438Y328584D01*
X393597Y328646D01*
X393757Y328722D01*
X393902Y328820D01*
X393965Y328875D01*
X394027Y328931D01*
Y328937D01*
X394041Y328944D01*
X394055Y328965D01*
X394076Y328986D01*
X394117Y329055D01*
X394173Y329152D01*
X394228Y329270D01*
X394270Y329402D01*
X394304Y329562D01*
X394318Y329728D01*
Y329784D01*
X394311Y329825D01*
X394304Y329867D01*
X394297Y329929D01*
X394270Y330054D01*
X394228Y330206D01*
X394159Y330366D01*
X394110Y330442D01*
X394062Y330518D01*
X394006Y330595D01*
X393937Y330671D01*
X393930Y330678D01*
X393916Y330685D01*
X393895Y330706D01*
X393868Y330733D01*
X393833Y330761D01*
X393784Y330789D01*
X393736Y330824D01*
X393673Y330865D01*
X393535Y330934D01*
X393375Y330990D01*
X393188Y331039D01*
X393091Y331045D01*
X392987Y331052D01*
X392980D01*
X392966D01*
X392932D01*
X392897Y331045D01*
X392848Y331039D01*
X392800Y331032D01*
X392675Y331011D01*
X392529Y330962D01*
X392384Y330900D01*
X392307Y330858D01*
X392238Y330810D01*
X392169Y330754D01*
X392099Y330692D01*
X392092Y330685D01*
X392085Y330678D01*
X392065Y330657D01*
X392044Y330629D01*
X392016Y330595D01*
X391988Y330553D01*
X391919Y330449D01*
X391857Y330317D01*
X391801Y330165D01*
X391760Y329991D01*
X391753Y329894D01*
X391746Y329797D01*
Y329756D01*
X391753Y329707D01*
Y329645D01*
X391767Y329562D01*
X391780Y329471D01*
X391801Y329361D01*
X391829Y329243D01*
X391142Y329326D01*
Y329340D01*
X391149Y329374D01*
X391156Y329416D01*
Y329506D01*
X391149Y329541D01*
Y329589D01*
X391142Y329638D01*
X391122Y329756D01*
X391094Y329894D01*
X391045Y330047D01*
X390983Y330206D01*
X390893Y330359D01*
Y330366D01*
X390879Y330380D01*
X390865Y330394D01*
X390844Y330421D01*
X390782Y330491D01*
X390692Y330567D01*
X390581Y330636D01*
X390442Y330706D01*
X390366Y330733D01*
X390276Y330747D01*
X390186Y330761D01*
X390089Y330768D01*
X390081D01*
X390068D01*
X390047D01*
X390012Y330761D01*
X389936Y330754D01*
X389832Y330733D01*
X389721Y330699D01*
X389603Y330643D01*
X389478Y330567D01*
X389423Y330525D01*
X389367Y330470D01*
X389353Y330456D01*
X389326Y330415D01*
X389277Y330352D01*
X389222Y330269D01*
X389173Y330158D01*
X389125Y330026D01*
X389097Y329880D01*
X389083Y329714D01*
Y329673D01*
X389090Y329638D01*
Y329596D01*
X389097Y329555D01*
X389118Y329444D01*
X389152Y329326D01*
X389208Y329194D01*
X389277Y329069D01*
X389374Y328944D01*
X389388Y328931D01*
X389430Y328896D01*
X389492Y328840D01*
X389589Y328785D01*
X389707Y328716D01*
X389860Y328653D01*
X390033Y328598D01*
X390234Y328556D01*
X390095Y327772D01*
X390089D01*
X390061Y327780D01*
X390019Y327786D01*
X389964Y327800D01*
X389901Y327821D01*
X389825Y327842D01*
X389742Y327870D01*
X389652Y327904D01*
X389450Y327994D01*
X389353Y328043D01*
X389249Y328105D01*
X389152Y328175D01*
X389055Y328251D01*
X388958Y328334D01*
X388875Y328424D01*
X388868Y328431D01*
X388854Y328445D01*
X388833Y328480D01*
X388806Y328515D01*
X388771Y328570D01*
X388736Y328625D01*
X388695Y328695D01*
X388653Y328778D01*
X388618Y328861D01*
X388577Y328958D01*
X388542Y329062D01*
X388507Y329173D01*
X388480Y329298D01*
X388459Y329423D01*
X388445Y329555D01*
X388438Y329693D01*
Y329784D01*
X388445Y329832D01*
X388452Y329880D01*
X388466Y330012D01*
X388494Y330158D01*
X388535Y330324D01*
X388591Y330491D01*
X388667Y330657D01*
Y330664D01*
X388674Y330678D01*
X388688Y330699D01*
X388708Y330733D01*
X388757Y330810D01*
X388826Y330907D01*
X388917Y331018D01*
X389021Y331129D01*
X389138Y331240D01*
X389277Y331337D01*
X389284D01*
X389291Y331344D01*
X389319Y331357D01*
X389347Y331371D01*
X389381Y331392D01*
X389423Y331413D01*
X389527Y331455D01*
X389652Y331496D01*
X389790Y331538D01*
X389943Y331566D01*
X390102Y331572D01*
X390109D01*
X390123D01*
X390144D01*
X390172D01*
X390255Y331559D01*
X390352Y331545D01*
X390470Y331517D01*
X390595Y331475D01*
X390726Y331420D01*
X390858Y331344D01*
X390865D01*
X390872Y331337D01*
X390914Y331302D01*
X390976Y331254D01*
X391052Y331177D01*
X391142Y331087D01*
X391233Y330969D01*
X391316Y330838D01*
X391399Y330685D01*
Y330692D01*
X391406Y330713D01*
X391413Y330740D01*
X391427Y330782D01*
X391441Y330824D01*
X391461Y330879D01*
X391517Y331011D01*
X391593Y331149D01*
X391683Y331295D01*
X391801Y331441D01*
X391947Y331566D01*
X391954Y331572D01*
X391968Y331579D01*
X391988Y331593D01*
X392023Y331614D01*
X392058Y331642D01*
X392106Y331670D01*
X392162Y331697D01*
X392231Y331725D01*
X392300Y331753D01*
X392377Y331781D01*
X392550Y331836D01*
X392751Y331871D01*
X392862Y331884D01*
X392973D01*
X392980D01*
X393008D01*
X393056Y331878D01*
D02*
G37*
G36*
X392876Y326954D02*
X392924Y326940D01*
X393001Y326913D01*
X393084Y326885D01*
X393188Y326843D01*
X393299Y326802D01*
X393417Y326746D01*
X393549Y326684D01*
X393673Y326614D01*
X393812Y326538D01*
X393944Y326448D01*
X394069Y326351D01*
X394193Y326247D01*
X394311Y326129D01*
X394422Y326004D01*
X394429Y325997D01*
X394443Y325970D01*
X394471Y325935D01*
X394506Y325880D01*
X394547Y325817D01*
X394596Y325734D01*
X394644Y325644D01*
X394693Y325533D01*
X394741Y325415D01*
X394790Y325290D01*
X394838Y325151D01*
X394880Y324999D01*
X394915Y324839D01*
X394942Y324673D01*
X394956Y324500D01*
X394963Y324312D01*
Y324215D01*
X394956Y324139D01*
X394949Y324056D01*
X394942Y323952D01*
X394929Y323841D01*
X394908Y323716D01*
X394887Y323584D01*
X394859Y323446D01*
X394824Y323307D01*
X394790Y323168D01*
X394741Y323023D01*
X394686Y322884D01*
X394623Y322752D01*
X394547Y322627D01*
X394540Y322620D01*
X394526Y322600D01*
X394506Y322565D01*
X394471Y322523D01*
X394422Y322468D01*
X394374Y322406D01*
X394311Y322336D01*
X394235Y322260D01*
X394152Y322184D01*
X394062Y322100D01*
X393965Y322024D01*
X393854Y321941D01*
X393736Y321858D01*
X393611Y321781D01*
X393472Y321712D01*
X393327Y321643D01*
X393320Y321636D01*
X393292Y321629D01*
X393243Y321615D01*
X393188Y321594D01*
X393112Y321566D01*
X393029Y321539D01*
X392924Y321511D01*
X392814Y321476D01*
X392689Y321449D01*
X392557Y321414D01*
X392418Y321386D01*
X392266Y321365D01*
X391947Y321324D01*
X391780Y321317D01*
X391614Y321310D01*
X391600D01*
X391572D01*
X391517D01*
X391448Y321317D01*
X391357Y321324D01*
X391253Y321331D01*
X391142Y321344D01*
X391018Y321358D01*
X390886Y321379D01*
X390747Y321400D01*
X390449Y321469D01*
X390303Y321518D01*
X390158Y321566D01*
X390005Y321622D01*
X389867Y321691D01*
X389860Y321698D01*
X389832Y321712D01*
X389797Y321733D01*
X389742Y321761D01*
X389679Y321802D01*
X389610Y321851D01*
X389534Y321906D01*
X389444Y321969D01*
X389360Y322045D01*
X389263Y322121D01*
X389173Y322211D01*
X389076Y322308D01*
X388986Y322412D01*
X388896Y322523D01*
X388813Y322648D01*
X388736Y322773D01*
X388729Y322780D01*
X388722Y322808D01*
X388702Y322842D01*
X388674Y322898D01*
X388646Y322960D01*
X388611Y323043D01*
X388577Y323134D01*
X388542Y323231D01*
X388507Y323342D01*
X388473Y323466D01*
X388438Y323591D01*
X388410Y323730D01*
X388362Y324014D01*
X388355Y324167D01*
X388348Y324326D01*
Y324416D01*
X388355Y324486D01*
X388362Y324569D01*
X388376Y324666D01*
X388390Y324770D01*
X388410Y324888D01*
X388438Y325013D01*
X388466Y325145D01*
X388507Y325276D01*
X388556Y325415D01*
X388611Y325554D01*
X388681Y325685D01*
X388750Y325817D01*
X388840Y325942D01*
X388847Y325949D01*
X388861Y325970D01*
X388889Y326004D01*
X388930Y326046D01*
X388979Y326101D01*
X389041Y326164D01*
X389111Y326226D01*
X389194Y326302D01*
X389284Y326379D01*
X389388Y326455D01*
X389499Y326531D01*
X389624Y326601D01*
X389756Y326677D01*
X389901Y326739D01*
X390054Y326802D01*
X390213Y326857D01*
X390407Y326025D01*
X390401D01*
X390380Y326011D01*
X390338Y326004D01*
X390289Y325984D01*
X390234Y325963D01*
X390172Y325928D01*
X390019Y325859D01*
X389853Y325769D01*
X389679Y325651D01*
X389520Y325526D01*
X389450Y325450D01*
X389388Y325373D01*
X389381Y325366D01*
X389374Y325353D01*
X389360Y325332D01*
X389340Y325297D01*
X389312Y325255D01*
X389284Y325207D01*
X389256Y325151D01*
X389229Y325082D01*
X389201Y325006D01*
X389173Y324930D01*
X389118Y324749D01*
X389083Y324541D01*
X389069Y324430D01*
Y324243D01*
X389076Y324188D01*
X389083Y324125D01*
X389090Y324049D01*
X389097Y323966D01*
X389111Y323882D01*
X389159Y323681D01*
X389222Y323473D01*
X389263Y323369D01*
X389312Y323265D01*
X389367Y323168D01*
X389430Y323071D01*
X389437Y323064D01*
X389444Y323050D01*
X389464Y323023D01*
X389492Y322988D01*
X389527Y322953D01*
X389575Y322905D01*
X389624Y322856D01*
X389679Y322801D01*
X389749Y322745D01*
X389818Y322683D01*
X389977Y322572D01*
X390165Y322468D01*
X390380Y322378D01*
X390387D01*
X390407Y322371D01*
X390442Y322357D01*
X390484Y322350D01*
X390539Y322336D01*
X390602Y322315D01*
X390678Y322301D01*
X390754Y322281D01*
X390844Y322260D01*
X390941Y322246D01*
X391149Y322211D01*
X391371Y322191D01*
X391607Y322184D01*
X391614D01*
X391642D01*
X391683D01*
X391746Y322191D01*
X391815D01*
X391898Y322197D01*
X391988Y322204D01*
X392092Y322211D01*
X392203Y322225D01*
X392314Y322239D01*
X392557Y322281D01*
X392800Y322343D01*
X393036Y322419D01*
X393042D01*
X393063Y322433D01*
X393091Y322447D01*
X393133Y322461D01*
X393188Y322489D01*
X393243Y322523D01*
X393375Y322600D01*
X393528Y322704D01*
X393673Y322828D01*
X393819Y322981D01*
X393881Y323064D01*
X393944Y323154D01*
Y323161D01*
X393958Y323175D01*
X393972Y323203D01*
X393992Y323245D01*
X394013Y323293D01*
X394041Y323349D01*
X394062Y323411D01*
X394090Y323480D01*
X394145Y323640D01*
X394193Y323827D01*
X394228Y324028D01*
X394235Y324132D01*
X394242Y324243D01*
Y324312D01*
X394235Y324361D01*
X394228Y324423D01*
X394221Y324493D01*
X394207Y324576D01*
X394193Y324659D01*
X394145Y324853D01*
X394110Y324950D01*
X394069Y325054D01*
X394020Y325158D01*
X393965Y325255D01*
X393902Y325353D01*
X393833Y325450D01*
X393826Y325457D01*
X393812Y325470D01*
X393791Y325498D01*
X393757Y325533D01*
X393715Y325568D01*
X393660Y325616D01*
X393597Y325665D01*
X393528Y325720D01*
X393445Y325775D01*
X393354Y325831D01*
X393257Y325886D01*
X393146Y325942D01*
X393029Y325990D01*
X392897Y326039D01*
X392758Y326087D01*
X392612Y326122D01*
X392827Y326968D01*
X392841D01*
X392876Y326954D01*
D02*
G37*
G36*
X437459Y444921D02*
X437563D01*
X437688Y444915D01*
X437819Y444908D01*
X437965Y444894D01*
X438117Y444880D01*
X438277Y444866D01*
X438603Y444817D01*
X438922Y444748D01*
X439067Y444706D01*
X439213Y444658D01*
X439220D01*
X439248Y444644D01*
X439282Y444630D01*
X439331Y444609D01*
X439393Y444582D01*
X439463Y444547D01*
X439539Y444505D01*
X439622Y444464D01*
X439796Y444353D01*
X439983Y444214D01*
X440156Y444055D01*
X440239Y443965D01*
X440316Y443867D01*
X440323Y443861D01*
X440330Y443847D01*
X440350Y443812D01*
X440371Y443777D01*
X440399Y443722D01*
X440434Y443666D01*
X440468Y443597D01*
X440503Y443514D01*
X440537Y443431D01*
X440572Y443334D01*
X440600Y443237D01*
X440635Y443125D01*
X440676Y442890D01*
X440683Y442765D01*
X440690Y442633D01*
Y442564D01*
X440683Y442508D01*
X440676Y442446D01*
X440669Y442370D01*
X440655Y442286D01*
X440635Y442196D01*
X440586Y442002D01*
X440551Y441905D01*
X440517Y441801D01*
X440468Y441697D01*
X440413Y441593D01*
X440350Y441496D01*
X440274Y441406D01*
X440267Y441399D01*
X440253Y441385D01*
X440232Y441364D01*
X440198Y441329D01*
X440156Y441295D01*
X440101Y441253D01*
X440038Y441205D01*
X439969Y441156D01*
X439893Y441108D01*
X439803Y441059D01*
X439705Y441017D01*
X439601Y440969D01*
X439491Y440927D01*
X439373Y440893D01*
X439241Y440865D01*
X439102Y440844D01*
X439040Y441600D01*
X439047D01*
X439061Y441607D01*
X439088D01*
X439130Y441621D01*
X439171Y441628D01*
X439220Y441642D01*
X439338Y441676D01*
X439463Y441725D01*
X439588Y441787D01*
X439705Y441870D01*
X439761Y441912D01*
X439809Y441961D01*
X439816Y441974D01*
X439844Y442009D01*
X439886Y442071D01*
X439927Y442148D01*
X439969Y442252D01*
X440010Y442370D01*
X440038Y442501D01*
X440045Y442654D01*
Y442716D01*
X440038Y442786D01*
X440024Y442869D01*
X440004Y442966D01*
X439976Y443070D01*
X439941Y443181D01*
X439886Y443285D01*
X439879Y443299D01*
X439858Y443334D01*
X439816Y443382D01*
X439768Y443445D01*
X439705Y443514D01*
X439629Y443590D01*
X439539Y443666D01*
X439442Y443736D01*
X439428Y443743D01*
X439393Y443764D01*
X439331Y443798D01*
X439241Y443840D01*
X439137Y443881D01*
X439012Y443930D01*
X438859Y443978D01*
X438693Y444027D01*
X438686D01*
X438672Y444034D01*
X438644Y444041D01*
X438610Y444048D01*
X438568Y444055D01*
X438520Y444062D01*
X438457Y444076D01*
X438395Y444089D01*
X438249Y444110D01*
X438090Y444124D01*
X437916Y444138D01*
X437736Y444145D01*
X437722D01*
X437695D01*
X437646D01*
X437584D01*
X437590Y444131D01*
X437611Y444124D01*
X437639Y444103D01*
X437708Y444048D01*
X437792Y443978D01*
X437889Y443881D01*
X437993Y443770D01*
X438090Y443646D01*
X438187Y443500D01*
Y443493D01*
X438194Y443479D01*
X438208Y443458D01*
X438222Y443431D01*
X438242Y443389D01*
X438256Y443347D01*
X438298Y443237D01*
X438346Y443105D01*
X438381Y442952D01*
X438409Y442786D01*
X438416Y442612D01*
Y442578D01*
X438409Y442536D01*
Y442481D01*
X438395Y442411D01*
X438388Y442335D01*
X438367Y442245D01*
X438346Y442148D01*
X438312Y442044D01*
X438277Y441940D01*
X438228Y441829D01*
X438173Y441718D01*
X438111Y441600D01*
X438034Y441489D01*
X437944Y441378D01*
X437847Y441274D01*
X437840Y441267D01*
X437819Y441253D01*
X437785Y441226D01*
X437743Y441191D01*
X437688Y441149D01*
X437618Y441101D01*
X437535Y441052D01*
X437438Y441004D01*
X437341Y440948D01*
X437223Y440900D01*
X437098Y440851D01*
X436966Y440810D01*
X436821Y440775D01*
X436661Y440747D01*
X436502Y440733D01*
X436329Y440726D01*
X436315D01*
X436287D01*
X436231Y440733D01*
X436169D01*
X436086Y440747D01*
X435989Y440754D01*
X435885Y440775D01*
X435767Y440796D01*
X435649Y440830D01*
X435517Y440865D01*
X435385Y440914D01*
X435261Y440969D01*
X435129Y441031D01*
X434997Y441108D01*
X434879Y441198D01*
X434761Y441295D01*
X434754Y441302D01*
X434734Y441323D01*
X434706Y441357D01*
X434671Y441399D01*
X434623Y441454D01*
X434574Y441524D01*
X434519Y441600D01*
X434463Y441690D01*
X434408Y441787D01*
X434352Y441898D01*
X434304Y442016D01*
X434255Y442141D01*
X434221Y442280D01*
X434193Y442425D01*
X434172Y442571D01*
X434165Y442730D01*
Y442793D01*
X434172Y442834D01*
Y442890D01*
X434186Y442952D01*
X434193Y443028D01*
X434207Y443105D01*
X434248Y443285D01*
X434311Y443472D01*
X434345Y443569D01*
X434394Y443673D01*
X434442Y443770D01*
X434505Y443867D01*
X434512Y443874D01*
X434519Y443888D01*
X434539Y443916D01*
X434567Y443951D01*
X434602Y443999D01*
X434644Y444048D01*
X434692Y444103D01*
X434748Y444159D01*
X434810Y444221D01*
X434886Y444290D01*
X434962Y444353D01*
X435046Y444422D01*
X435143Y444485D01*
X435240Y444547D01*
X435351Y444603D01*
X435462Y444658D01*
X435469D01*
X435489Y444672D01*
X435524Y444686D01*
X435580Y444700D01*
X435642Y444720D01*
X435718Y444741D01*
X435808Y444769D01*
X435919Y444797D01*
X436037Y444817D01*
X436169Y444845D01*
X436321Y444866D01*
X436481Y444887D01*
X436654Y444901D01*
X436842Y444915D01*
X437043Y444928D01*
X437258D01*
X437271D01*
X437313D01*
X437375D01*
X437459Y444921D01*
D02*
G37*
G36*
X438603Y439984D02*
X438651Y439970D01*
X438728Y439943D01*
X438811Y439915D01*
X438915Y439873D01*
X439026Y439832D01*
X439144Y439776D01*
X439276Y439714D01*
X439400Y439645D01*
X439539Y439568D01*
X439671Y439478D01*
X439796Y439381D01*
X439920Y439277D01*
X440038Y439159D01*
X440149Y439034D01*
X440156Y439027D01*
X440170Y439000D01*
X440198Y438965D01*
X440232Y438909D01*
X440274Y438847D01*
X440323Y438764D01*
X440371Y438674D01*
X440420Y438563D01*
X440468Y438445D01*
X440517Y438320D01*
X440565Y438181D01*
X440607Y438029D01*
X440642Y437869D01*
X440669Y437703D01*
X440683Y437530D01*
X440690Y437342D01*
Y437245D01*
X440683Y437169D01*
X440676Y437086D01*
X440669Y436982D01*
X440655Y436871D01*
X440635Y436746D01*
X440614Y436614D01*
X440586Y436476D01*
X440551Y436337D01*
X440517Y436198D01*
X440468Y436053D01*
X440413Y435914D01*
X440350Y435782D01*
X440274Y435657D01*
X440267Y435650D01*
X440253Y435630D01*
X440232Y435595D01*
X440198Y435553D01*
X440149Y435498D01*
X440101Y435435D01*
X440038Y435366D01*
X439962Y435290D01*
X439879Y435214D01*
X439789Y435130D01*
X439692Y435054D01*
X439581Y434971D01*
X439463Y434888D01*
X439338Y434811D01*
X439199Y434742D01*
X439054Y434673D01*
X439047Y434666D01*
X439019Y434659D01*
X438970Y434645D01*
X438915Y434624D01*
X438839Y434596D01*
X438755Y434569D01*
X438651Y434541D01*
X438540Y434506D01*
X438416Y434479D01*
X438284Y434444D01*
X438145Y434416D01*
X437993Y434395D01*
X437674Y434354D01*
X437507Y434347D01*
X437341Y434340D01*
X437327D01*
X437299D01*
X437244D01*
X437174Y434347D01*
X437084Y434354D01*
X436980Y434361D01*
X436869Y434375D01*
X436744Y434388D01*
X436613Y434409D01*
X436474Y434430D01*
X436176Y434499D01*
X436030Y434548D01*
X435885Y434596D01*
X435732Y434652D01*
X435593Y434721D01*
X435587Y434728D01*
X435559Y434742D01*
X435524Y434763D01*
X435469Y434791D01*
X435406Y434832D01*
X435337Y434881D01*
X435261Y434936D01*
X435171Y434999D01*
X435087Y435075D01*
X434990Y435151D01*
X434900Y435241D01*
X434803Y435338D01*
X434713Y435442D01*
X434623Y435553D01*
X434539Y435678D01*
X434463Y435803D01*
X434456Y435810D01*
X434449Y435838D01*
X434428Y435872D01*
X434401Y435928D01*
X434373Y435990D01*
X434338Y436073D01*
X434304Y436164D01*
X434269Y436261D01*
X434234Y436372D01*
X434200Y436496D01*
X434165Y436621D01*
X434137Y436760D01*
X434089Y437044D01*
X434082Y437197D01*
X434075Y437356D01*
Y437446D01*
X434082Y437516D01*
X434089Y437599D01*
X434103Y437696D01*
X434117Y437800D01*
X434137Y437918D01*
X434165Y438043D01*
X434193Y438175D01*
X434234Y438306D01*
X434283Y438445D01*
X434338Y438584D01*
X434408Y438715D01*
X434477Y438847D01*
X434567Y438972D01*
X434574Y438979D01*
X434588Y439000D01*
X434616Y439034D01*
X434657Y439076D01*
X434706Y439131D01*
X434768Y439194D01*
X434838Y439256D01*
X434921Y439333D01*
X435011Y439409D01*
X435115Y439485D01*
X435226Y439561D01*
X435351Y439631D01*
X435482Y439707D01*
X435628Y439769D01*
X435781Y439832D01*
X435940Y439887D01*
X436134Y439055D01*
X436127D01*
X436107Y439041D01*
X436065Y439034D01*
X436016Y439013D01*
X435961Y438993D01*
X435899Y438958D01*
X435746Y438889D01*
X435580Y438799D01*
X435406Y438681D01*
X435247Y438556D01*
X435177Y438480D01*
X435115Y438403D01*
X435108Y438396D01*
X435101Y438382D01*
X435087Y438362D01*
X435066Y438327D01*
X435039Y438285D01*
X435011Y438237D01*
X434983Y438181D01*
X434955Y438112D01*
X434928Y438036D01*
X434900Y437960D01*
X434845Y437779D01*
X434810Y437571D01*
X434796Y437460D01*
Y437273D01*
X434803Y437218D01*
X434810Y437155D01*
X434817Y437079D01*
X434824Y436996D01*
X434838Y436912D01*
X434886Y436711D01*
X434949Y436503D01*
X434990Y436399D01*
X435039Y436295D01*
X435094Y436198D01*
X435157Y436101D01*
X435163Y436094D01*
X435171Y436080D01*
X435191Y436053D01*
X435219Y436018D01*
X435254Y435983D01*
X435302Y435935D01*
X435351Y435886D01*
X435406Y435831D01*
X435476Y435775D01*
X435545Y435713D01*
X435704Y435602D01*
X435892Y435498D01*
X436107Y435408D01*
X436114D01*
X436134Y435401D01*
X436169Y435387D01*
X436211Y435380D01*
X436266Y435366D01*
X436329Y435345D01*
X436405Y435331D01*
X436481Y435311D01*
X436571Y435290D01*
X436668Y435276D01*
X436876Y435241D01*
X437098Y435220D01*
X437334Y435214D01*
X437341D01*
X437369D01*
X437410D01*
X437473Y435220D01*
X437542D01*
X437625Y435228D01*
X437715Y435234D01*
X437819Y435241D01*
X437930Y435255D01*
X438041Y435269D01*
X438284Y435311D01*
X438527Y435373D01*
X438762Y435449D01*
X438769D01*
X438790Y435463D01*
X438818Y435477D01*
X438859Y435491D01*
X438915Y435519D01*
X438970Y435553D01*
X439102Y435630D01*
X439255Y435734D01*
X439400Y435858D01*
X439546Y436011D01*
X439608Y436094D01*
X439671Y436184D01*
Y436191D01*
X439685Y436205D01*
X439698Y436233D01*
X439719Y436274D01*
X439740Y436323D01*
X439768Y436379D01*
X439789Y436441D01*
X439816Y436510D01*
X439872Y436670D01*
X439920Y436857D01*
X439955Y437058D01*
X439962Y437162D01*
X439969Y437273D01*
Y437342D01*
X439962Y437391D01*
X439955Y437453D01*
X439948Y437523D01*
X439934Y437606D01*
X439920Y437689D01*
X439872Y437883D01*
X439837Y437980D01*
X439796Y438084D01*
X439747Y438188D01*
X439692Y438285D01*
X439629Y438382D01*
X439560Y438480D01*
X439553Y438487D01*
X439539Y438500D01*
X439518Y438528D01*
X439483Y438563D01*
X439442Y438597D01*
X439386Y438646D01*
X439324Y438695D01*
X439255Y438750D01*
X439171Y438806D01*
X439081Y438861D01*
X438984Y438916D01*
X438873Y438972D01*
X438755Y439021D01*
X438624Y439069D01*
X438485Y439118D01*
X438339Y439152D01*
X438554Y439998D01*
X438568D01*
X438603Y439984D01*
D02*
G37*
G36*
X523922Y334431D02*
X523984D01*
X524053Y334418D01*
X524137Y334411D01*
X524227Y334390D01*
X524324Y334369D01*
X524435Y334334D01*
X524546Y334300D01*
X524657Y334251D01*
X524775Y334196D01*
X524893Y334126D01*
X525003Y334050D01*
X525121Y333960D01*
X525225Y333856D01*
X525232Y333849D01*
X525246Y333828D01*
X525274Y333794D01*
X525309Y333752D01*
X525357Y333690D01*
X525399Y333620D01*
X525454Y333537D01*
X525503Y333447D01*
X525551Y333343D01*
X525607Y333225D01*
X525648Y333100D01*
X525690Y332968D01*
X525732Y332823D01*
X525759Y332670D01*
X525773Y332504D01*
X525780Y332331D01*
Y332289D01*
X525773Y332240D01*
Y332171D01*
X525766Y332095D01*
X525752Y331998D01*
X525732Y331894D01*
X525711Y331783D01*
X525683Y331665D01*
X525641Y331540D01*
X525600Y331415D01*
X525544Y331283D01*
X525482Y331159D01*
X525406Y331034D01*
X525322Y330909D01*
X525225Y330798D01*
X525218Y330791D01*
X525198Y330770D01*
X525170Y330742D01*
X525121Y330708D01*
X525066Y330666D01*
X525003Y330618D01*
X524927Y330562D01*
X524837Y330514D01*
X524740Y330458D01*
X524636Y330403D01*
X524518Y330354D01*
X524400Y330313D01*
X524268Y330278D01*
X524123Y330250D01*
X523977Y330229D01*
X523825Y330223D01*
X523818D01*
X523797D01*
X523762D01*
X523721Y330229D01*
X523665D01*
X523603Y330236D01*
X523533Y330250D01*
X523457Y330264D01*
X523298Y330299D01*
X523124Y330354D01*
X522951Y330430D01*
X522868Y330479D01*
X522785Y330535D01*
X522778Y330541D01*
X522764Y330548D01*
X522743Y330569D01*
X522715Y330597D01*
X522681Y330625D01*
X522646Y330666D01*
X522597Y330715D01*
X522556Y330770D01*
X522459Y330895D01*
X522361Y331048D01*
X522278Y331228D01*
X522209Y331436D01*
Y331429D01*
X522202Y331415D01*
X522188Y331387D01*
X522174Y331360D01*
X522160Y331318D01*
X522133Y331269D01*
X522077Y331166D01*
X522008Y331048D01*
X521918Y330930D01*
X521821Y330812D01*
X521703Y330715D01*
X521696D01*
X521689Y330708D01*
X521668Y330694D01*
X521640Y330680D01*
X521571Y330639D01*
X521481Y330597D01*
X521363Y330555D01*
X521224Y330514D01*
X521072Y330486D01*
X520905Y330479D01*
X520898D01*
X520878D01*
X520836Y330486D01*
X520788D01*
X520732Y330493D01*
X520663Y330507D01*
X520586Y330521D01*
X520496Y330541D01*
X520406Y330569D01*
X520316Y330604D01*
X520219Y330639D01*
X520115Y330687D01*
X520018Y330750D01*
X519921Y330812D01*
X519824Y330888D01*
X519734Y330978D01*
X519726Y330985D01*
X519713Y330999D01*
X519692Y331027D01*
X519657Y331068D01*
X519622Y331117D01*
X519581Y331179D01*
X519539Y331249D01*
X519491Y331332D01*
X519449Y331422D01*
X519408Y331526D01*
X519366Y331630D01*
X519331Y331748D01*
X519297Y331880D01*
X519276Y332011D01*
X519262Y332157D01*
X519255Y332310D01*
Y332393D01*
X519262Y332448D01*
X519269Y332518D01*
X519283Y332601D01*
X519297Y332691D01*
X519317Y332795D01*
X519345Y332899D01*
X519373Y333010D01*
X519414Y333121D01*
X519463Y333232D01*
X519519Y333350D01*
X519588Y333454D01*
X519657Y333565D01*
X519747Y333662D01*
X519754Y333669D01*
X519768Y333683D01*
X519796Y333710D01*
X519831Y333745D01*
X519879Y333780D01*
X519935Y333821D01*
X520004Y333870D01*
X520073Y333918D01*
X520156Y333967D01*
X520247Y334016D01*
X520344Y334057D01*
X520448Y334092D01*
X520559Y334126D01*
X520676Y334154D01*
X520801Y334168D01*
X520926Y334175D01*
X520933D01*
X520947D01*
X520968D01*
X521002D01*
X521037Y334168D01*
X521086Y334161D01*
X521190Y334147D01*
X521307Y334119D01*
X521439Y334078D01*
X521571Y334016D01*
X521703Y333939D01*
X521710D01*
X521717Y333925D01*
X521758Y333898D01*
X521814Y333842D01*
X521890Y333766D01*
X521966Y333662D01*
X522056Y333544D01*
X522133Y333398D01*
X522209Y333232D01*
Y333239D01*
X522216Y333260D01*
X522230Y333287D01*
X522244Y333329D01*
X522264Y333377D01*
X522292Y333433D01*
X522361Y333565D01*
X522445Y333710D01*
X522556Y333856D01*
X522681Y334002D01*
X522833Y334126D01*
X522840Y334133D01*
X522854Y334140D01*
X522875Y334154D01*
X522909Y334175D01*
X522951Y334196D01*
X522999Y334224D01*
X523055Y334251D01*
X523117Y334286D01*
X523263Y334341D01*
X523436Y334390D01*
X523630Y334425D01*
X523735Y334438D01*
X523845D01*
X523852D01*
X523880D01*
X523922Y334431D01*
D02*
G37*
G36*
X523693Y329494D02*
X523741Y329481D01*
X523818Y329453D01*
X523901Y329425D01*
X524005Y329383D01*
X524116Y329342D01*
X524234Y329286D01*
X524366Y329224D01*
X524490Y329155D01*
X524629Y329078D01*
X524761Y328988D01*
X524886Y328891D01*
X525010Y328787D01*
X525128Y328669D01*
X525239Y328544D01*
X525246Y328537D01*
X525260Y328510D01*
X525288Y328475D01*
X525322Y328420D01*
X525364Y328357D01*
X525413Y328274D01*
X525461Y328184D01*
X525510Y328073D01*
X525558Y327955D01*
X525607Y327830D01*
X525655Y327691D01*
X525697Y327539D01*
X525732Y327379D01*
X525759Y327213D01*
X525773Y327040D01*
X525780Y326852D01*
Y326755D01*
X525773Y326679D01*
X525766Y326596D01*
X525759Y326492D01*
X525745Y326381D01*
X525725Y326256D01*
X525704Y326124D01*
X525676Y325986D01*
X525641Y325847D01*
X525607Y325708D01*
X525558Y325563D01*
X525503Y325424D01*
X525440Y325292D01*
X525364Y325167D01*
X525357Y325160D01*
X525343Y325140D01*
X525322Y325105D01*
X525288Y325063D01*
X525239Y325008D01*
X525191Y324945D01*
X525128Y324876D01*
X525052Y324800D01*
X524969Y324724D01*
X524879Y324640D01*
X524782Y324564D01*
X524671Y324481D01*
X524553Y324398D01*
X524428Y324321D01*
X524289Y324252D01*
X524144Y324183D01*
X524137Y324176D01*
X524109Y324169D01*
X524060Y324155D01*
X524005Y324134D01*
X523929Y324106D01*
X523845Y324079D01*
X523741Y324051D01*
X523630Y324016D01*
X523506Y323989D01*
X523374Y323954D01*
X523235Y323926D01*
X523083Y323905D01*
X522764Y323864D01*
X522597Y323857D01*
X522431Y323850D01*
X522417D01*
X522389D01*
X522334D01*
X522264Y323857D01*
X522174Y323864D01*
X522070Y323871D01*
X521959Y323885D01*
X521834Y323899D01*
X521703Y323919D01*
X521564Y323940D01*
X521266Y324009D01*
X521120Y324058D01*
X520975Y324106D01*
X520822Y324162D01*
X520683Y324231D01*
X520676Y324238D01*
X520649Y324252D01*
X520614Y324273D01*
X520559Y324301D01*
X520496Y324342D01*
X520427Y324391D01*
X520351Y324446D01*
X520261Y324509D01*
X520177Y324585D01*
X520080Y324661D01*
X519990Y324751D01*
X519893Y324848D01*
X519803Y324953D01*
X519713Y325063D01*
X519629Y325188D01*
X519553Y325313D01*
X519546Y325320D01*
X519539Y325348D01*
X519519Y325382D01*
X519491Y325438D01*
X519463Y325500D01*
X519428Y325583D01*
X519394Y325674D01*
X519359Y325771D01*
X519324Y325882D01*
X519290Y326007D01*
X519255Y326131D01*
X519227Y326270D01*
X519179Y326554D01*
X519172Y326707D01*
X519165Y326866D01*
Y326956D01*
X519172Y327026D01*
X519179Y327109D01*
X519193Y327206D01*
X519207Y327310D01*
X519227Y327428D01*
X519255Y327553D01*
X519283Y327685D01*
X519324Y327816D01*
X519373Y327955D01*
X519428Y328094D01*
X519498Y328225D01*
X519567Y328357D01*
X519657Y328482D01*
X519664Y328489D01*
X519678Y328510D01*
X519706Y328544D01*
X519747Y328586D01*
X519796Y328642D01*
X519858Y328704D01*
X519928Y328766D01*
X520011Y328843D01*
X520101Y328919D01*
X520205Y328995D01*
X520316Y329071D01*
X520441Y329141D01*
X520573Y329217D01*
X520718Y329279D01*
X520871Y329342D01*
X521030Y329397D01*
X521224Y328565D01*
X521217D01*
X521197Y328551D01*
X521155Y328544D01*
X521106Y328524D01*
X521051Y328503D01*
X520989Y328468D01*
X520836Y328399D01*
X520670Y328309D01*
X520496Y328191D01*
X520337Y328066D01*
X520267Y327990D01*
X520205Y327913D01*
X520198Y327906D01*
X520191Y327893D01*
X520177Y327872D01*
X520156Y327837D01*
X520129Y327795D01*
X520101Y327747D01*
X520073Y327691D01*
X520046Y327622D01*
X520018Y327546D01*
X519990Y327470D01*
X519935Y327289D01*
X519900Y327081D01*
X519886Y326970D01*
Y326783D01*
X519893Y326728D01*
X519900Y326665D01*
X519907Y326589D01*
X519914Y326506D01*
X519928Y326423D01*
X519976Y326221D01*
X520039Y326013D01*
X520080Y325909D01*
X520129Y325805D01*
X520184Y325708D01*
X520247Y325611D01*
X520253Y325604D01*
X520261Y325590D01*
X520281Y325563D01*
X520309Y325528D01*
X520344Y325493D01*
X520392Y325445D01*
X520441Y325396D01*
X520496Y325341D01*
X520566Y325285D01*
X520635Y325223D01*
X520794Y325112D01*
X520982Y325008D01*
X521197Y324918D01*
X521203D01*
X521224Y324911D01*
X521259Y324897D01*
X521301Y324890D01*
X521356Y324876D01*
X521418Y324855D01*
X521495Y324841D01*
X521571Y324821D01*
X521661Y324800D01*
X521758Y324786D01*
X521966Y324751D01*
X522188Y324731D01*
X522424Y324724D01*
X522431D01*
X522459D01*
X522500D01*
X522563Y324731D01*
X522632D01*
X522715Y324738D01*
X522805Y324744D01*
X522909Y324751D01*
X523020Y324765D01*
X523131Y324779D01*
X523374Y324821D01*
X523617Y324883D01*
X523852Y324959D01*
X523859D01*
X523880Y324973D01*
X523908Y324987D01*
X523949Y325001D01*
X524005Y325029D01*
X524060Y325063D01*
X524192Y325140D01*
X524345Y325244D01*
X524490Y325368D01*
X524636Y325521D01*
X524698Y325604D01*
X524761Y325694D01*
Y325701D01*
X524775Y325715D01*
X524789Y325743D01*
X524809Y325785D01*
X524830Y325833D01*
X524858Y325889D01*
X524879Y325951D01*
X524906Y326020D01*
X524962Y326180D01*
X525010Y326367D01*
X525045Y326568D01*
X525052Y326672D01*
X525059Y326783D01*
Y326852D01*
X525052Y326901D01*
X525045Y326963D01*
X525038Y327033D01*
X525024Y327116D01*
X525010Y327199D01*
X524962Y327393D01*
X524927Y327490D01*
X524886Y327594D01*
X524837Y327698D01*
X524782Y327795D01*
X524719Y327893D01*
X524650Y327990D01*
X524643Y327997D01*
X524629Y328010D01*
X524608Y328038D01*
X524574Y328073D01*
X524532Y328107D01*
X524476Y328156D01*
X524414Y328205D01*
X524345Y328260D01*
X524262Y328316D01*
X524171Y328371D01*
X524074Y328427D01*
X523963Y328482D01*
X523845Y328531D01*
X523714Y328579D01*
X523575Y328628D01*
X523429Y328662D01*
X523644Y329508D01*
X523658D01*
X523693Y329494D01*
D02*
G37*
G36*
X415916Y388771D02*
X415972D01*
X416048Y388757D01*
X416131Y388743D01*
X416221Y388730D01*
X416325Y388702D01*
X416436Y388667D01*
X416547Y388625D01*
X416665Y388577D01*
X416783Y388515D01*
X416908Y388445D01*
X417026Y388362D01*
X417144Y388272D01*
X417254Y388161D01*
X417261Y388154D01*
X417282Y388133D01*
X417310Y388098D01*
X417345Y388050D01*
X417386Y387994D01*
X417435Y387918D01*
X417490Y387835D01*
X417539Y387738D01*
X417594Y387634D01*
X417650Y387516D01*
X417698Y387391D01*
X417740Y387253D01*
X417775Y387107D01*
X417802Y386954D01*
X417823Y386795D01*
X417830Y386622D01*
Y386587D01*
X417823Y386538D01*
Y386483D01*
X417816Y386407D01*
X417802Y386323D01*
X417788Y386233D01*
X417768Y386129D01*
X417740Y386018D01*
X417705Y385907D01*
X417671Y385789D01*
X417622Y385672D01*
X417560Y385554D01*
X417497Y385443D01*
X417421Y385325D01*
X417331Y385221D01*
X417324Y385214D01*
X417310Y385200D01*
X417282Y385172D01*
X417241Y385131D01*
X417192Y385089D01*
X417130Y385041D01*
X417060Y384992D01*
X416977Y384936D01*
X416894Y384881D01*
X416790Y384826D01*
X416686Y384770D01*
X416568Y384721D01*
X416443Y384680D01*
X416311Y384638D01*
X416173Y384611D01*
X416027Y384590D01*
X415923Y385373D01*
X415930D01*
X415951Y385380D01*
X415985Y385387D01*
X416034Y385401D01*
X416090Y385415D01*
X416152Y385429D01*
X416298Y385477D01*
X416457Y385540D01*
X416617Y385616D01*
X416762Y385713D01*
X416825Y385769D01*
X416887Y385824D01*
Y385831D01*
X416901Y385838D01*
X416915Y385859D01*
X416936Y385880D01*
X416977Y385949D01*
X417033Y386046D01*
X417088Y386164D01*
X417130Y386296D01*
X417164Y386455D01*
X417178Y386622D01*
Y386677D01*
X417171Y386719D01*
X417164Y386760D01*
X417157Y386823D01*
X417130Y386947D01*
X417088Y387100D01*
X417019Y387259D01*
X416970Y387336D01*
X416922Y387412D01*
X416866Y387488D01*
X416797Y387565D01*
X416790Y387571D01*
X416776Y387578D01*
X416755Y387599D01*
X416727Y387627D01*
X416693Y387655D01*
X416644Y387682D01*
X416596Y387717D01*
X416533Y387759D01*
X416395Y387828D01*
X416235Y387883D01*
X416048Y387932D01*
X415951Y387939D01*
X415847Y387946D01*
X415840D01*
X415826D01*
X415791D01*
X415757Y387939D01*
X415708Y387932D01*
X415660Y387925D01*
X415535Y387904D01*
X415389Y387856D01*
X415244Y387793D01*
X415167Y387752D01*
X415098Y387703D01*
X415029Y387648D01*
X414959Y387585D01*
X414952Y387578D01*
X414945Y387571D01*
X414925Y387551D01*
X414904Y387523D01*
X414876Y387488D01*
X414848Y387447D01*
X414779Y387343D01*
X414717Y387211D01*
X414661Y387058D01*
X414619Y386885D01*
X414613Y386788D01*
X414606Y386691D01*
Y386649D01*
X414613Y386601D01*
Y386538D01*
X414626Y386455D01*
X414640Y386365D01*
X414661Y386254D01*
X414689Y386136D01*
X414002Y386219D01*
Y386233D01*
X414009Y386268D01*
X414016Y386309D01*
Y386400D01*
X414009Y386434D01*
Y386483D01*
X414002Y386531D01*
X413982Y386649D01*
X413954Y386788D01*
X413905Y386940D01*
X413843Y387100D01*
X413753Y387253D01*
Y387259D01*
X413739Y387273D01*
X413725Y387287D01*
X413704Y387315D01*
X413642Y387384D01*
X413552Y387461D01*
X413441Y387530D01*
X413302Y387599D01*
X413226Y387627D01*
X413136Y387641D01*
X413045Y387655D01*
X412948Y387662D01*
X412941D01*
X412928D01*
X412907D01*
X412872Y387655D01*
X412796Y387648D01*
X412692Y387627D01*
X412581Y387592D01*
X412463Y387537D01*
X412338Y387461D01*
X412283Y387419D01*
X412227Y387363D01*
X412213Y387350D01*
X412186Y387308D01*
X412137Y387246D01*
X412082Y387162D01*
X412033Y387051D01*
X411984Y386920D01*
X411957Y386774D01*
X411943Y386608D01*
Y386566D01*
X411950Y386531D01*
Y386490D01*
X411957Y386448D01*
X411978Y386337D01*
X412012Y386219D01*
X412068Y386087D01*
X412137Y385963D01*
X412234Y385838D01*
X412248Y385824D01*
X412290Y385789D01*
X412352Y385734D01*
X412449Y385678D01*
X412567Y385609D01*
X412719Y385547D01*
X412893Y385491D01*
X413094Y385450D01*
X412955Y384666D01*
X412948D01*
X412921Y384673D01*
X412879Y384680D01*
X412823Y384694D01*
X412761Y384715D01*
X412685Y384735D01*
X412602Y384763D01*
X412511Y384798D01*
X412310Y384888D01*
X412213Y384936D01*
X412109Y384999D01*
X412012Y385068D01*
X411915Y385145D01*
X411818Y385228D01*
X411735Y385318D01*
X411728Y385325D01*
X411714Y385339D01*
X411693Y385373D01*
X411665Y385408D01*
X411631Y385463D01*
X411596Y385519D01*
X411555Y385588D01*
X411513Y385672D01*
X411478Y385755D01*
X411437Y385852D01*
X411402Y385956D01*
X411367Y386067D01*
X411340Y386192D01*
X411319Y386316D01*
X411305Y386448D01*
X411298Y386587D01*
Y386677D01*
X411305Y386726D01*
X411312Y386774D01*
X411326Y386906D01*
X411353Y387051D01*
X411395Y387218D01*
X411451Y387384D01*
X411527Y387551D01*
Y387558D01*
X411534Y387571D01*
X411548Y387592D01*
X411568Y387627D01*
X411617Y387703D01*
X411686Y387800D01*
X411777Y387911D01*
X411880Y388022D01*
X411998Y388133D01*
X412137Y388230D01*
X412144D01*
X412151Y388237D01*
X412179Y388251D01*
X412206Y388265D01*
X412241Y388286D01*
X412283Y388307D01*
X412387Y388348D01*
X412511Y388390D01*
X412650Y388431D01*
X412803Y388459D01*
X412962Y388466D01*
X412969D01*
X412983D01*
X413004D01*
X413032D01*
X413115Y388452D01*
X413212Y388438D01*
X413330Y388410D01*
X413455Y388369D01*
X413586Y388313D01*
X413718Y388237D01*
X413725D01*
X413732Y388230D01*
X413773Y388195D01*
X413836Y388147D01*
X413912Y388071D01*
X414002Y387981D01*
X414092Y387863D01*
X414176Y387731D01*
X414259Y387578D01*
Y387585D01*
X414266Y387606D01*
X414273Y387634D01*
X414287Y387676D01*
X414300Y387717D01*
X414321Y387773D01*
X414377Y387904D01*
X414453Y388043D01*
X414543Y388189D01*
X414661Y388334D01*
X414807Y388459D01*
X414814Y388466D01*
X414827Y388473D01*
X414848Y388487D01*
X414883Y388508D01*
X414918Y388535D01*
X414966Y388563D01*
X415022Y388591D01*
X415091Y388619D01*
X415160Y388646D01*
X415237Y388674D01*
X415410Y388730D01*
X415611Y388764D01*
X415722Y388778D01*
X415833D01*
X415840D01*
X415868D01*
X415916Y388771D01*
D02*
G37*
G36*
X417719Y383030D02*
X416388Y382184D01*
X416381Y382177D01*
X416360Y382170D01*
X416332Y382149D01*
X416291Y382121D01*
X416242Y382093D01*
X416187Y382052D01*
X416062Y381969D01*
X415916Y381872D01*
X415771Y381774D01*
X415632Y381670D01*
X415507Y381573D01*
X415500D01*
X415493Y381559D01*
X415458Y381532D01*
X415403Y381490D01*
X415341Y381428D01*
X415271Y381365D01*
X415202Y381289D01*
X415133Y381213D01*
X415084Y381143D01*
X415077Y381137D01*
X415063Y381109D01*
X415042Y381074D01*
X415015Y381026D01*
X414987Y380963D01*
X414959Y380901D01*
X414931Y380831D01*
X414911Y380755D01*
Y380748D01*
X414904Y380727D01*
X414897Y380693D01*
X414890Y380644D01*
Y380575D01*
X414883Y380492D01*
X414876Y380395D01*
Y379306D01*
X417719D01*
Y378460D01*
X411319D01*
Y381435D01*
X411326Y381511D01*
Y381587D01*
X411333Y381677D01*
X411340Y381781D01*
X411360Y381989D01*
X411395Y382204D01*
X411437Y382412D01*
X411464Y382503D01*
X411492Y382593D01*
Y382600D01*
X411499Y382613D01*
X411513Y382634D01*
X411527Y382669D01*
X411568Y382752D01*
X411631Y382849D01*
X411714Y382967D01*
X411825Y383085D01*
X411950Y383203D01*
X412102Y383307D01*
X412109D01*
X412123Y383321D01*
X412144Y383335D01*
X412179Y383349D01*
X412220Y383369D01*
X412269Y383390D01*
X412324Y383418D01*
X412387Y383446D01*
X412532Y383494D01*
X412692Y383536D01*
X412872Y383563D01*
X413066Y383577D01*
X413073D01*
X413094D01*
X413136D01*
X413177Y383570D01*
X413240Y383563D01*
X413309Y383557D01*
X413385Y383543D01*
X413468Y383522D01*
X413649Y383466D01*
X413746Y383432D01*
X413843Y383390D01*
X413940Y383342D01*
X414037Y383279D01*
X414127Y383210D01*
X414217Y383134D01*
X414224Y383127D01*
X414238Y383113D01*
X414259Y383085D01*
X414294Y383050D01*
X414328Y383002D01*
X414370Y382946D01*
X414418Y382877D01*
X414467Y382794D01*
X414515Y382704D01*
X414564Y382607D01*
X414613Y382496D01*
X414661Y382371D01*
X414703Y382239D01*
X414744Y382093D01*
X414779Y381934D01*
X414807Y381768D01*
Y381774D01*
X414814Y381781D01*
X414835Y381823D01*
X414869Y381885D01*
X414911Y381962D01*
X414959Y382045D01*
X415008Y382128D01*
X415070Y382211D01*
X415126Y382281D01*
X415133Y382288D01*
X415140Y382295D01*
X415160Y382315D01*
X415188Y382343D01*
X415223Y382378D01*
X415264Y382419D01*
X415362Y382509D01*
X415486Y382613D01*
X415632Y382731D01*
X415798Y382856D01*
X415979Y382981D01*
X417719Y384090D01*
Y383030D01*
D02*
G37*
G36*
X486410Y382116D02*
X483435D01*
X483359Y382123D01*
X483283D01*
X483193Y382130D01*
X483088Y382137D01*
X482881Y382157D01*
X482666Y382192D01*
X482458Y382234D01*
X482367Y382261D01*
X482277Y382289D01*
X482270D01*
X482256Y382296D01*
X482236Y382310D01*
X482201Y382324D01*
X482118Y382365D01*
X482021Y382428D01*
X481903Y382511D01*
X481785Y382622D01*
X481667Y382747D01*
X481563Y382899D01*
Y382906D01*
X481549Y382920D01*
X481535Y382941D01*
X481521Y382976D01*
X481501Y383017D01*
X481480Y383066D01*
X481452Y383121D01*
X481424Y383184D01*
X481376Y383329D01*
X481334Y383489D01*
X481306Y383669D01*
X481293Y383863D01*
Y383870D01*
Y383891D01*
Y383933D01*
X481300Y383974D01*
X481306Y384037D01*
X481313Y384106D01*
X481327Y384182D01*
X481348Y384265D01*
X481404Y384446D01*
X481438Y384543D01*
X481480Y384640D01*
X481528Y384737D01*
X481591Y384834D01*
X481660Y384924D01*
X481736Y385014D01*
X481743Y385021D01*
X481757Y385035D01*
X481785Y385056D01*
X481820Y385091D01*
X481868Y385125D01*
X481924Y385167D01*
X481993Y385215D01*
X482076Y385264D01*
X482166Y385312D01*
X482263Y385361D01*
X482374Y385410D01*
X482499Y385458D01*
X482631Y385500D01*
X482776Y385541D01*
X482936Y385576D01*
X483102Y385604D01*
X483096D01*
X483088Y385611D01*
X483047Y385631D01*
X482985Y385666D01*
X482908Y385708D01*
X482825Y385756D01*
X482742Y385805D01*
X482659Y385867D01*
X482589Y385923D01*
X482582Y385930D01*
X482575Y385937D01*
X482555Y385957D01*
X482527Y385985D01*
X482492Y386020D01*
X482451Y386061D01*
X482360Y386158D01*
X482256Y386283D01*
X482139Y386429D01*
X482014Y386595D01*
X481889Y386776D01*
X480779Y388516D01*
X481840D01*
X482686Y387185D01*
X482693Y387178D01*
X482700Y387157D01*
X482721Y387129D01*
X482749Y387088D01*
X482776Y387039D01*
X482818Y386984D01*
X482901Y386859D01*
X482998Y386713D01*
X483096Y386568D01*
X483200Y386429D01*
X483297Y386304D01*
Y386297D01*
X483310Y386290D01*
X483338Y386255D01*
X483380Y386200D01*
X483442Y386138D01*
X483505Y386068D01*
X483581Y385999D01*
X483657Y385930D01*
X483727Y385881D01*
X483733Y385874D01*
X483761Y385860D01*
X483796Y385840D01*
X483844Y385812D01*
X483907Y385784D01*
X483969Y385756D01*
X484039Y385728D01*
X484115Y385708D01*
X484122D01*
X484142Y385701D01*
X484177Y385694D01*
X484226Y385687D01*
X484295D01*
X484378Y385680D01*
X484475Y385673D01*
X485564D01*
Y388516D01*
X486410D01*
Y382116D01*
D02*
G37*
G36*
X478276Y388613D02*
X478346D01*
X478422Y388606D01*
X478519Y388592D01*
X478623Y388572D01*
X478734Y388551D01*
X478852Y388523D01*
X478977Y388481D01*
X479101Y388440D01*
X479233Y388384D01*
X479358Y388322D01*
X479483Y388246D01*
X479608Y388162D01*
X479719Y388065D01*
X479725Y388058D01*
X479746Y388038D01*
X479774Y388010D01*
X479809Y387961D01*
X479850Y387906D01*
X479899Y387843D01*
X479954Y387767D01*
X480003Y387677D01*
X480058Y387580D01*
X480114Y387476D01*
X480162Y387358D01*
X480204Y387240D01*
X480239Y387108D01*
X480266Y386963D01*
X480287Y386817D01*
X480294Y386665D01*
Y386658D01*
Y386637D01*
Y386602D01*
X480287Y386561D01*
Y386505D01*
X480280Y386443D01*
X480266Y386373D01*
X480252Y386297D01*
X480218Y386138D01*
X480162Y385964D01*
X480086Y385791D01*
X480037Y385708D01*
X479982Y385625D01*
X479975Y385618D01*
X479968Y385604D01*
X479947Y385583D01*
X479920Y385555D01*
X479892Y385521D01*
X479850Y385486D01*
X479802Y385437D01*
X479746Y385396D01*
X479621Y385299D01*
X479469Y385201D01*
X479289Y385118D01*
X479081Y385049D01*
X479087D01*
X479101Y385042D01*
X479129Y385028D01*
X479157Y385014D01*
X479198Y385000D01*
X479247Y384973D01*
X479351Y384917D01*
X479469Y384848D01*
X479587Y384758D01*
X479705Y384661D01*
X479802Y384543D01*
Y384536D01*
X479809Y384529D01*
X479823Y384508D01*
X479836Y384480D01*
X479878Y384411D01*
X479920Y384321D01*
X479961Y384203D01*
X480003Y384064D01*
X480031Y383912D01*
X480037Y383745D01*
Y383738D01*
Y383718D01*
X480031Y383676D01*
Y383628D01*
X480024Y383572D01*
X480010Y383503D01*
X479996Y383426D01*
X479975Y383336D01*
X479947Y383246D01*
X479913Y383156D01*
X479878Y383059D01*
X479829Y382955D01*
X479767Y382858D01*
X479705Y382761D01*
X479628Y382664D01*
X479538Y382574D01*
X479531Y382566D01*
X479517Y382553D01*
X479490Y382532D01*
X479448Y382497D01*
X479399Y382463D01*
X479337Y382421D01*
X479268Y382379D01*
X479185Y382331D01*
X479094Y382289D01*
X478990Y382248D01*
X478886Y382206D01*
X478769Y382171D01*
X478637Y382137D01*
X478505Y382116D01*
X478359Y382102D01*
X478207Y382095D01*
X478124D01*
X478068Y382102D01*
X477999Y382109D01*
X477916Y382123D01*
X477826Y382137D01*
X477721Y382157D01*
X477617Y382185D01*
X477506Y382213D01*
X477396Y382254D01*
X477285Y382303D01*
X477167Y382359D01*
X477063Y382428D01*
X476952Y382497D01*
X476855Y382587D01*
X476848Y382594D01*
X476834Y382608D01*
X476806Y382636D01*
X476772Y382671D01*
X476737Y382719D01*
X476695Y382775D01*
X476647Y382844D01*
X476598Y382913D01*
X476550Y382996D01*
X476501Y383087D01*
X476459Y383184D01*
X476425Y383288D01*
X476390Y383399D01*
X476362Y383517D01*
X476348Y383641D01*
X476342Y383766D01*
Y383773D01*
Y383787D01*
Y383808D01*
Y383842D01*
X476348Y383877D01*
X476355Y383926D01*
X476369Y384030D01*
X476397Y384147D01*
X476439Y384279D01*
X476501Y384411D01*
X476577Y384543D01*
Y384550D01*
X476591Y384557D01*
X476619Y384598D01*
X476674Y384654D01*
X476751Y384730D01*
X476855Y384806D01*
X476973Y384896D01*
X477118Y384973D01*
X477285Y385049D01*
X477278D01*
X477257Y385056D01*
X477229Y385070D01*
X477188Y385084D01*
X477139Y385104D01*
X477084Y385132D01*
X476952Y385201D01*
X476806Y385285D01*
X476660Y385396D01*
X476515Y385521D01*
X476390Y385673D01*
X476383Y385680D01*
X476376Y385694D01*
X476362Y385715D01*
X476342Y385749D01*
X476321Y385791D01*
X476293Y385840D01*
X476265Y385895D01*
X476231Y385957D01*
X476175Y386103D01*
X476127Y386276D01*
X476092Y386470D01*
X476078Y386575D01*
Y386685D01*
Y386692D01*
Y386720D01*
X476085Y386762D01*
Y386824D01*
X476099Y386894D01*
X476106Y386977D01*
X476127Y387067D01*
X476147Y387164D01*
X476182Y387275D01*
X476217Y387386D01*
X476265Y387497D01*
X476321Y387615D01*
X476390Y387733D01*
X476466Y387843D01*
X476557Y387961D01*
X476660Y388065D01*
X476668Y388072D01*
X476688Y388086D01*
X476723Y388114D01*
X476765Y388149D01*
X476827Y388197D01*
X476896Y388239D01*
X476979Y388294D01*
X477070Y388343D01*
X477174Y388391D01*
X477292Y388447D01*
X477416Y388488D01*
X477548Y388530D01*
X477694Y388572D01*
X477846Y388599D01*
X478013Y388613D01*
X478186Y388620D01*
X478228D01*
X478276Y388613D01*
D02*
G37*
G36*
X468630Y356820D02*
X465655D01*
X465579Y356827D01*
X465503D01*
X465413Y356834D01*
X465309Y356841D01*
X465101Y356861D01*
X464886Y356896D01*
X464678Y356938D01*
X464588Y356965D01*
X464497Y356993D01*
X464490D01*
X464477Y357000D01*
X464456Y357014D01*
X464421Y357028D01*
X464338Y357070D01*
X464241Y357132D01*
X464123Y357215D01*
X464005Y357326D01*
X463887Y357451D01*
X463783Y357603D01*
Y357610D01*
X463769Y357624D01*
X463755Y357645D01*
X463741Y357680D01*
X463721Y357721D01*
X463700Y357770D01*
X463672Y357825D01*
X463644Y357888D01*
X463596Y358033D01*
X463554Y358193D01*
X463526Y358373D01*
X463513Y358567D01*
Y358574D01*
Y358595D01*
Y358637D01*
X463520Y358678D01*
X463526Y358741D01*
X463534Y358810D01*
X463547Y358886D01*
X463568Y358969D01*
X463624Y359150D01*
X463658Y359247D01*
X463700Y359344D01*
X463748Y359441D01*
X463811Y359538D01*
X463880Y359628D01*
X463956Y359718D01*
X463963Y359725D01*
X463977Y359739D01*
X464005Y359760D01*
X464040Y359795D01*
X464088Y359829D01*
X464144Y359871D01*
X464213Y359919D01*
X464296Y359968D01*
X464386Y360017D01*
X464483Y360065D01*
X464594Y360114D01*
X464719Y360162D01*
X464851Y360204D01*
X464997Y360245D01*
X465156Y360280D01*
X465322Y360308D01*
X465316D01*
X465309Y360315D01*
X465267Y360336D01*
X465205Y360370D01*
X465128Y360412D01*
X465045Y360460D01*
X464962Y360509D01*
X464879Y360571D01*
X464809Y360627D01*
X464802Y360634D01*
X464795Y360641D01*
X464775Y360661D01*
X464747Y360689D01*
X464712Y360724D01*
X464671Y360765D01*
X464580Y360863D01*
X464477Y360987D01*
X464359Y361133D01*
X464234Y361299D01*
X464109Y361480D01*
X462999Y363220D01*
X464061D01*
X464906Y361889D01*
X464913Y361882D01*
X464920Y361861D01*
X464941Y361833D01*
X464969Y361792D01*
X464997Y361743D01*
X465038Y361688D01*
X465121Y361563D01*
X465219Y361417D01*
X465316Y361272D01*
X465420Y361133D01*
X465517Y361008D01*
Y361001D01*
X465531Y360994D01*
X465558Y360960D01*
X465600Y360904D01*
X465662Y360842D01*
X465725Y360772D01*
X465801Y360703D01*
X465877Y360634D01*
X465947Y360585D01*
X465953Y360578D01*
X465981Y360564D01*
X466016Y360544D01*
X466064Y360516D01*
X466127Y360488D01*
X466189Y360460D01*
X466259Y360433D01*
X466335Y360412D01*
X466342D01*
X466363Y360405D01*
X466397Y360398D01*
X466446Y360391D01*
X466515D01*
X466598Y360384D01*
X466696Y360377D01*
X467784D01*
Y363220D01*
X468630D01*
Y356820D01*
D02*
G37*
G36*
X461557Y363213D02*
Y363185D01*
Y363144D01*
X461550Y363088D01*
X461543Y363012D01*
X461536Y362929D01*
X461530Y362825D01*
X461516Y362714D01*
X461502Y362582D01*
X461481Y362450D01*
X461460Y362298D01*
X461432Y362138D01*
X461398Y361965D01*
X461363Y361785D01*
X461315Y361598D01*
X461266Y361403D01*
X461259Y361390D01*
X461252Y361355D01*
X461238Y361299D01*
X461211Y361223D01*
X461183Y361126D01*
X461148Y361008D01*
X461106Y360883D01*
X461058Y360745D01*
X461003Y360592D01*
X460940Y360426D01*
X460878Y360252D01*
X460801Y360079D01*
X460642Y359711D01*
X460455Y359337D01*
X460448Y359323D01*
X460427Y359295D01*
X460399Y359240D01*
X460364Y359170D01*
X460309Y359087D01*
X460254Y358990D01*
X460184Y358879D01*
X460115Y358755D01*
X460032Y358630D01*
X459941Y358491D01*
X459747Y358214D01*
X459539Y357929D01*
X459428Y357791D01*
X459318Y357659D01*
X462452D01*
Y356903D01*
X458312D01*
Y357520D01*
X458319Y357527D01*
X458340Y357548D01*
X458374Y357589D01*
X458416Y357638D01*
X458471Y357707D01*
X458541Y357784D01*
X458610Y357874D01*
X458693Y357978D01*
X458783Y358096D01*
X458881Y358228D01*
X458985Y358373D01*
X459089Y358526D01*
X459193Y358685D01*
X459304Y358865D01*
X459422Y359053D01*
X459532Y359247D01*
X459539Y359261D01*
X459560Y359295D01*
X459588Y359351D01*
X459630Y359434D01*
X459678Y359531D01*
X459740Y359649D01*
X459803Y359781D01*
X459872Y359926D01*
X459941Y360086D01*
X460018Y360259D01*
X460094Y360446D01*
X460170Y360634D01*
X460247Y360835D01*
X460323Y361043D01*
X460455Y361466D01*
Y361473D01*
X460462Y361500D01*
X460476Y361549D01*
X460489Y361604D01*
X460510Y361681D01*
X460531Y361771D01*
X460559Y361875D01*
X460579Y361986D01*
X460607Y362111D01*
X460628Y362249D01*
X460656Y362395D01*
X460677Y362547D01*
X460704Y362707D01*
X460725Y362873D01*
X460753Y363220D01*
X461557D01*
Y363213D01*
D02*
G37*
G36*
X453502Y382116D02*
X450527D01*
X450451Y382123D01*
X450375D01*
X450285Y382130D01*
X450181Y382137D01*
X449973Y382157D01*
X449758Y382192D01*
X449550Y382234D01*
X449460Y382261D01*
X449370Y382289D01*
X449363D01*
X449349Y382296D01*
X449328Y382310D01*
X449293Y382324D01*
X449210Y382365D01*
X449113Y382428D01*
X448995Y382511D01*
X448877Y382622D01*
X448759Y382747D01*
X448655Y382899D01*
Y382906D01*
X448641Y382920D01*
X448628Y382941D01*
X448614Y382976D01*
X448593Y383017D01*
X448572Y383066D01*
X448544Y383121D01*
X448517Y383184D01*
X448468Y383329D01*
X448426Y383489D01*
X448399Y383669D01*
X448385Y383863D01*
Y383870D01*
Y383891D01*
Y383933D01*
X448392Y383974D01*
X448399Y384037D01*
X448406Y384106D01*
X448419Y384182D01*
X448440Y384265D01*
X448496Y384446D01*
X448530Y384543D01*
X448572Y384640D01*
X448621Y384737D01*
X448683Y384834D01*
X448752Y384924D01*
X448829Y385014D01*
X448836Y385021D01*
X448849Y385035D01*
X448877Y385056D01*
X448912Y385091D01*
X448960Y385125D01*
X449016Y385167D01*
X449085Y385215D01*
X449168Y385264D01*
X449258Y385312D01*
X449356Y385361D01*
X449467Y385410D01*
X449591Y385458D01*
X449723Y385500D01*
X449869Y385541D01*
X450028Y385576D01*
X450195Y385604D01*
X450188D01*
X450181Y385611D01*
X450139Y385631D01*
X450077Y385666D01*
X450000Y385708D01*
X449917Y385756D01*
X449834Y385805D01*
X449751Y385867D01*
X449682Y385923D01*
X449675Y385930D01*
X449668Y385937D01*
X449647Y385957D01*
X449619Y385985D01*
X449584Y386020D01*
X449543Y386061D01*
X449453Y386158D01*
X449349Y386283D01*
X449231Y386429D01*
X449106Y386595D01*
X448981Y386776D01*
X447872Y388516D01*
X448933D01*
X449779Y387185D01*
X449785Y387178D01*
X449793Y387157D01*
X449813Y387129D01*
X449841Y387088D01*
X449869Y387039D01*
X449910Y386984D01*
X449994Y386859D01*
X450091Y386713D01*
X450188Y386568D01*
X450292Y386429D01*
X450389Y386304D01*
Y386297D01*
X450403Y386290D01*
X450430Y386255D01*
X450472Y386200D01*
X450534Y386138D01*
X450597Y386068D01*
X450673Y385999D01*
X450749Y385930D01*
X450819Y385881D01*
X450826Y385874D01*
X450853Y385860D01*
X450888Y385840D01*
X450937Y385812D01*
X450999Y385784D01*
X451061Y385756D01*
X451131Y385728D01*
X451207Y385708D01*
X451214D01*
X451235Y385701D01*
X451269Y385694D01*
X451318Y385687D01*
X451387D01*
X451470Y385680D01*
X451568Y385673D01*
X452656D01*
Y388516D01*
X453502D01*
Y382116D01*
D02*
G37*
G36*
X445292Y388613D02*
X445362Y388606D01*
X445445Y388599D01*
X445542Y388578D01*
X445646Y388558D01*
X445764Y388530D01*
X445888Y388488D01*
X446020Y388447D01*
X446152Y388384D01*
X446284Y388315D01*
X446422Y388232D01*
X446547Y388135D01*
X446679Y388024D01*
X446797Y387899D01*
X446804Y387892D01*
X446825Y387864D01*
X446852Y387823D01*
X446894Y387760D01*
X446942Y387684D01*
X446991Y387587D01*
X447047Y387469D01*
X447102Y387330D01*
X447164Y387178D01*
X447220Y387004D01*
X447268Y386810D01*
X447317Y386595D01*
X447359Y386359D01*
X447386Y386103D01*
X447407Y385826D01*
X447414Y385527D01*
Y385521D01*
Y385507D01*
Y385479D01*
Y385444D01*
Y385403D01*
X447407Y385347D01*
Y385292D01*
X447400Y385222D01*
X447393Y385070D01*
X447379Y384896D01*
X447359Y384702D01*
X447331Y384494D01*
X447289Y384272D01*
X447248Y384050D01*
X447192Y383829D01*
X447123Y383607D01*
X447047Y383392D01*
X446956Y383184D01*
X446845Y382996D01*
X446728Y382830D01*
X446721Y382823D01*
X446700Y382795D01*
X446665Y382761D01*
X446617Y382712D01*
X446561Y382657D01*
X446485Y382594D01*
X446402Y382532D01*
X446305Y382463D01*
X446194Y382393D01*
X446069Y382331D01*
X445937Y382268D01*
X445791Y382213D01*
X445639Y382164D01*
X445472Y382130D01*
X445299Y382102D01*
X445112Y382095D01*
X445036D01*
X444987Y382102D01*
X444925Y382109D01*
X444848Y382116D01*
X444765Y382130D01*
X444675Y382150D01*
X444474Y382199D01*
X444377Y382234D01*
X444266Y382275D01*
X444162Y382324D01*
X444065Y382386D01*
X443968Y382449D01*
X443871Y382525D01*
X443864Y382532D01*
X443850Y382546D01*
X443822Y382566D01*
X443794Y382601D01*
X443753Y382643D01*
X443711Y382698D01*
X443663Y382761D01*
X443614Y382830D01*
X443566Y382906D01*
X443517Y382996D01*
X443469Y383093D01*
X443420Y383198D01*
X443378Y383308D01*
X443344Y383426D01*
X443309Y383551D01*
X443288Y383690D01*
X444072Y383752D01*
Y383745D01*
X444079Y383731D01*
X444086Y383711D01*
X444093Y383676D01*
X444113Y383593D01*
X444148Y383496D01*
X444190Y383385D01*
X444245Y383274D01*
X444301Y383170D01*
X444370Y383080D01*
X444377Y383073D01*
X444384Y383066D01*
X444405Y383045D01*
X444425Y383024D01*
X444495Y382969D01*
X444592Y382906D01*
X444703Y382844D01*
X444841Y382795D01*
X444994Y382754D01*
X445077Y382747D01*
X445160Y382740D01*
X445223D01*
X445299Y382754D01*
X445389Y382768D01*
X445493Y382795D01*
X445604Y382830D01*
X445715Y382886D01*
X445826Y382955D01*
X445833D01*
X445840Y382969D01*
X445861Y382983D01*
X445888Y383003D01*
X445951Y383066D01*
X446034Y383156D01*
X446131Y383267D01*
X446228Y383406D01*
X446318Y383565D01*
X446409Y383745D01*
Y383752D01*
X446415Y383766D01*
X446429Y383801D01*
X446443Y383842D01*
X446457Y383891D01*
X446478Y383960D01*
X446499Y384037D01*
X446520Y384120D01*
X446540Y384217D01*
X446554Y384328D01*
X446575Y384453D01*
X446596Y384584D01*
X446610Y384723D01*
X446617Y384876D01*
X446623Y385042D01*
X446630Y385208D01*
X446617Y385195D01*
X446603Y385174D01*
X446582Y385146D01*
X446520Y385070D01*
X446443Y384973D01*
X446339Y384869D01*
X446221Y384765D01*
X446090Y384668D01*
X445944Y384577D01*
X445937D01*
X445923Y384571D01*
X445902Y384557D01*
X445875Y384543D01*
X445833Y384529D01*
X445791Y384508D01*
X445681Y384467D01*
X445549Y384432D01*
X445403Y384397D01*
X445244Y384369D01*
X445077Y384362D01*
X445042D01*
X445001Y384369D01*
X444945D01*
X444876Y384383D01*
X444800Y384390D01*
X444710Y384411D01*
X444613Y384432D01*
X444515Y384467D01*
X444405Y384501D01*
X444294Y384550D01*
X444183Y384605D01*
X444065Y384674D01*
X443954Y384751D01*
X443843Y384841D01*
X443739Y384945D01*
X443732Y384952D01*
X443718Y384973D01*
X443690Y385000D01*
X443649Y385049D01*
X443607Y385104D01*
X443566Y385174D01*
X443510Y385257D01*
X443461Y385347D01*
X443413Y385451D01*
X443358Y385562D01*
X443316Y385687D01*
X443267Y385819D01*
X443233Y385957D01*
X443205Y386110D01*
X443191Y386269D01*
X443184Y386436D01*
Y386443D01*
Y386464D01*
Y386491D01*
X443191Y386540D01*
Y386588D01*
X443198Y386651D01*
X443205Y386727D01*
X443219Y386803D01*
X443247Y386977D01*
X443295Y387164D01*
X443358Y387358D01*
X443448Y387559D01*
Y387566D01*
X443461Y387580D01*
X443475Y387608D01*
X443496Y387642D01*
X443524Y387684D01*
X443552Y387733D01*
X443635Y387850D01*
X443732Y387975D01*
X443857Y388107D01*
X444002Y388239D01*
X444162Y388350D01*
X444169D01*
X444183Y388363D01*
X444210Y388377D01*
X444245Y388391D01*
X444287Y388412D01*
X444335Y388433D01*
X444398Y388461D01*
X444460Y388481D01*
X444613Y388537D01*
X444793Y388578D01*
X444987Y388606D01*
X445195Y388620D01*
X445237D01*
X445292Y388613D01*
D02*
G37*
G36*
X367030Y326340D02*
X364055D01*
X363979Y326347D01*
X363903D01*
X363813Y326354D01*
X363709Y326361D01*
X363501Y326381D01*
X363286Y326416D01*
X363078Y326458D01*
X362988Y326485D01*
X362897Y326513D01*
X362890D01*
X362877Y326520D01*
X362856Y326534D01*
X362821Y326548D01*
X362738Y326590D01*
X362641Y326652D01*
X362523Y326735D01*
X362405Y326846D01*
X362287Y326971D01*
X362183Y327123D01*
Y327130D01*
X362169Y327144D01*
X362155Y327165D01*
X362141Y327200D01*
X362121Y327241D01*
X362100Y327290D01*
X362072Y327345D01*
X362044Y327408D01*
X361996Y327553D01*
X361954Y327713D01*
X361926Y327893D01*
X361913Y328087D01*
Y328094D01*
Y328115D01*
Y328157D01*
X361920Y328198D01*
X361926Y328261D01*
X361934Y328330D01*
X361947Y328406D01*
X361968Y328489D01*
X362024Y328670D01*
X362058Y328767D01*
X362100Y328864D01*
X362148Y328961D01*
X362211Y329058D01*
X362280Y329148D01*
X362356Y329238D01*
X362363Y329245D01*
X362377Y329259D01*
X362405Y329280D01*
X362440Y329315D01*
X362488Y329349D01*
X362544Y329391D01*
X362613Y329439D01*
X362696Y329488D01*
X362786Y329537D01*
X362883Y329585D01*
X362994Y329634D01*
X363119Y329682D01*
X363251Y329724D01*
X363397Y329765D01*
X363556Y329800D01*
X363722Y329828D01*
X363716D01*
X363709Y329835D01*
X363667Y329855D01*
X363605Y329890D01*
X363528Y329932D01*
X363445Y329980D01*
X363362Y330029D01*
X363279Y330091D01*
X363209Y330147D01*
X363202Y330154D01*
X363195Y330161D01*
X363175Y330181D01*
X363147Y330209D01*
X363112Y330244D01*
X363071Y330285D01*
X362980Y330382D01*
X362877Y330507D01*
X362759Y330653D01*
X362634Y330819D01*
X362509Y331000D01*
X361399Y332740D01*
X362461D01*
X363306Y331409D01*
X363313Y331402D01*
X363320Y331381D01*
X363341Y331353D01*
X363369Y331312D01*
X363397Y331263D01*
X363438Y331208D01*
X363521Y331083D01*
X363619Y330937D01*
X363716Y330792D01*
X363820Y330653D01*
X363917Y330528D01*
Y330521D01*
X363931Y330514D01*
X363958Y330480D01*
X364000Y330424D01*
X364062Y330362D01*
X364125Y330292D01*
X364201Y330223D01*
X364277Y330154D01*
X364347Y330105D01*
X364353Y330098D01*
X364381Y330084D01*
X364416Y330064D01*
X364464Y330036D01*
X364527Y330008D01*
X364589Y329980D01*
X364659Y329953D01*
X364735Y329932D01*
X364742D01*
X364763Y329925D01*
X364797Y329918D01*
X364846Y329911D01*
X364915D01*
X364998Y329904D01*
X365095Y329897D01*
X366184D01*
Y332740D01*
X367030D01*
Y326340D01*
D02*
G37*
G36*
X361011Y332726D02*
Y332692D01*
Y332636D01*
X361004Y332567D01*
X360997Y332483D01*
X360976Y332393D01*
X360956Y332296D01*
X360921Y332199D01*
Y332192D01*
X360914Y332178D01*
X360907Y332158D01*
X360893Y332123D01*
X360872Y332088D01*
X360852Y332040D01*
X360796Y331929D01*
X360727Y331797D01*
X360637Y331651D01*
X360533Y331499D01*
X360408Y331346D01*
X360401Y331339D01*
X360394Y331325D01*
X360373Y331305D01*
X360339Y331270D01*
X360304Y331235D01*
X360255Y331187D01*
X360207Y331131D01*
X360144Y331069D01*
X360075Y331000D01*
X359999Y330930D01*
X359916Y330847D01*
X359818Y330764D01*
X359721Y330674D01*
X359610Y330584D01*
X359500Y330486D01*
X359375Y330382D01*
X359361Y330376D01*
X359326Y330341D01*
X359278Y330299D01*
X359208Y330237D01*
X359125Y330168D01*
X359028Y330084D01*
X358917Y329994D01*
X358806Y329890D01*
X358570Y329675D01*
X358341Y329446D01*
X358231Y329335D01*
X358127Y329225D01*
X358036Y329120D01*
X357960Y329023D01*
X357953Y329016D01*
X357946Y329003D01*
X357925Y328975D01*
X357905Y328940D01*
X357870Y328892D01*
X357842Y328843D01*
X357773Y328718D01*
X357704Y328573D01*
X357641Y328413D01*
X357600Y328247D01*
X357593Y328163D01*
X357586Y328080D01*
Y328073D01*
Y328060D01*
Y328032D01*
X357593Y328004D01*
Y327962D01*
X357607Y327914D01*
X357627Y327810D01*
X357669Y327685D01*
X357731Y327553D01*
X357766Y327484D01*
X357814Y327422D01*
X357863Y327359D01*
X357925Y327297D01*
X357932Y327290D01*
X357939Y327283D01*
X357960Y327269D01*
X357988Y327248D01*
X358023Y327220D01*
X358064Y327193D01*
X358161Y327130D01*
X358293Y327075D01*
X358439Y327019D01*
X358612Y326985D01*
X358709Y326971D01*
X358862D01*
X358903Y326978D01*
X358952D01*
X359007Y326992D01*
X359132Y327012D01*
X359278Y327054D01*
X359430Y327117D01*
X359506Y327158D01*
X359583Y327200D01*
X359652Y327255D01*
X359721Y327318D01*
X359728Y327324D01*
X359735Y327331D01*
X359749Y327352D01*
X359777Y327380D01*
X359798Y327415D01*
X359826Y327456D01*
X359860Y327505D01*
X359888Y327560D01*
X359922Y327623D01*
X359950Y327692D01*
X360006Y327858D01*
X360047Y328039D01*
X360054Y328143D01*
X360061Y328254D01*
X360866Y328171D01*
Y328157D01*
X360859Y328129D01*
X360852Y328087D01*
X360845Y328025D01*
X360831Y327949D01*
X360810Y327858D01*
X360789Y327761D01*
X360755Y327657D01*
X360720Y327553D01*
X360678Y327435D01*
X360623Y327324D01*
X360567Y327214D01*
X360498Y327096D01*
X360422Y326992D01*
X360339Y326888D01*
X360242Y326797D01*
X360235Y326791D01*
X360214Y326777D01*
X360186Y326756D01*
X360144Y326721D01*
X360089Y326687D01*
X360020Y326645D01*
X359943Y326603D01*
X359853Y326555D01*
X359756Y326513D01*
X359645Y326472D01*
X359527Y326430D01*
X359395Y326395D01*
X359257Y326361D01*
X359111Y326340D01*
X358952Y326326D01*
X358785Y326319D01*
X358695D01*
X358633Y326326D01*
X358557Y326333D01*
X358466Y326347D01*
X358362Y326361D01*
X358258Y326381D01*
X358140Y326409D01*
X358023Y326444D01*
X357898Y326485D01*
X357780Y326534D01*
X357655Y326596D01*
X357537Y326666D01*
X357426Y326742D01*
X357322Y326832D01*
X357315Y326839D01*
X357301Y326853D01*
X357274Y326888D01*
X357239Y326922D01*
X357197Y326971D01*
X357149Y327033D01*
X357100Y327103D01*
X357052Y327186D01*
X357003Y327269D01*
X356955Y327366D01*
X356906Y327470D01*
X356865Y327581D01*
X356830Y327706D01*
X356802Y327831D01*
X356788Y327962D01*
X356781Y328101D01*
Y328108D01*
Y328115D01*
Y328136D01*
Y328163D01*
X356788Y328240D01*
X356802Y328337D01*
X356823Y328455D01*
X356851Y328580D01*
X356885Y328718D01*
X356941Y328857D01*
Y328864D01*
X356948Y328871D01*
X356955Y328892D01*
X356969Y328919D01*
X357010Y328996D01*
X357066Y329093D01*
X357142Y329211D01*
X357232Y329342D01*
X357336Y329481D01*
X357468Y329634D01*
X357475Y329641D01*
X357482Y329654D01*
X357509Y329675D01*
X357537Y329710D01*
X357579Y329752D01*
X357627Y329800D01*
X357683Y329862D01*
X357752Y329925D01*
X357835Y330001D01*
X357925Y330084D01*
X358023Y330181D01*
X358134Y330279D01*
X358251Y330389D01*
X358383Y330500D01*
X358529Y330625D01*
X358681Y330757D01*
X358688Y330764D01*
X358709Y330785D01*
X358751Y330812D01*
X358792Y330854D01*
X358855Y330902D01*
X358917Y330958D01*
X359063Y331083D01*
X359215Y331215D01*
X359361Y331353D01*
X359430Y331416D01*
X359493Y331471D01*
X359548Y331527D01*
X359590Y331568D01*
X359597Y331575D01*
X359624Y331603D01*
X359659Y331645D01*
X359708Y331700D01*
X359763Y331762D01*
X359818Y331832D01*
X359930Y331984D01*
X356774D01*
Y332740D01*
X361011D01*
Y332726D01*
D02*
G37*
G36*
X367030Y303480D02*
X364055D01*
X363979Y303487D01*
X363903D01*
X363813Y303494D01*
X363709Y303501D01*
X363501Y303521D01*
X363286Y303556D01*
X363078Y303598D01*
X362988Y303626D01*
X362897Y303653D01*
X362890D01*
X362877Y303660D01*
X362856Y303674D01*
X362821Y303688D01*
X362738Y303729D01*
X362641Y303792D01*
X362523Y303875D01*
X362405Y303986D01*
X362287Y304111D01*
X362183Y304263D01*
Y304270D01*
X362169Y304284D01*
X362155Y304305D01*
X362141Y304340D01*
X362121Y304381D01*
X362100Y304430D01*
X362072Y304485D01*
X362044Y304548D01*
X361996Y304693D01*
X361954Y304853D01*
X361926Y305033D01*
X361913Y305227D01*
Y305234D01*
Y305255D01*
Y305297D01*
X361920Y305338D01*
X361926Y305401D01*
X361934Y305470D01*
X361947Y305546D01*
X361968Y305629D01*
X362024Y305810D01*
X362058Y305907D01*
X362100Y306004D01*
X362148Y306101D01*
X362211Y306198D01*
X362280Y306288D01*
X362356Y306378D01*
X362363Y306385D01*
X362377Y306399D01*
X362405Y306420D01*
X362440Y306455D01*
X362488Y306489D01*
X362544Y306531D01*
X362613Y306579D01*
X362696Y306628D01*
X362786Y306677D01*
X362883Y306725D01*
X362994Y306774D01*
X363119Y306822D01*
X363251Y306864D01*
X363397Y306905D01*
X363556Y306940D01*
X363722Y306968D01*
X363716D01*
X363709Y306975D01*
X363667Y306996D01*
X363605Y307030D01*
X363528Y307072D01*
X363445Y307120D01*
X363362Y307169D01*
X363279Y307231D01*
X363209Y307287D01*
X363202Y307294D01*
X363195Y307301D01*
X363175Y307321D01*
X363147Y307349D01*
X363112Y307384D01*
X363071Y307425D01*
X362980Y307523D01*
X362877Y307647D01*
X362759Y307793D01*
X362634Y307959D01*
X362509Y308140D01*
X361399Y309880D01*
X362461D01*
X363306Y308549D01*
X363313Y308542D01*
X363320Y308521D01*
X363341Y308493D01*
X363369Y308452D01*
X363397Y308403D01*
X363438Y308348D01*
X363521Y308223D01*
X363619Y308077D01*
X363716Y307932D01*
X363820Y307793D01*
X363917Y307668D01*
Y307661D01*
X363931Y307654D01*
X363958Y307620D01*
X364000Y307564D01*
X364062Y307502D01*
X364125Y307432D01*
X364201Y307363D01*
X364277Y307294D01*
X364347Y307245D01*
X364353Y307238D01*
X364381Y307224D01*
X364416Y307204D01*
X364464Y307176D01*
X364527Y307148D01*
X364589Y307120D01*
X364659Y307093D01*
X364735Y307072D01*
X364742D01*
X364763Y307065D01*
X364797Y307058D01*
X364846Y307051D01*
X364915D01*
X364998Y307044D01*
X365095Y307037D01*
X366184D01*
Y309880D01*
X367030D01*
Y303480D01*
D02*
G37*
G36*
X358730Y304881D02*
X358744Y304894D01*
X358778Y304929D01*
X358841Y304978D01*
X358931Y305047D01*
X359035Y305130D01*
X359167Y305220D01*
X359312Y305317D01*
X359479Y305421D01*
X359486D01*
X359500Y305435D01*
X359520Y305449D01*
X359555Y305463D01*
X359597Y305491D01*
X359645Y305512D01*
X359756Y305574D01*
X359881Y305636D01*
X360020Y305706D01*
X360165Y305768D01*
X360304Y305824D01*
Y305068D01*
X360297Y305061D01*
X360276Y305054D01*
X360242Y305033D01*
X360193Y305012D01*
X360137Y304985D01*
X360068Y304943D01*
X359992Y304901D01*
X359916Y304860D01*
X359735Y304749D01*
X359541Y304617D01*
X359340Y304478D01*
X359153Y304319D01*
X359146Y304312D01*
X359132Y304298D01*
X359104Y304277D01*
X359070Y304243D01*
X359035Y304201D01*
X358986Y304159D01*
X358882Y304042D01*
X358764Y303917D01*
X358647Y303771D01*
X358543Y303619D01*
X358452Y303459D01*
X357946D01*
Y309880D01*
X358730D01*
Y304881D01*
D02*
G37*
%LPC*%
G36*
X322266Y325384D02*
X322259D01*
X322224D01*
X322176D01*
X322113Y325377D01*
X322044Y325370D01*
X321954Y325363D01*
X321857Y325356D01*
X321760Y325335D01*
X321538Y325294D01*
X321316Y325231D01*
X321212Y325190D01*
X321115Y325141D01*
X321018Y325086D01*
X320935Y325023D01*
X320928Y325016D01*
X320914Y325009D01*
X320893Y324989D01*
X320872Y324961D01*
X320838Y324919D01*
X320803Y324878D01*
X320727Y324774D01*
X320650Y324642D01*
X320581Y324489D01*
X320560Y324399D01*
X320539Y324309D01*
X320525Y324212D01*
X320518Y324115D01*
Y324059D01*
X320525Y324025D01*
X320532Y323976D01*
X320539Y323921D01*
X320574Y323796D01*
X320622Y323657D01*
X320657Y323581D01*
X320692Y323505D01*
X320740Y323428D01*
X320796Y323352D01*
X320858Y323276D01*
X320935Y323206D01*
X320942Y323200D01*
X320955Y323193D01*
X320976Y323172D01*
X321011Y323151D01*
X321059Y323123D01*
X321115Y323089D01*
X321177Y323054D01*
X321254Y323019D01*
X321337Y322991D01*
X321434Y322957D01*
X321545Y322922D01*
X321663Y322895D01*
X321787Y322874D01*
X321926Y322853D01*
X322079Y322846D01*
X322238Y322839D01*
X322245D01*
X322273D01*
X322321D01*
X322377Y322846D01*
X322446Y322853D01*
X322529Y322860D01*
X322620Y322874D01*
X322717Y322887D01*
X322925Y322929D01*
X323140Y322999D01*
X323244Y323040D01*
X323341Y323096D01*
X323438Y323151D01*
X323521Y323220D01*
X323528Y323227D01*
X323542Y323234D01*
X323563Y323255D01*
X323590Y323290D01*
X323625Y323324D01*
X323660Y323366D01*
X323743Y323477D01*
X323819Y323609D01*
X323889Y323761D01*
X323916Y323844D01*
X323937Y323935D01*
X323951Y324032D01*
X323958Y324129D01*
Y324177D01*
X323951Y324219D01*
X323944Y324260D01*
X323937Y324316D01*
X323902Y324441D01*
X323854Y324580D01*
X323819Y324656D01*
X323778Y324725D01*
X323729Y324801D01*
X323667Y324878D01*
X323604Y324954D01*
X323528Y325023D01*
X323521Y325030D01*
X323507Y325037D01*
X323486Y325058D01*
X323452Y325079D01*
X323403Y325107D01*
X323348Y325134D01*
X323285Y325169D01*
X323209Y325204D01*
X323126Y325238D01*
X323036Y325273D01*
X322932Y325301D01*
X322821Y325328D01*
X322696Y325349D01*
X322564Y325370D01*
X322419Y325377D01*
X322266Y325384D01*
D02*
G37*
G36*
X552773Y325666D02*
X552766D01*
X552752D01*
X552732D01*
X552697Y325659D01*
X552662D01*
X552614Y325652D01*
X552510Y325624D01*
X552392Y325583D01*
X552267Y325527D01*
X552149Y325444D01*
X552087Y325388D01*
X552031Y325333D01*
X552024Y325326D01*
X552017Y325319D01*
X552004Y325298D01*
X551983Y325271D01*
X551962Y325236D01*
X551934Y325187D01*
X551906Y325139D01*
X551879Y325076D01*
X551851Y325007D01*
X551830Y324931D01*
X551802Y324848D01*
X551782Y324757D01*
X551761Y324653D01*
X551747Y324543D01*
X551733Y324425D01*
Y322268D01*
X553848D01*
Y324182D01*
X553841Y324230D01*
Y324286D01*
X553834Y324418D01*
X553820Y324563D01*
X553800Y324716D01*
X553772Y324861D01*
X553730Y324993D01*
Y325000D01*
X553723Y325007D01*
X553709Y325049D01*
X553682Y325104D01*
X553640Y325180D01*
X553585Y325257D01*
X553522Y325340D01*
X553439Y325423D01*
X553349Y325493D01*
X553335Y325499D01*
X553300Y325520D01*
X553252Y325548D01*
X553175Y325583D01*
X553092Y325610D01*
X552995Y325638D01*
X552884Y325659D01*
X552773Y325666D01*
D02*
G37*
G36*
X600650Y421650D02*
X600643D01*
X600629D01*
X600608D01*
X600573Y421643D01*
X600539D01*
X600490Y421636D01*
X600386Y421608D01*
X600268Y421567D01*
X600143Y421511D01*
X600025Y421428D01*
X599963Y421373D01*
X599908Y421317D01*
X599901Y421310D01*
X599894Y421303D01*
X599880Y421282D01*
X599859Y421255D01*
X599838Y421220D01*
X599810Y421171D01*
X599783Y421123D01*
X599755Y421060D01*
X599727Y420991D01*
X599706Y420915D01*
X599679Y420832D01*
X599658Y420742D01*
X599637Y420638D01*
X599623Y420527D01*
X599609Y420409D01*
Y418252D01*
X601724D01*
Y420166D01*
X601717Y420215D01*
Y420270D01*
X601711Y420402D01*
X601697Y420547D01*
X601676Y420700D01*
X601648Y420846D01*
X601606Y420977D01*
Y420984D01*
X601600Y420991D01*
X601586Y421033D01*
X601558Y421088D01*
X601516Y421165D01*
X601461Y421241D01*
X601399Y421324D01*
X601315Y421407D01*
X601225Y421477D01*
X601211Y421483D01*
X601177Y421504D01*
X601128Y421532D01*
X601052Y421567D01*
X600969Y421595D01*
X600872Y421622D01*
X600760Y421643D01*
X600650Y421650D01*
D02*
G37*
G36*
X600781Y407005D02*
X600774D01*
X600760D01*
X600740D01*
X600712D01*
X600636Y406991D01*
X600546Y406977D01*
X600435Y406956D01*
X600324Y406915D01*
X600206Y406866D01*
X600095Y406797D01*
X600081Y406790D01*
X600046Y406762D01*
X599998Y406714D01*
X599942Y406658D01*
X599880Y406575D01*
X599818Y406485D01*
X599762Y406381D01*
X599720Y406263D01*
Y406256D01*
X599714Y406221D01*
X599700Y406166D01*
X599686Y406083D01*
Y406034D01*
X599679Y405979D01*
X599672Y405909D01*
X599665Y405840D01*
Y405757D01*
X599658Y405674D01*
Y403836D01*
X601946D01*
Y405563D01*
X601939Y405618D01*
Y405687D01*
X601932Y405764D01*
X601918Y405854D01*
X601905Y405944D01*
X601870Y406138D01*
X601814Y406332D01*
X601780Y406423D01*
X601738Y406506D01*
X601697Y406589D01*
X601641Y406658D01*
X601634Y406665D01*
X601627Y406672D01*
X601606Y406693D01*
X601586Y406714D01*
X601516Y406769D01*
X601419Y406832D01*
X601295Y406894D01*
X601149Y406950D01*
X600975Y406991D01*
X600885Y406998D01*
X600781Y407005D01*
D02*
G37*
G36*
X357294Y388852D02*
X355380D01*
X355332Y388845D01*
X355276D01*
X355145Y388838D01*
X354999Y388824D01*
X354846Y388803D01*
X354701Y388776D01*
X354569Y388734D01*
X354562D01*
X354555Y388727D01*
X354514Y388713D01*
X354458Y388686D01*
X354382Y388644D01*
X354305Y388588D01*
X354222Y388526D01*
X354139Y388443D01*
X354070Y388353D01*
X354063Y388339D01*
X354042Y388304D01*
X354014Y388256D01*
X353980Y388179D01*
X353952Y388096D01*
X353924Y387999D01*
X353903Y387888D01*
X353896Y387777D01*
Y387770D01*
Y387756D01*
Y387736D01*
X353903Y387701D01*
Y387666D01*
X353910Y387618D01*
X353938Y387514D01*
X353980Y387396D01*
X354035Y387271D01*
X354118Y387153D01*
X354174Y387091D01*
X354229Y387035D01*
X354236Y387028D01*
X354243Y387021D01*
X354264Y387007D01*
X354292Y386987D01*
X354326Y386966D01*
X354375Y386938D01*
X354423Y386911D01*
X354486Y386883D01*
X354555Y386855D01*
X354631Y386834D01*
X354715Y386806D01*
X354805Y386786D01*
X354909Y386765D01*
X355020Y386751D01*
X355138Y386737D01*
X357294D01*
Y388852D01*
D02*
G37*
G36*
X351511Y390177D02*
X349493D01*
Y387292D01*
X351511Y390177D01*
D02*
G37*
G36*
X388252Y370594D02*
X388204D01*
X388162Y370587D01*
X388120Y370580D01*
X388065Y370573D01*
X387940Y370546D01*
X387794Y370497D01*
X387642Y370428D01*
X387565Y370386D01*
X387489Y370337D01*
X387413Y370275D01*
X387344Y370206D01*
X387337Y370199D01*
X387330Y370185D01*
X387309Y370164D01*
X387288Y370136D01*
X387260Y370102D01*
X387226Y370053D01*
X387191Y369998D01*
X387163Y369935D01*
X387129Y369873D01*
X387094Y369797D01*
X387032Y369623D01*
X386990Y369429D01*
X386983Y369318D01*
X386976Y369207D01*
Y369200D01*
Y369186D01*
Y369166D01*
Y369138D01*
X386983Y369103D01*
Y369062D01*
X386997Y368958D01*
X387018Y368840D01*
X387046Y368708D01*
X387087Y368569D01*
X387142Y368431D01*
Y368424D01*
X387150Y368417D01*
X387163Y368396D01*
X387177Y368368D01*
X387212Y368306D01*
X387267Y368223D01*
X387337Y368132D01*
X387420Y368042D01*
X387510Y367952D01*
X387621Y367869D01*
X387628D01*
X387635Y367862D01*
X387677Y367841D01*
X387739Y367807D01*
X387822Y367772D01*
X387919Y367737D01*
X388030Y367702D01*
X388155Y367682D01*
X388280Y367675D01*
X388328D01*
X388363Y367682D01*
X388411Y367689D01*
X388460Y367696D01*
X388578Y367723D01*
X388710Y367772D01*
X388786Y367807D01*
X388855Y367841D01*
X388932Y367890D01*
X389001Y367938D01*
X389070Y368001D01*
X389140Y368070D01*
X389146Y368077D01*
X389154Y368091D01*
X389174Y368112D01*
X389195Y368146D01*
X389223Y368188D01*
X389250Y368236D01*
X389285Y368292D01*
X389320Y368361D01*
X389355Y368431D01*
X389389Y368514D01*
X389417Y368604D01*
X389445Y368701D01*
X389465Y368805D01*
X389486Y368923D01*
X389493Y369041D01*
X389500Y369166D01*
Y369173D01*
Y369193D01*
Y369228D01*
X389493Y369277D01*
X389486Y369332D01*
X389479Y369394D01*
X389472Y369464D01*
X389459Y369540D01*
X389417Y369706D01*
X389355Y369880D01*
X389313Y369970D01*
X389264Y370053D01*
X389209Y370130D01*
X389146Y370206D01*
X389140Y370213D01*
X389133Y370220D01*
X389112Y370240D01*
X389084Y370268D01*
X389049Y370296D01*
X389008Y370331D01*
X388904Y370400D01*
X388772Y370469D01*
X388619Y370532D01*
X388446Y370580D01*
X388349Y370587D01*
X388252Y370594D01*
D02*
G37*
G36*
X436287Y444055D02*
X436280D01*
X436259D01*
X436225D01*
X436176Y444048D01*
X436120Y444041D01*
X436051Y444034D01*
X435982Y444027D01*
X435899Y444013D01*
X435732Y443965D01*
X435552Y443902D01*
X435462Y443861D01*
X435378Y443812D01*
X435295Y443756D01*
X435219Y443694D01*
X435212Y443687D01*
X435198Y443680D01*
X435184Y443659D01*
X435157Y443632D01*
X435129Y443597D01*
X435094Y443555D01*
X435018Y443451D01*
X434942Y443327D01*
X434879Y443174D01*
X434851Y443098D01*
X434831Y443008D01*
X434824Y442918D01*
X434817Y442827D01*
Y442779D01*
X434824Y442737D01*
X434831Y442696D01*
X434838Y442640D01*
X434872Y442515D01*
X434921Y442370D01*
X434955Y442293D01*
X434997Y442217D01*
X435046Y442141D01*
X435108Y442065D01*
X435171Y441988D01*
X435247Y441912D01*
X435254Y441905D01*
X435267Y441898D01*
X435288Y441877D01*
X435323Y441850D01*
X435365Y441822D01*
X435420Y441794D01*
X435476Y441759D01*
X435545Y441725D01*
X435621Y441683D01*
X435704Y441648D01*
X435794Y441621D01*
X435899Y441593D01*
X436114Y441544D01*
X436231Y441538D01*
X436356Y441531D01*
X436363D01*
X436384D01*
X436412D01*
X436460Y441538D01*
X436509Y441544D01*
X436571Y441551D01*
X436710Y441579D01*
X436869Y441621D01*
X437029Y441683D01*
X437112Y441725D01*
X437195Y441773D01*
X437271Y441829D01*
X437348Y441891D01*
X437355Y441898D01*
X437362Y441905D01*
X437383Y441926D01*
X437403Y441961D01*
X437431Y441995D01*
X437466Y442037D01*
X437500Y442085D01*
X437535Y442141D01*
X437604Y442280D01*
X437667Y442432D01*
X437708Y442612D01*
X437715Y442710D01*
X437722Y442807D01*
Y442862D01*
X437715Y442897D01*
X437708Y442945D01*
X437701Y442994D01*
X437674Y443119D01*
X437632Y443264D01*
X437563Y443410D01*
X437521Y443486D01*
X437473Y443562D01*
X437410Y443632D01*
X437348Y443701D01*
X437341Y443708D01*
X437327Y443715D01*
X437306Y443736D01*
X437278Y443756D01*
X437237Y443784D01*
X437188Y443812D01*
X437133Y443847D01*
X437070Y443881D01*
X437001Y443909D01*
X436918Y443944D01*
X436835Y443971D01*
X436738Y443999D01*
X436634Y444020D01*
X436530Y444041D01*
X436412Y444048D01*
X436287Y444055D01*
D02*
G37*
G36*
X520926Y333371D02*
X520919D01*
X520905D01*
X520885D01*
X520850Y333364D01*
X520774Y333357D01*
X520670Y333336D01*
X520559Y333301D01*
X520434Y333246D01*
X520316Y333170D01*
X520253Y333128D01*
X520198Y333072D01*
X520191D01*
X520184Y333059D01*
X520149Y333017D01*
X520101Y332954D01*
X520046Y332864D01*
X519997Y332760D01*
X519948Y332629D01*
X519914Y332483D01*
X519900Y332407D01*
Y332282D01*
X519907Y332247D01*
Y332213D01*
X519914Y332164D01*
X519935Y332060D01*
X519969Y331942D01*
X520025Y331817D01*
X520094Y331693D01*
X520191Y331575D01*
X520205Y331561D01*
X520240Y331526D01*
X520302Y331484D01*
X520385Y331429D01*
X520482Y331373D01*
X520600Y331332D01*
X520732Y331297D01*
X520878Y331283D01*
X520885D01*
X520898D01*
X520919D01*
X520954Y331290D01*
X520995D01*
X521037Y331297D01*
X521141Y331318D01*
X521259Y331353D01*
X521384Y331401D01*
X521509Y331471D01*
X521620Y331568D01*
X521633Y331582D01*
X521661Y331623D01*
X521710Y331686D01*
X521758Y331776D01*
X521814Y331880D01*
X521862Y332011D01*
X521890Y332164D01*
X521904Y332331D01*
Y332372D01*
X521897Y332407D01*
Y332448D01*
X521890Y332490D01*
X521869Y332594D01*
X521834Y332712D01*
X521786Y332837D01*
X521717Y332962D01*
X521620Y333079D01*
X521606Y333093D01*
X521571Y333128D01*
X521509Y333170D01*
X521425Y333225D01*
X521328Y333280D01*
X521203Y333322D01*
X521072Y333357D01*
X520926Y333371D01*
D02*
G37*
G36*
X523859Y333634D02*
X523852D01*
X523832D01*
X523804D01*
X523762Y333627D01*
X523714Y333620D01*
X523658Y333613D01*
X523526Y333586D01*
X523381Y333544D01*
X523221Y333475D01*
X523145Y333433D01*
X523069Y333377D01*
X522993Y333322D01*
X522923Y333253D01*
X522916Y333246D01*
X522909Y333239D01*
X522888Y333218D01*
X522868Y333183D01*
X522833Y333149D01*
X522805Y333107D01*
X522771Y333052D01*
X522736Y332996D01*
X522667Y332857D01*
X522604Y332698D01*
X522563Y332511D01*
X522556Y332414D01*
X522549Y332310D01*
Y332254D01*
X522556Y332220D01*
X522563Y332171D01*
X522570Y332116D01*
X522597Y331984D01*
X522639Y331838D01*
X522701Y331686D01*
X522743Y331609D01*
X522791Y331533D01*
X522854Y331457D01*
X522916Y331387D01*
X522923Y331381D01*
X522930Y331373D01*
X522951Y331353D01*
X522979Y331332D01*
X523020Y331304D01*
X523062Y331277D01*
X523110Y331242D01*
X523166Y331207D01*
X523298Y331138D01*
X523457Y331082D01*
X523637Y331041D01*
X523728Y331034D01*
X523832Y331027D01*
X523839D01*
X523845D01*
X523887D01*
X523956Y331034D01*
X524040Y331048D01*
X524137Y331062D01*
X524248Y331089D01*
X524366Y331131D01*
X524483Y331179D01*
X524497Y331186D01*
X524532Y331207D01*
X524594Y331249D01*
X524664Y331297D01*
X524740Y331367D01*
X524816Y331443D01*
X524899Y331540D01*
X524969Y331651D01*
Y331658D01*
X524976Y331665D01*
X524996Y331706D01*
X525024Y331769D01*
X525052Y331859D01*
X525080Y331956D01*
X525107Y332074D01*
X525128Y332199D01*
X525135Y332331D01*
Y332386D01*
X525128Y332427D01*
X525121Y332476D01*
X525114Y332532D01*
X525087Y332663D01*
X525045Y332809D01*
X524983Y332968D01*
X524941Y333045D01*
X524893Y333121D01*
X524837Y333197D01*
X524775Y333267D01*
X524768Y333274D01*
X524761Y333280D01*
X524740Y333301D01*
X524712Y333322D01*
X524671Y333350D01*
X524629Y333384D01*
X524580Y333419D01*
X524525Y333454D01*
X524393Y333516D01*
X524234Y333579D01*
X524060Y333620D01*
X523963Y333627D01*
X523859Y333634D01*
D02*
G37*
G36*
X413066Y382704D02*
X413059D01*
X413045D01*
X413025D01*
X412990Y382697D01*
X412955D01*
X412907Y382690D01*
X412803Y382662D01*
X412685Y382620D01*
X412560Y382565D01*
X412442Y382482D01*
X412380Y382426D01*
X412324Y382371D01*
X412317Y382364D01*
X412310Y382357D01*
X412296Y382336D01*
X412276Y382308D01*
X412255Y382274D01*
X412227Y382225D01*
X412200Y382177D01*
X412172Y382114D01*
X412144Y382045D01*
X412123Y381969D01*
X412095Y381885D01*
X412075Y381795D01*
X412054Y381691D01*
X412040Y381580D01*
X412026Y381462D01*
Y379306D01*
X414141D01*
Y381220D01*
X414134Y381268D01*
Y381324D01*
X414127Y381455D01*
X414113Y381601D01*
X414092Y381754D01*
X414065Y381899D01*
X414023Y382031D01*
Y382038D01*
X414016Y382045D01*
X414002Y382086D01*
X413975Y382142D01*
X413933Y382218D01*
X413877Y382295D01*
X413815Y382378D01*
X413732Y382461D01*
X413642Y382530D01*
X413628Y382537D01*
X413593Y382558D01*
X413545Y382586D01*
X413468Y382620D01*
X413385Y382648D01*
X413288Y382676D01*
X413177Y382697D01*
X413066Y382704D01*
D02*
G37*
G36*
X485564Y384938D02*
X483650D01*
X483602Y384931D01*
X483546D01*
X483414Y384924D01*
X483269Y384910D01*
X483116Y384889D01*
X482971Y384862D01*
X482839Y384820D01*
X482832D01*
X482825Y384813D01*
X482783Y384799D01*
X482728Y384772D01*
X482652Y384730D01*
X482575Y384674D01*
X482492Y384612D01*
X482409Y384529D01*
X482340Y384439D01*
X482333Y384425D01*
X482312Y384390D01*
X482284Y384342D01*
X482249Y384265D01*
X482222Y384182D01*
X482194Y384085D01*
X482173Y383974D01*
X482166Y383863D01*
Y383856D01*
Y383842D01*
Y383822D01*
X482173Y383787D01*
Y383752D01*
X482180Y383704D01*
X482208Y383600D01*
X482249Y383482D01*
X482305Y383357D01*
X482388Y383239D01*
X482444Y383177D01*
X482499Y383121D01*
X482506Y383114D01*
X482513Y383107D01*
X482534Y383093D01*
X482561Y383073D01*
X482596Y383052D01*
X482645Y383024D01*
X482693Y382996D01*
X482756Y382969D01*
X482825Y382941D01*
X482901Y382920D01*
X482985Y382892D01*
X483075Y382872D01*
X483179Y382851D01*
X483290Y382837D01*
X483408Y382823D01*
X485564D01*
Y384938D01*
D02*
G37*
G36*
X478186Y387975D02*
X478131D01*
X478089Y387968D01*
X478040Y387961D01*
X477985Y387954D01*
X477853Y387927D01*
X477708Y387885D01*
X477548Y387823D01*
X477472Y387781D01*
X477396Y387733D01*
X477319Y387677D01*
X477250Y387615D01*
X477243Y387608D01*
X477236Y387601D01*
X477215Y387580D01*
X477195Y387552D01*
X477167Y387511D01*
X477132Y387469D01*
X477097Y387421D01*
X477063Y387365D01*
X477000Y387233D01*
X476938Y387074D01*
X476896Y386900D01*
X476889Y386803D01*
X476882Y386699D01*
Y386692D01*
Y386672D01*
Y386644D01*
X476889Y386602D01*
X476896Y386554D01*
X476903Y386498D01*
X476931Y386367D01*
X476973Y386221D01*
X477042Y386061D01*
X477084Y385985D01*
X477139Y385909D01*
X477195Y385832D01*
X477264Y385763D01*
X477271Y385756D01*
X477278Y385749D01*
X477299Y385728D01*
X477333Y385708D01*
X477368Y385673D01*
X477409Y385645D01*
X477465Y385611D01*
X477520Y385576D01*
X477659Y385507D01*
X477819Y385444D01*
X478006Y385403D01*
X478103Y385396D01*
X478207Y385389D01*
X478262D01*
X478297Y385396D01*
X478346Y385403D01*
X478401Y385410D01*
X478533Y385437D01*
X478678Y385479D01*
X478831Y385541D01*
X478907Y385583D01*
X478983Y385631D01*
X479060Y385694D01*
X479129Y385756D01*
X479136Y385763D01*
X479143Y385770D01*
X479164Y385791D01*
X479185Y385819D01*
X479212Y385860D01*
X479240Y385902D01*
X479275Y385950D01*
X479309Y386006D01*
X479379Y386138D01*
X479434Y386297D01*
X479476Y386477D01*
X479483Y386568D01*
X479490Y386672D01*
Y386679D01*
Y386685D01*
Y386727D01*
X479483Y386796D01*
X479469Y386880D01*
X479455Y386977D01*
X479427Y387088D01*
X479386Y387206D01*
X479337Y387323D01*
X479330Y387337D01*
X479309Y387372D01*
X479268Y387434D01*
X479219Y387504D01*
X479150Y387580D01*
X479074Y387656D01*
X478977Y387739D01*
X478866Y387809D01*
X478859D01*
X478852Y387816D01*
X478810Y387836D01*
X478748Y387864D01*
X478658Y387892D01*
X478560Y387920D01*
X478443Y387948D01*
X478318Y387968D01*
X478186Y387975D01*
D02*
G37*
G36*
Y384744D02*
X478144D01*
X478110Y384737D01*
X478068D01*
X478027Y384730D01*
X477923Y384709D01*
X477805Y384674D01*
X477680Y384626D01*
X477555Y384557D01*
X477437Y384460D01*
X477423Y384446D01*
X477389Y384411D01*
X477347Y384349D01*
X477292Y384265D01*
X477236Y384168D01*
X477195Y384044D01*
X477160Y383912D01*
X477146Y383766D01*
Y383759D01*
Y383745D01*
Y383725D01*
X477153Y383690D01*
X477160Y383614D01*
X477181Y383510D01*
X477215Y383399D01*
X477271Y383274D01*
X477347Y383156D01*
X477389Y383093D01*
X477444Y383038D01*
Y383031D01*
X477458Y383024D01*
X477500Y382990D01*
X477562Y382941D01*
X477652Y382886D01*
X477756Y382837D01*
X477888Y382788D01*
X478033Y382754D01*
X478110Y382740D01*
X478235D01*
X478269Y382747D01*
X478304D01*
X478353Y382754D01*
X478456Y382775D01*
X478574Y382809D01*
X478699Y382865D01*
X478824Y382934D01*
X478942Y383031D01*
X478956Y383045D01*
X478990Y383080D01*
X479032Y383142D01*
X479087Y383225D01*
X479143Y383322D01*
X479185Y383440D01*
X479219Y383572D01*
X479233Y383718D01*
Y383725D01*
Y383738D01*
Y383759D01*
X479226Y383794D01*
Y383835D01*
X479219Y383877D01*
X479198Y383981D01*
X479164Y384099D01*
X479115Y384224D01*
X479046Y384349D01*
X478949Y384460D01*
X478935Y384473D01*
X478893Y384501D01*
X478831Y384550D01*
X478741Y384598D01*
X478637Y384654D01*
X478505Y384702D01*
X478353Y384730D01*
X478186Y384744D01*
D02*
G37*
G36*
X467784Y359642D02*
X465870D01*
X465822Y359635D01*
X465766D01*
X465634Y359628D01*
X465489Y359614D01*
X465336Y359594D01*
X465191Y359566D01*
X465059Y359524D01*
X465052D01*
X465045Y359517D01*
X465004Y359503D01*
X464948Y359476D01*
X464872Y359434D01*
X464795Y359379D01*
X464712Y359316D01*
X464629Y359233D01*
X464560Y359143D01*
X464553Y359129D01*
X464532Y359094D01*
X464504Y359046D01*
X464470Y358969D01*
X464442Y358886D01*
X464414Y358789D01*
X464393Y358678D01*
X464386Y358567D01*
Y358560D01*
Y358546D01*
Y358526D01*
X464393Y358491D01*
Y358456D01*
X464400Y358408D01*
X464428Y358304D01*
X464470Y358186D01*
X464525Y358061D01*
X464608Y357943D01*
X464664Y357881D01*
X464719Y357825D01*
X464726Y357818D01*
X464733Y357811D01*
X464754Y357798D01*
X464782Y357777D01*
X464816Y357756D01*
X464865Y357728D01*
X464913Y357701D01*
X464976Y357673D01*
X465045Y357645D01*
X465121Y357624D01*
X465205Y357597D01*
X465295Y357576D01*
X465399Y357555D01*
X465510Y357541D01*
X465628Y357527D01*
X467784D01*
Y359642D01*
D02*
G37*
G36*
X452656Y384938D02*
X450742D01*
X450694Y384931D01*
X450638D01*
X450507Y384924D01*
X450361Y384910D01*
X450209Y384889D01*
X450063Y384862D01*
X449931Y384820D01*
X449924D01*
X449917Y384813D01*
X449876Y384799D01*
X449820Y384772D01*
X449744Y384730D01*
X449668Y384674D01*
X449584Y384612D01*
X449501Y384529D01*
X449432Y384439D01*
X449425Y384425D01*
X449404Y384390D01*
X449376Y384342D01*
X449342Y384265D01*
X449314Y384182D01*
X449286Y384085D01*
X449266Y383974D01*
X449258Y383863D01*
Y383856D01*
Y383842D01*
Y383822D01*
X449266Y383787D01*
Y383752D01*
X449272Y383704D01*
X449300Y383600D01*
X449342Y383482D01*
X449397Y383357D01*
X449480Y383239D01*
X449536Y383177D01*
X449591Y383121D01*
X449598Y383114D01*
X449605Y383107D01*
X449626Y383093D01*
X449654Y383073D01*
X449688Y383052D01*
X449737Y383024D01*
X449785Y382996D01*
X449848Y382969D01*
X449917Y382941D01*
X449994Y382920D01*
X450077Y382892D01*
X450167Y382872D01*
X450271Y382851D01*
X450382Y382837D01*
X450500Y382823D01*
X452656D01*
Y384938D01*
D02*
G37*
G36*
X446631Y385215D02*
X446630Y385208D01*
X446631Y385208D01*
Y385215D01*
D02*
G37*
G36*
X445209Y387975D02*
X445160D01*
X445126Y387968D01*
X445077Y387961D01*
X445029Y387954D01*
X444911Y387927D01*
X444779Y387878D01*
X444703Y387843D01*
X444633Y387809D01*
X444557Y387760D01*
X444488Y387712D01*
X444418Y387649D01*
X444349Y387580D01*
X444342Y387573D01*
X444335Y387559D01*
X444314Y387538D01*
X444294Y387504D01*
X444266Y387462D01*
X444238Y387413D01*
X444203Y387358D01*
X444169Y387289D01*
X444134Y387219D01*
X444100Y387136D01*
X444072Y387046D01*
X444044Y386949D01*
X444023Y386845D01*
X444002Y386727D01*
X443996Y386609D01*
X443988Y386484D01*
Y386477D01*
Y386457D01*
Y386422D01*
X443996Y386373D01*
X444002Y386318D01*
X444009Y386255D01*
X444016Y386186D01*
X444030Y386110D01*
X444072Y385943D01*
X444134Y385770D01*
X444176Y385680D01*
X444224Y385597D01*
X444280Y385521D01*
X444342Y385444D01*
X444349Y385437D01*
X444356Y385430D01*
X444377Y385410D01*
X444405Y385382D01*
X444439Y385354D01*
X444481Y385319D01*
X444585Y385250D01*
X444717Y385181D01*
X444869Y385118D01*
X445042Y385070D01*
X445140Y385063D01*
X445237Y385056D01*
X445285D01*
X445327Y385063D01*
X445368Y385070D01*
X445424Y385077D01*
X445549Y385104D01*
X445694Y385153D01*
X445847Y385222D01*
X445923Y385264D01*
X445999Y385312D01*
X446076Y385375D01*
X446145Y385444D01*
X446152Y385451D01*
X446159Y385465D01*
X446180Y385486D01*
X446201Y385514D01*
X446228Y385548D01*
X446263Y385597D01*
X446298Y385652D01*
X446325Y385715D01*
X446360Y385777D01*
X446395Y385853D01*
X446457Y386027D01*
X446499Y386221D01*
X446506Y386332D01*
X446513Y386443D01*
Y386450D01*
Y386464D01*
Y386484D01*
Y386512D01*
X446506Y386547D01*
Y386588D01*
X446492Y386692D01*
X446471Y386810D01*
X446443Y386942D01*
X446402Y387081D01*
X446346Y387219D01*
Y387226D01*
X446339Y387233D01*
X446325Y387254D01*
X446311Y387282D01*
X446277Y387344D01*
X446221Y387427D01*
X446152Y387518D01*
X446069Y387608D01*
X445979Y387698D01*
X445868Y387781D01*
X445861D01*
X445854Y387788D01*
X445812Y387809D01*
X445750Y387843D01*
X445667Y387878D01*
X445569Y387913D01*
X445459Y387948D01*
X445334Y387968D01*
X445209Y387975D01*
D02*
G37*
G36*
X366184Y329162D02*
X364270D01*
X364222Y329155D01*
X364166D01*
X364035Y329148D01*
X363889Y329134D01*
X363736Y329114D01*
X363591Y329086D01*
X363459Y329044D01*
X363452D01*
X363445Y329037D01*
X363404Y329023D01*
X363348Y328996D01*
X363272Y328954D01*
X363195Y328899D01*
X363112Y328836D01*
X363029Y328753D01*
X362960Y328663D01*
X362953Y328649D01*
X362932Y328614D01*
X362904Y328566D01*
X362870Y328489D01*
X362842Y328406D01*
X362814Y328309D01*
X362793Y328198D01*
X362786Y328087D01*
Y328080D01*
Y328066D01*
Y328046D01*
X362793Y328011D01*
Y327976D01*
X362800Y327928D01*
X362828Y327824D01*
X362870Y327706D01*
X362925Y327581D01*
X363008Y327463D01*
X363064Y327401D01*
X363119Y327345D01*
X363126Y327338D01*
X363133Y327331D01*
X363154Y327318D01*
X363182Y327297D01*
X363216Y327276D01*
X363265Y327248D01*
X363313Y327220D01*
X363376Y327193D01*
X363445Y327165D01*
X363521Y327144D01*
X363605Y327117D01*
X363695Y327096D01*
X363799Y327075D01*
X363910Y327061D01*
X364028Y327047D01*
X366184D01*
Y329162D01*
D02*
G37*
G36*
Y306302D02*
X364270D01*
X364222Y306295D01*
X364166D01*
X364035Y306288D01*
X363889Y306274D01*
X363736Y306254D01*
X363591Y306226D01*
X363459Y306184D01*
X363452D01*
X363445Y306177D01*
X363404Y306163D01*
X363348Y306136D01*
X363272Y306094D01*
X363195Y306039D01*
X363112Y305976D01*
X363029Y305893D01*
X362960Y305803D01*
X362953Y305789D01*
X362932Y305754D01*
X362904Y305706D01*
X362870Y305629D01*
X362842Y305546D01*
X362814Y305449D01*
X362793Y305338D01*
X362786Y305227D01*
Y305220D01*
Y305207D01*
Y305186D01*
X362793Y305151D01*
Y305116D01*
X362800Y305068D01*
X362828Y304964D01*
X362870Y304846D01*
X362925Y304721D01*
X363008Y304603D01*
X363064Y304541D01*
X363119Y304485D01*
X363126Y304478D01*
X363133Y304471D01*
X363154Y304458D01*
X363182Y304437D01*
X363216Y304416D01*
X363265Y304388D01*
X363313Y304361D01*
X363376Y304333D01*
X363445Y304305D01*
X363521Y304284D01*
X363605Y304256D01*
X363695Y304236D01*
X363799Y304215D01*
X363910Y304201D01*
X364028Y304187D01*
X366184D01*
Y306302D01*
D02*
G37*
%LPD*%
D11*
X349620Y283510D02*
Y384510D01*
X290120Y283510D02*
X349620D01*
X290120D02*
Y384510D01*
X349620D01*
X549780Y307891D02*
X565280D01*
Y334953D01*
X549780D02*
X565280D01*
X549780Y307891D02*
Y334953D01*
X573670Y352490D02*
X633170D01*
Y453490D01*
X573670D02*
X633170D01*
X573670Y352490D02*
Y453490D01*
X346629Y398839D02*
X372191D01*
Y441901D01*
X346629D02*
X372191D01*
X346629Y398839D02*
Y441901D01*
X344609Y384680D02*
X371671D01*
X344609D02*
Y400180D01*
X371671D01*
Y384680D02*
Y400180D01*
X358199Y379811D02*
X401261D01*
Y354249D02*
Y379811D01*
X358199Y354249D02*
X401261D01*
X358199D02*
Y379811D01*
X435099Y295810D02*
Y346810D01*
Y295810D02*
X502161D01*
Y346810D01*
X435099D02*
X502161D01*
X421771Y416110D02*
Y455110D01*
X370709D02*
X421771D01*
X370709Y416110D02*
Y455110D01*
Y416110D02*
X421771D01*
X519349Y377249D02*
Y420311D01*
X544911D01*
Y377249D02*
Y420311D01*
X519349Y377249D02*
X544911D01*
X571581Y393759D02*
Y436821D01*
X546019Y393759D02*
X571581D01*
X546019D02*
Y436821D01*
X571581D01*
X387220Y308249D02*
Y334371D01*
X402720D01*
Y308249D02*
Y334371D01*
X387220Y308249D02*
X402720D01*
X427909Y412809D02*
Y455871D01*
X453471D01*
Y412809D02*
Y455871D01*
X427909Y412809D02*
X453471D01*
X512999Y302319D02*
Y345381D01*
X538561D01*
Y302319D02*
Y345381D01*
X512999Y302319D02*
X538561D01*
X410080Y364929D02*
X425580D01*
Y391991D01*
X410080D02*
X425580D01*
X410080Y364929D02*
Y391991D01*
X499941Y380870D02*
Y396370D01*
X472879D02*
X499941D01*
X472879Y380870D02*
Y396370D01*
Y380870D02*
X499941D01*
X482161Y355470D02*
Y370970D01*
X455099D02*
X482161D01*
X455099Y355470D02*
Y370970D01*
Y355470D02*
X482161D01*
X467033Y380870D02*
Y396370D01*
X439971D02*
X467033D01*
X439971Y380870D02*
Y396370D01*
Y380870D02*
X467033D01*
X380561Y324990D02*
Y340490D01*
X353499D02*
X380561D01*
X353499Y324990D02*
Y340490D01*
Y324990D02*
X380561D01*
Y302130D02*
Y317630D01*
X353499D02*
X380561D01*
X353499Y302130D02*
Y317630D01*
Y302130D02*
X380561D01*
M02*
