M48
;Layer_Color=9474304
;FILE_FORMAT=4:4
METRIC,LZ
;TYPE=PLATED
T01F00S00C0.3000
T02F00S00C0.7112
T03F00S00C0.9000
T04F00S00C1.1000
T05F00S00C2.5400
%
T01
X003556Y003683
X0037592Y0038735
X00409356Y0041021
X0038862
X0037418Y00412477
T02
X0040132Y0029464
Y0034671
X005461Y0035179
X0050927Y0030099
X0051689Y0041529
X004572Y0044196
T03
X0032512Y0030901
Y0033401
Y0035901
X0059817Y0037799
Y0040299
Y0042799
T04
X0059182Y0029972
Y0032512
T05
X0036449Y0027051
X0061595
X0055626Y0045085
X0030734Y0044958
M30
