G04*
G04 #@! TF.GenerationSoftware,Altium Limited,Altium Designer,24.3.1 (35)*
G04*
G04 Layer_Color=8388736*
%FSLAX44Y44*%
%MOMM*%
G71*
G04*
G04 #@! TF.SameCoordinates,A55C384A-10D3-4AF3-AD7F-F2B73029A162*
G04*
G04*
G04 #@! TF.FilePolarity,Negative*
G04*
G01*
G75*
%ADD13R,1.2621X1.0046*%
%ADD14R,1.5562X1.4546*%
%ADD15R,1.0046X1.2621*%
%ADD16R,1.4546X1.5562*%
G04:AMPARAMS|DCode=17|XSize=1.8741mm|YSize=0.5421mm|CornerRadius=0.2711mm|HoleSize=0mm|Usage=FLASHONLY|Rotation=0.000|XOffset=0mm|YOffset=0mm|HoleType=Round|Shape=RoundedRectangle|*
%AMROUNDEDRECTD17*
21,1,1.8741,0.0000,0,0,0.0*
21,1,1.3319,0.5421,0,0,0.0*
1,1,0.5421,0.6660,0.0000*
1,1,0.5421,-0.6660,0.0000*
1,1,0.5421,-0.6660,0.0000*
1,1,0.5421,0.6660,0.0000*
%
%ADD17ROUNDEDRECTD17*%
%ADD18R,1.8741X0.5421*%
G04:AMPARAMS|DCode=20|XSize=1.8052mm|YSize=0.6121mm|CornerRadius=0.3061mm|HoleSize=0mm|Usage=FLASHONLY|Rotation=180.000|XOffset=0mm|YOffset=0mm|HoleType=Round|Shape=RoundedRectangle|*
%AMROUNDEDRECTD20*
21,1,1.8052,0.0000,0,0,180.0*
21,1,1.1931,0.6121,0,0,180.0*
1,1,0.6121,-0.5966,0.0000*
1,1,0.6121,0.5966,0.0000*
1,1,0.6121,0.5966,0.0000*
1,1,0.6121,-0.5966,0.0000*
%
%ADD20ROUNDEDRECTD20*%
%ADD21R,1.8052X0.6121*%
%ADD22R,1.2621X0.9578*%
%ADD24R,1.9500X1.4000*%
%ADD25R,1.5000X1.1000*%
%ADD26R,1.4000X1.4000*%
%ADD27C,1.4000*%
G04:AMPARAMS|DCode=28|XSize=1.75mm|YSize=1.75mm|CornerRadius=0.475mm|HoleSize=0mm|Usage=FLASHONLY|Rotation=270.000|XOffset=0mm|YOffset=0mm|HoleType=Round|Shape=RoundedRectangle|*
%AMROUNDEDRECTD28*
21,1,1.7500,0.8000,0,0,270.0*
21,1,0.8000,1.7500,0,0,270.0*
1,1,0.9500,-0.4000,-0.4000*
1,1,0.9500,-0.4000,0.4000*
1,1,0.9500,0.4000,0.4000*
1,1,0.9500,0.4000,-0.4000*
%
%ADD28ROUNDEDRECTD28*%
%ADD29C,1.7500*%
%ADD30C,3.1980*%
%ADD31C,1.4200*%
%ADD32C,0.7500*%
D13*
X557530Y328930D02*
D03*
Y313914D02*
D03*
X417830Y385968D02*
D03*
Y370952D02*
D03*
D14*
X359410Y429628D02*
D03*
Y411112D02*
D03*
X532130Y389522D02*
D03*
Y408038D02*
D03*
X558800Y424548D02*
D03*
Y406032D02*
D03*
X440690Y425082D02*
D03*
Y443598D02*
D03*
X525780Y314592D02*
D03*
Y333108D02*
D03*
D15*
X365648Y392430D02*
D03*
X350632D02*
D03*
X478902Y388620D02*
D03*
X493918D02*
D03*
X461122Y363220D02*
D03*
X476138D02*
D03*
X445994Y388620D02*
D03*
X461010D02*
D03*
X359522Y332740D02*
D03*
X374538D02*
D03*
X359522Y309880D02*
D03*
X374538D02*
D03*
D16*
X370472Y367030D02*
D03*
X388988D02*
D03*
D17*
X491791Y340360D02*
D03*
Y327660D02*
D03*
Y314960D02*
D03*
Y302260D02*
D03*
X445469D02*
D03*
Y314960D02*
D03*
Y327660D02*
D03*
D18*
Y340360D02*
D03*
D20*
X384735Y426110D02*
D03*
Y445110D02*
D03*
X407745D02*
D03*
Y435610D02*
D03*
D21*
Y426110D02*
D03*
D22*
X394970Y314038D02*
D03*
Y328582D02*
D03*
D24*
X533700Y363220D02*
D03*
X507700D02*
D03*
X462580Y278130D02*
D03*
X436580D02*
D03*
D25*
X416560Y296800D02*
D03*
Y312800D02*
D03*
Y345820D02*
D03*
Y329820D02*
D03*
D26*
X325120Y359010D02*
D03*
X598170Y377990D02*
D03*
D27*
X325120Y334010D02*
D03*
Y309010D02*
D03*
X598170Y427990D02*
D03*
Y402990D02*
D03*
D28*
X591820Y325120D02*
D03*
D29*
Y299720D02*
D03*
D30*
X307340Y449580D02*
D03*
X556260Y450850D02*
D03*
X615950Y270510D02*
D03*
X364490D02*
D03*
D31*
X401320Y294640D02*
D03*
Y346710D02*
D03*
X546100Y351790D02*
D03*
X516890Y415290D02*
D03*
X457200Y441960D02*
D03*
X509270Y300990D02*
D03*
D32*
X409356Y410210D02*
D03*
X388620D02*
D03*
X374180Y412477D02*
D03*
X375920Y387350D02*
D03*
X355600Y368300D02*
D03*
M02*
